<?xml version="1.0" encoding="UTF-8" standalone="no" ?>
<!DOCTYPE svg PUBLIC "-//W3C//DTD SVG 1.1//EN" "http://www.w3.org/Graphics/SVG/1.1/DTD/svg11.dtd">
<svg xmlns="http://www.w3.org/2000/svg" xmlns:xlink="http://www.w3.org/1999/xlink" version="1.1" width="1280" height="1024" viewBox="0 0 1280 1024" xml:space="preserve">
<desc>Created with Fabric.js 5.3.0</desc>
<defs>
</defs>
<g transform="matrix(1 0 0 1 640 512)" id="background-logo"  >
<rect style="stroke: none; stroke-width: 0; stroke-dasharray: none; stroke-linecap: butt; stroke-dashoffset: 0; stroke-linejoin: miter; stroke-miterlimit: 4; fill: rgb(255,255,255); fill-opacity: 0; fill-rule: nonzero; opacity: 1;"  paint-order="stroke"  x="-640" y="-512" rx="0" ry="0" width="1280" height="1024" />
</g>
<g transform="matrix(1.6042875216877774 0 0 1.6042875216877774 207.07724949392707 504.585020242915)" id="logo-logo"  >
<g style=""  paint-order="stroke"   >
		<g transform="matrix(1.7046436714538828 0 0 1.7046436714538828 0 0)"  >
<linearGradient id="SVGID_7_108743" gradientUnits="userSpaceOnUse" gradientTransform="matrix(1 0 0 1 133.58999999999997 93.31)"  x1="0" y1="0" x2="0" y2="109">
<stop offset="0%" style="stop-color:rgb(98,39,116);stop-opacity: 1"/>
<stop offset="100%" style="stop-color:rgb(197,51,100);stop-opacity: 1"/>
</linearGradient>
<path style="stroke: none; stroke-width: 1; stroke-dasharray: none; stroke-linecap: butt; stroke-dashoffset: 0; stroke-linejoin: miter; stroke-miterlimit: 4; fill: url(#SVGID_7_108743); fill-rule: nonzero; opacity: 1;"  paint-order="stroke"  transform=" translate(-187.885, -147.61)" d="M 187.89 93.31 C 157.95 93.31 133.58999999999997 117.67 133.58999999999997 147.61 C 133.58999999999997 177.55 157.95 201.91000000000003 187.89 201.91000000000003 C 189.25 201.91000000000003 190.58999999999997 201.86 191.92 201.76000000000002 L 191.92 201.76000000000002 C 191.92 201.76000000000002 191.92 201.76000000000002 191.92 201.76000000000002 C 219.98 199.69000000000003 242.17999999999998 176.19000000000003 242.17999999999998 147.61 C 242.17999999999998 119.03 217.82 93.31000000000002 187.88 93.31000000000002 Z M 222.82 168.28 C 221.73 168.01 221.04999999999998 166.9 221.32 165.81 C 221.54999999999998 164.88 222.39 164.25 223.31 164.25 C 223.47 164.25 223.63 164.27 223.8 164.31 C 224.89000000000001 164.58 225.57000000000002 165.69 225.3 166.78 C 225.14000000000001 167.43 224.67000000000002 167.97 224.03 168.21 C 223.64000000000001 168.36 223.23 168.38 222.82 168.28 Z M 226.14 170.01 C 226.98 169.37 227.6 168.45999999999998 227.85999999999999 167.41 C 228.48 164.9 226.94 162.37 224.42999999999998 161.75 C 221.92999999999998 161.13 219.39 162.67 218.76999999999998 165.18 C 218.14999999999998 167.69 219.68999999999997 170.22 222.2 170.84 C 222.57 170.93 222.95 170.98 223.32 170.98 C 223.43 170.98 223.53 170.98 223.64 170.97 C 224.08999999999997 173.28 224.19 175.59 224.19 177.29 C 224.19 178.97 223.97 180.69 223.51 182.70999999999998 L 223.42 183.09999999999997 C 223.22 184.01999999999995 222.86999999999998 185.56999999999996 222.32 186.06999999999996 L 222.35 186.09999999999997 C 215.23999999999998 192.46999999999997 206.35999999999999 196.90999999999997 196.54999999999998 198.56999999999996 C 198.79 196.73999999999995 200.66 194.75999999999996 202.18999999999997 192.55999999999997 C 207.44999999999996 185.01999999999998 210.17999999999998 178.80999999999997 211.30999999999997 171.77999999999997 C 211.45999999999998 170.81999999999996 211.58999999999997 169.86999999999998 211.68999999999997 168.92999999999998 C 212.18999999999997 167.12999999999997 213.15999999999997 165.46999999999997 214.19999999999996 163.71999999999997 C 214.54999999999995 163.12999999999997 214.90999999999997 162.51999999999998 215.24999999999997 161.90999999999997 C 218.63999999999996 155.75999999999996 222.87999999999997 149.04999999999995 228.80999999999997 145.19999999999996 C 229.32999999999998 145.60999999999996 229.92 145.89999999999995 230.57999999999998 146.05999999999997 C 230.95 146.14999999999998 231.32999999999998 146.19999999999996 231.7 146.19999999999996 C 233.79999999999998 146.19999999999996 235.72 144.76999999999995 236.23999999999998 142.63999999999996 C 236.85999999999999 140.12999999999997 235.32 137.59999999999997 232.80999999999997 136.97999999999996 C 231.59999999999997 136.67999999999995 230.33999999999997 136.86999999999995 229.26999999999998 137.51999999999995 C 228.2 138.16999999999996 227.45 139.18999999999994 227.14999999999998 140.40999999999994 C 226.92999999999998 141.29999999999993 226.98 142.21999999999994 227.27999999999997 143.05999999999995 C 220.91999999999996 147.22999999999993 216.47999999999996 154.22999999999993 212.93999999999997 160.63999999999993 C 212.63999999999996 161.17999999999992 212.31999999999996 161.71999999999994 211.98999999999998 162.27999999999992 C 211.89 156.92999999999992 210.92999999999998 151.86999999999992 209.2 147.36999999999992 L 209.32 147.36999999999992 C 209.32999999999998 145.83999999999992 209.94 143.8799999999999 211.04999999999998 141.8499999999999 C 212.88 138.4699999999999 215.55999999999997 135.2199999999999 218.36999999999998 132.9199999999999 C 218.95999999999998 133.5399999999999 219.73 133.99999999999991 220.61999999999998 134.2199999999999 C 220.98999999999998 134.30999999999992 221.36999999999998 134.3599999999999 221.74999999999997 134.3599999999999 C 222.58999999999997 134.3599999999999 223.41999999999996 134.1299999999999 224.15999999999997 133.6799999999999 C 225.22999999999996 133.0299999999999 225.97999999999996 132.0099999999999 226.27999999999997 130.7899999999999 C 226.57999999999998 129.5699999999999 226.39 128.3199999999999 225.73999999999998 127.2499999999999 C 225.08999999999997 126.17999999999991 224.07 125.42999999999991 222.85 125.1299999999999 C 220.34 124.50999999999989 217.81 126.0499999999999 217.19 128.5599999999999 C 217.03 129.22999999999988 217.02 129.8999999999999 217.14 130.5299999999999 C 213.88 133.0799999999999 210.85 136.68999999999988 208.73 140.5899999999999 C 208.29 141.3999999999999 207.81 142.3999999999999 207.42999999999998 143.4999999999999 C 206.37999999999997 141.5299999999999 205.15999999999997 139.69999999999987 203.77999999999997 138.0499999999999 C 204.00999999999996 137.6599999999999 204.19999999999996 137.2299999999999 204.30999999999997 136.7599999999999 L 204.30999999999997 136.7599999999999 C 204.92999999999998 134.24999999999991 203.39 131.7199999999999 200.87999999999997 131.0999999999999 C 199.66999999999996 130.7999999999999 198.40999999999997 130.9899999999999 197.33999999999997 131.6399999999999 C 196.26999999999998 132.2899999999999 195.51999999999998 133.3099999999999 195.21999999999997 134.5299999999999 C 194.91999999999996 135.7399999999999 195.10999999999996 136.9999999999999 195.75999999999996 138.06999999999988 C 196.40999999999997 139.13999999999987 197.42999999999995 139.88999999999987 198.64999999999995 140.18999999999988 C 199.01999999999995 140.2799999999999 199.39999999999995 140.32999999999987 199.76999999999995 140.32999999999987 C 200.49999999999994 140.32999999999987 201.20999999999995 140.14999999999986 201.83999999999995 139.83999999999986 C 207.63999999999996 146.82999999999987 210.26999999999995 157.20999999999987 209.08999999999995 168.46999999999986 C 209.06999999999994 168.53999999999985 209.04999999999995 168.59999999999985 209.02999999999994 168.66999999999985 L 209.06999999999994 168.66999999999985 C 208.96999999999994 169.56999999999985 208.84999999999994 170.47999999999985 208.70999999999992 171.37999999999985 C 207.72999999999993 177.48999999999987 205.42999999999992 182.97999999999985 201.11999999999992 189.45999999999987 C 200.36999999999992 186.49999999999986 198.51999999999992 183.72999999999988 196.51999999999992 181.63999999999987 C 196.61999999999992 181.39999999999986 196.70999999999992 181.15999999999988 196.76999999999992 180.90999999999988 C 197.38999999999993 178.3999999999999 195.84999999999994 175.8699999999999 193.33999999999992 175.2499999999999 C 192.1299999999999 174.94999999999987 190.86999999999992 175.13999999999987 189.79999999999993 175.78999999999988 C 188.72999999999993 176.43999999999988 187.97999999999993 177.45999999999987 187.67999999999992 178.67999999999986 C 187.05999999999992 181.18999999999986 188.5999999999999 183.71999999999986 191.10999999999993 184.33999999999986 C 191.47999999999993 184.42999999999986 191.85999999999993 184.47999999999985 192.22999999999993 184.47999999999985 C 193.15999999999994 184.47999999999985 194.05999999999995 184.18999999999986 194.81999999999994 183.68999999999986 C 197.47999999999993 186.52999999999986 198.99999999999994 189.89999999999986 198.81999999999994 192.65999999999985 C 196.80999999999995 195.09999999999985 194.26999999999992 197.25999999999985 191.09999999999994 199.21999999999986 C 190.03999999999994 199.28999999999985 188.96999999999994 199.31999999999985 187.88999999999993 199.31999999999985 C 184.21999999999994 199.31999999999985 180.62999999999994 198.92999999999986 177.16999999999993 198.19999999999985 C 177.25999999999993 198.01999999999984 177.34999999999994 197.84999999999985 177.43999999999994 197.66999999999985 C 180.14999999999995 192.43999999999986 182.70999999999995 187.49999999999986 178.63999999999993 180.73999999999984 C 177.90999999999994 179.52999999999983 176.85999999999993 178.20999999999984 175.57999999999993 177.13999999999984 C 184.73999999999992 176.19999999999985 196.66999999999993 172.41999999999985 202.20999999999992 159.89999999999984 C 204.23999999999992 159.81999999999982 206.06999999999994 158.41999999999985 206.57999999999993 156.34999999999982 C 207.19999999999993 153.83999999999983 205.65999999999994 151.30999999999983 203.14999999999992 150.68999999999983 C 201.9399999999999 150.38999999999982 200.67999999999992 150.5799999999998 199.60999999999993 151.22999999999982 C 198.53999999999994 151.87999999999982 197.78999999999994 152.8999999999998 197.48999999999992 154.1199999999998 C 197.1899999999999 155.3399999999998 197.3799999999999 156.5899999999998 198.02999999999992 157.6599999999998 C 198.42999999999992 158.3199999999998 198.9699999999999 158.8599999999998 199.61999999999992 159.2399999999998 C 193.36999999999992 172.7199999999998 178.60999999999993 174.78999999999982 170.16999999999993 174.78999999999982 L 170.16999999999993 174.81999999999982 C 168.49999999999994 174.5499999999998 166.84999999999994 174.4599999999998 165.23999999999992 174.36999999999983 C 164.76999999999992 174.33999999999983 164.28999999999994 174.31999999999982 163.80999999999992 174.27999999999983 C 161.04999999999993 174.09999999999982 158.9399999999999 173.42999999999984 157.52999999999992 172.29999999999984 C 155.8499999999999 170.94999999999985 155.92999999999992 168.55999999999983 156.26999999999992 166.16999999999985 C 156.28999999999994 166.01999999999984 156.31999999999994 165.86999999999983 156.34999999999994 165.71999999999986 C 156.44999999999993 165.16999999999985 156.56999999999994 164.53999999999985 156.45999999999995 163.84999999999985 C 156.39999999999995 163.43999999999986 156.27999999999994 163.08999999999986 156.17999999999995 162.76999999999984 C 156.07999999999996 162.47999999999985 155.99999999999994 162.21999999999983 155.98999999999995 162.00999999999985 C 155.93999999999994 160.94999999999985 156.40999999999994 159.88999999999984 156.91999999999996 158.72999999999985 C 157.58999999999995 157.22999999999985 157.11999999999995 156.10999999999984 156.77999999999997 155.28999999999985 C 156.62999999999997 154.91999999999985 156.49999999999997 154.60999999999984 156.44999999999996 154.25999999999985 C 156.37999999999997 153.79999999999984 156.58999999999995 153.48999999999984 157.14999999999995 152.77999999999986 C 157.46999999999994 152.36999999999986 157.83999999999995 151.90999999999985 158.10999999999996 151.33999999999986 C 159.09999999999997 149.20999999999987 158.32999999999996 146.55999999999986 157.05999999999995 145.02999999999986 C 156.62999999999994 144.51999999999987 156.14999999999995 144.14999999999986 155.71999999999994 143.82999999999987 C 155.08999999999995 143.34999999999988 154.72999999999993 143.05999999999986 154.57999999999996 142.56999999999988 C 154.16999999999996 141.20999999999987 156.65999999999997 139.2499999999999 157.84999999999997 138.3099999999999 L 158.06999999999996 138.1399999999999 C 160.72999999999996 136.0299999999999 162.81999999999996 134.0499999999999 164.35999999999996 131.2199999999999 C 165.85999999999996 128.45999999999992 166.36999999999995 125.38999999999992 166.84999999999997 122.42999999999992 C 166.93999999999997 121.87999999999992 167.02999999999997 121.33999999999992 167.12999999999997 120.79999999999993 C 167.37999999999997 119.36999999999992 167.81999999999996 118.00999999999992 168.41999999999996 116.72999999999993 C 168.52999999999997 116.79999999999993 168.62999999999997 116.85999999999993 168.72999999999996 116.91999999999993 C 168.91999999999996 117.02999999999993 169.09999999999997 117.13999999999993 169.25999999999996 117.24999999999993 C 171.23999999999995 118.65999999999993 172.61999999999998 119.84999999999992 173.71999999999997 121.08999999999993 C 176.67999999999998 124.42999999999994 178.98999999999998 127.44999999999993 180.60999999999996 131.32999999999993 C 182.20999999999995 135.15999999999994 182.65999999999997 139.2199999999999 182.77999999999994 142.89999999999992 C 182.42999999999995 143.00999999999993 182.08999999999995 143.1599999999999 181.76999999999995 143.3499999999999 C 180.69999999999996 143.99999999999991 179.94999999999996 145.0199999999999 179.64999999999995 146.2399999999999 C 179.02999999999994 148.7499999999999 180.56999999999994 151.2799999999999 183.07999999999996 151.8999999999999 C 183.44999999999996 151.9899999999999 183.82999999999996 152.03999999999988 184.19999999999996 152.03999999999988 C 186.29999999999995 152.03999999999988 188.21999999999997 150.60999999999987 188.73999999999995 148.47999999999988 C 189.03999999999996 147.26999999999987 188.84999999999997 146.00999999999988 188.19999999999996 144.93999999999988 C 187.56999999999996 143.8999999999999 186.58999999999995 143.15999999999988 185.41999999999996 142.84999999999988 C 185.32999999999996 139.78999999999988 185.00999999999996 136.46999999999989 184.04999999999995 133.16999999999987 C 184.45999999999995 131.96999999999989 184.92999999999995 130.64999999999986 185.52999999999994 129.50999999999988 C 186.82999999999996 127.01999999999988 188.53999999999994 124.69999999999987 190.60999999999996 122.59999999999988 C 190.92999999999995 122.27999999999989 191.27999999999994 121.92999999999988 191.66999999999996 121.55999999999987 C 192.27999999999997 122.21999999999987 193.07999999999996 122.68999999999987 193.96999999999997 122.90999999999987 C 194.33999999999997 122.99999999999987 194.71999999999997 123.04999999999987 195.09999999999997 123.04999999999987 C 195.93999999999997 123.04999999999987 196.76999999999995 122.81999999999987 197.50999999999996 122.36999999999986 C 198.57999999999996 121.71999999999986 199.32999999999996 120.69999999999986 199.62999999999997 119.47999999999986 C 200.24999999999997 116.96999999999986 198.70999999999998 114.43999999999986 196.19999999999996 113.81999999999987 C 193.68999999999997 113.19999999999986 191.15999999999997 114.73999999999987 190.53999999999996 117.24999999999987 C 190.38999999999996 117.85999999999987 190.35999999999996 118.47999999999988 190.45999999999995 119.08999999999988 C 189.80999999999995 119.67999999999988 189.22999999999996 120.25999999999988 188.73999999999995 120.74999999999987 C 186.48999999999995 123.02999999999987 184.61999999999995 125.56999999999988 183.19999999999996 128.28999999999988 C 183.00999999999996 128.65999999999988 182.82999999999996 129.04999999999987 182.65999999999997 129.43999999999988 C 180.80999999999997 125.40999999999988 178.24999999999997 122.20999999999988 175.71999999999997 119.34999999999988 C 174.47999999999996 117.94999999999987 172.96999999999997 116.64999999999988 170.81999999999996 115.10999999999989 C 170.59999999999997 114.94999999999989 170.35999999999996 114.80999999999989 170.12999999999997 114.66999999999989 C 170.00999999999996 114.5999999999999 169.86999999999998 114.50999999999989 169.74999999999997 114.4299999999999 C 172.96999999999997 109.6299999999999 178.61999999999998 106.47999999999989 184.96999999999997 106.3799999999999 C 192.25999999999996 106.2699999999999 203.92999999999998 111.25999999999989 206.23999999999998 119.1599999999999 C 205.95 119.2699999999999 205.65999999999997 119.39999999999989 205.39 119.5699999999999 C 204.32 120.2199999999999 203.57 121.2399999999999 203.26999999999998 122.44999999999989 C 202.64999999999998 124.9599999999999 204.18999999999997 127.4899999999999 206.7 128.1099999999999 C 207.07 128.1999999999999 207.45 128.2499999999999 207.82999999999998 128.2499999999999 C 208.67 128.2499999999999 209.49999999999997 128.0199999999999 210.23999999999998 127.56999999999988 C 211.30999999999997 126.91999999999987 212.05999999999997 125.89999999999988 212.35999999999999 124.67999999999988 C 212.66 123.46999999999989 212.47 122.20999999999988 211.82 121.13999999999987 C 211.17 120.06999999999988 210.15 119.31999999999988 208.94 119.01999999999987 C 206.67 109.56999999999987 193.74 103.72999999999988 185.23 103.72999999999988 C 185.13 103.72999999999988 185.03 103.72999999999988 184.92999999999998 103.72999999999988 C 174.80999999999997 103.89999999999988 166.24999999999997 110.87999999999988 164.57999999999998 120.32999999999987 C 164.48 120.87999999999987 164.39 121.43999999999987 164.29999999999998 121.99999999999987 C 163.85 124.74999999999987 163.38 127.58999999999988 162.08999999999997 129.95999999999987 C 160.75999999999996 132.39999999999986 158.95999999999998 134.10999999999987 156.47999999999996 136.07999999999987 L 156.26999999999995 136.24999999999986 C 154.48999999999995 137.64999999999986 151.17999999999995 140.25999999999985 152.09999999999997 143.32999999999987 C 152.49999999999997 144.66999999999987 153.42999999999998 145.36999999999986 154.16999999999996 145.92999999999986 C 154.51999999999995 146.18999999999986 154.83999999999995 146.43999999999986 155.07999999999996 146.71999999999986 C 155.89999999999995 147.69999999999985 156.20999999999995 149.26999999999987 155.75999999999996 150.21999999999986 C 155.61999999999998 150.50999999999985 155.37999999999997 150.81999999999985 155.12999999999997 151.13999999999984 C 154.50999999999996 151.92999999999984 153.64999999999998 153.00999999999985 153.88999999999996 154.63999999999984 C 153.98999999999995 155.31999999999985 154.21999999999997 155.85999999999984 154.39999999999995 156.29999999999984 C 154.68999999999994 156.98999999999984 154.75999999999996 157.20999999999984 154.54999999999995 157.68999999999983 C 153.97999999999996 158.97999999999982 153.32999999999996 160.44999999999982 153.40999999999997 162.12999999999982 C 153.43999999999997 162.70999999999984 153.59999999999997 163.20999999999984 153.73999999999998 163.59999999999982 C 153.82 163.83999999999983 153.89 164.0499999999998 153.90999999999997 164.21999999999983 C 153.94999999999996 164.47999999999982 153.87999999999997 164.84999999999982 153.80999999999997 165.23999999999984 C 153.77999999999997 165.42999999999984 153.73999999999998 165.60999999999984 153.71999999999997 165.79999999999984 C 153.45999999999998 167.61999999999983 152.85999999999996 171.88999999999984 155.93999999999997 174.35999999999984 C 157.80999999999997 175.85999999999984 160.33999999999997 176.68999999999986 163.68999999999997 176.90999999999985 C 164.17999999999998 176.93999999999986 164.65999999999997 176.96999999999986 165.13999999999996 176.99999999999986 C 167.26999999999995 177.11999999999986 169.27999999999994 177.23999999999987 171.28999999999996 177.71999999999986 C 173.43999999999997 178.22999999999985 175.40999999999997 180.40999999999985 176.42999999999995 182.10999999999984 C 179.73999999999995 187.60999999999984 177.80999999999995 191.32999999999984 175.14999999999995 196.47999999999985 C 174.95999999999995 196.83999999999986 174.76999999999995 197.20999999999984 174.57999999999996 197.58999999999986 C 152.53999999999996 191.68999999999986 136.26999999999995 171.54999999999987 136.26999999999995 147.67999999999986 C 136.26999999999995 119.18999999999987 159.44999999999996 96.00999999999986 187.93999999999994 96.00999999999986 C 216.42999999999992 96.00999999999986 239.60999999999996 119.18999999999986 239.60999999999996 147.67999999999986 C 239.60999999999996 160.92999999999986 234.59999999999997 173.02999999999986 226.36999999999995 182.17999999999986 C 226.69999999999996 180.45999999999987 226.86999999999995 178.86999999999986 226.87999999999994 177.34999999999985 C 226.87999999999994 175.41999999999985 226.75999999999993 172.74999999999986 226.18999999999994 170.07999999999984 Z M 229.71 141 C 229.84 140.47 230.17000000000002 140.02 230.64000000000001 139.74 C 230.96 139.54000000000002 231.33 139.44 231.69000000000003 139.44 C 231.85000000000002 139.44 232.02000000000004 139.46 232.18000000000004 139.5 C 233.27000000000004 139.77 233.95000000000005 140.88 233.68000000000004 141.97 C 233.41000000000003 143.06 232.30000000000004 143.73 231.21000000000004 143.47 C 230.68000000000004 143.34 230.23000000000005 143.01 229.95000000000005 142.54 C 229.67000000000004 142.07 229.58000000000004 141.51999999999998 229.71000000000004 140.98999999999998 Z M 219.75 129.16 C 219.98 128.23 220.82 127.6 221.74 127.6 C 221.9 127.6 222.06 127.61999999999999 222.23000000000002 127.66 C 222.76000000000002 127.78999999999999 223.21 128.12 223.49 128.59 C 223.77 129.06 223.86 129.61 223.73000000000002 130.14000000000001 C 223.60000000000002 130.67000000000002 223.27 131.12 222.8 131.4 C 222.33 131.68 221.78 131.77 221.25 131.64000000000001 C 220.16 131.37 219.48 130.26000000000002 219.75 129.17000000000002 Z M 199.28 137.6 C 198.75 137.47 198.3 137.14 198.02 136.67 C 197.74 136.2 197.65 135.64999999999998 197.78 135.11999999999998 C 197.91 134.58999999999997 198.24 134.14 198.71 133.85999999999999 C 199.03 133.66 199.4 133.55999999999997 199.76000000000002 133.55999999999997 C 199.92000000000002 133.55999999999997 200.09000000000003 133.57999999999998 200.25000000000003 133.61999999999998 C 201.34000000000003 133.89 202.02000000000004 134.99999999999997 201.75000000000003 136.08999999999997 C 201.48000000000002 137.17999999999998 200.37000000000003 137.85999999999999 199.28000000000003 137.58999999999997 Z M 191.73 181.74 C 190.64 181.47 189.95999999999998 180.36 190.23 179.27 C 190.35999999999999 178.74 190.69 178.29000000000002 191.16 178.01000000000002 C 191.48 177.81000000000003 191.85 177.71 192.21 177.71 C 192.37 177.71 192.54000000000002 177.73000000000002 192.70000000000002 177.77 C 193.79000000000002 178.04000000000002 194.47000000000003 179.15 194.20000000000002 180.24 C 194.17000000000002 180.36 194.13000000000002 180.48000000000002 194.08 180.59 C 193.68 181.49 192.69000000000003 181.97 191.73000000000002 181.74 Z M 201.56 157.16 C 200.47 156.89 199.79 155.78 200.06 154.69 C 200.19 154.16 200.52 153.71 200.99 153.43 C 201.31 153.23000000000002 201.68 153.13 202.04000000000002 153.13 C 202.20000000000002 153.13 202.37000000000003 153.15 202.53000000000003 153.19 C 203.62000000000003 153.46 204.30000000000004 154.57 204.03000000000003 155.66 C 203.76000000000002 156.75 202.65000000000003 157.43 201.56000000000003 157.16 Z M 185.92 146.22 C 186.2 146.69 186.29 147.24 186.16 147.77 C 185.89 148.86 184.78 149.54000000000002 183.69 149.27 C 183.16 149.14000000000001 182.71 148.81 182.43 148.34 C 182.15 147.87 182.06 147.32 182.19 146.79 C 182.32 146.26 182.65 145.81 183.12 145.53 C 183.44 145.33 183.81 145.23 184.17000000000002 145.23 C 184.33 145.23 184.50000000000003 145.25 184.66000000000003 145.29 C 185.19000000000003 145.42 185.64000000000001 145.75 185.92000000000002 146.22 Z M 193.07 117.79 C 193.29999999999998 116.86 194.14 116.23 195.06 116.23 C 195.22 116.23 195.38 116.25 195.55 116.29 C 196.08 116.42 196.53 116.75 196.81 117.22000000000001 C 197.09 117.69000000000001 197.18 118.24000000000001 197.05 118.77000000000001 C 196.92000000000002 119.30000000000001 196.59 119.75000000000001 196.12 120.03000000000002 C 195.65 120.31000000000002 195.1 120.40000000000002 194.57 120.27000000000001 C 194.04 120.14000000000001 193.59 119.81000000000002 193.31 119.34 C 193.03 118.87 192.94 118.32000000000001 193.07 117.79 Z M 209.51 122.42 C 209.79 122.89 209.88 123.44 209.75 123.97 L 209.75 123.97 C 209.62 124.5 209.29 124.95 208.82 125.23 C 208.35 125.51 207.79999999999998 125.60000000000001 207.26999999999998 125.47 C 206.17999999999998 125.2 205.49999999999997 124.09 205.76999999999998 123 C 205.89999999999998 122.47 206.23 122.02 206.7 121.74 C 207.01999999999998 121.53999999999999 207.39 121.44 207.75 121.44 C 207.91 121.44 208.08 121.46 208.24 121.5 C 208.77 121.63 209.22 121.96 209.5 122.43 Z" stroke-linecap="round" />
</g>
</g>
</g>
<g transform="matrix(1.9211538461538462 0 0 1.9211538461538462 809.9513198361865 478.046282966909)" id="text-logo"  >
<g style=""  paint-order="stroke"   >
		<g transform="matrix(1 0 0 1 0 0)" id="text-logo-path-0"  >
<path style="stroke: rgb(98,39,116); stroke-width: 2.133333333333333; stroke-dasharray: none; stroke-linecap: butt; stroke-dashoffset: 0; stroke-linejoin: miter; stroke-miterlimit: 4; fill: rgb(0,0,0); fill-rule: nonzero; opacity: 1;"  paint-order="stroke"  transform=" translate(-202.12, 27.880000000000003)" d="M 29.36 0 L 3.52 0 Q 3.2 0 3.2 -0.4 L 3.2 -0.4 L 3.28 -55.36 Q 3.28 -55.68 3.6 -55.68 L 3.6 -55.68 L 29.28 -55.68 Q 29.6 -55.68 29.6 -55.28 L 29.6 -55.28 L 29.6 -46.32 Q 29.6 -46 29.28 -46 L 29.28 -46 L 12.88 -46 L 12.88 -33.52 L 29.28 -33.52 Q 29.6 -33.52 29.6 -33.2 L 29.6 -33.2 L 29.68 -24.16 Q 29.68 -23.84 29.36 -23.84 L 29.36 -23.84 L 12.88 -23.84 L 12.88 -9.84 L 29.36 -9.84 Q 29.68 -9.84 29.68 -9.44 L 29.68 -9.44 L 29.68 -0.32 Q 29.68 0 29.36 0 L 29.36 0 Z M 79.52 0 L 53.68 0 Q 53.36 0 53.36 -0.4 L 53.36 -0.4 L 53.44 -55.28 Q 53.44 -55.68 53.84 -55.68 L 53.84 -55.68 L 62.72 -55.68 Q 63.12 -55.68 63.12 -55.28 L 63.12 -55.28 L 63.04 -9.84 L 79.52 -9.84 Q 79.92 -9.84 79.92 -9.44 L 79.92 -9.44 L 79.92 -0.4 Q 79.92 0 79.52 0 L 79.52 0 Z M 111.12 0 L 102.08 0 Q 101.68 0 101.68 -0.4 L 101.68 -0.4 L 101.76 -55.36 Q 101.76 -55.68 102.08 -55.68 L 102.08 -55.68 L 111.04 -55.68 Q 111.36 -55.68 111.36 -55.36 L 111.36 -55.36 L 111.44 -0.4 Q 111.44 0 111.12 0 L 111.12 0 Z M 149.84 0.8 L 149.84 0.8 Q 145.52 0.8 141.96 -1.4 Q 138.4 -3.6 136.24 -7.24 Q 134.08 -10.88 134.08 -15.28 L 134.08 -15.28 L 134.16 -40.64 Q 134.16 -45.04 136.28 -48.64 Q 138.4 -52.24 142 -54.4 Q 145.6 -56.56 149.84 -56.56 L 149.84 -56.56 Q 154.16 -56.56 157.68 -54.4 Q 161.2 -52.24 163.32 -48.64 Q 165.44 -45.04 165.44 -40.64 L 165.44 -40.64 L 165.52 -15.28 Q 165.52 -10.88 163.4 -7.24 Q 161.28 -3.6 157.72 -1.4 Q 154.16 0.8 149.84 0.8 Z M 149.84 -8.88 L 149.84 -8.88 Q 152.24 -8.88 154.04 -10.84 Q 155.84 -12.8 155.84 -15.28 L 155.84 -15.28 L 155.76 -40.64 Q 155.76 -43.28 154.08 -45.12 Q 152.4 -46.96 149.84 -46.96 L 149.84 -46.96 Q 147.36 -46.96 145.6 -45.16 Q 143.84 -43.36 143.84 -40.64 L 143.84 -40.64 L 143.84 -15.28 Q 143.84 -12.64 145.6 -10.76 Q 147.36 -8.88 149.84 -8.88 Z M 196.88 0 L 188.88 0 Q 188.24 0 188.24 -0.56 L 188.24 -0.56 L 188.16 -55.04 Q 188.16 -55.68 188.8 -55.68 L 188.8 -55.68 L 196 -55.68 L 209.52 -24.16 L 209.12 -55.04 Q 209.12 -55.68 209.84 -55.68 L 209.84 -55.68 L 217.76 -55.68 Q 218.24 -55.68 218.24 -55.04 L 218.24 -55.04 L 218.32 -0.48 Q 218.32 0 217.92 0 L 217.92 0 L 210.88 0 L 197.04 -29.44 L 197.6 -0.64 Q 197.6 0 196.88 0 L 196.88 0 Z M 296.4 0 L 270.56 0 Q 270.24 0 270.24 -0.4 L 270.24 -0.4 L 270.32 -55.28 Q 270.32 -55.68 270.72 -55.68 L 270.72 -55.68 L 279.6 -55.68 Q 280 -55.68 280 -55.28 L 280 -55.28 L 279.92 -9.84 L 296.4 -9.84 Q 296.8 -9.84 296.8 -9.44 L 296.8 -9.44 L 296.8 -0.4 Q 296.8 0 296.4 0 L 296.4 0 Z M 315.84 -0.4 L 315.84 -0.4 L 325.76 -55.36 Q 325.84 -55.68 326.16 -55.68 L 326.16 -55.68 L 337.76 -55.68 Q 338.08 -55.68 338.16 -55.36 L 338.16 -55.36 L 347.68 -0.4 Q 347.76 0 347.36 0 L 347.36 0 L 338.48 0 Q 338.16 0 338.08 -0.4 L 338.08 -0.4 L 337.2 -6.24 L 326.32 -6.24 L 325.44 -0.4 Q 325.36 0 325.04 0 L 325.04 0 L 316.16 0 Q 315.84 0 315.84 -0.4 Z M 331.52 -37.28 L 327.92 -14.8 L 335.6 -14.8 L 332.32 -37.28 L 331.84 -40.24 L 331.52 -37.28 Z M 383.92 0 L 369.6 0 Q 369.28 0 369.28 -0.4 L 369.28 -0.4 L 369.44 -55.36 Q 369.44 -55.68 369.76 -55.68 L 369.76 -55.68 L 385.12 -55.68 Q 389.68 -55.68 393.28 -53.48 Q 396.88 -51.28 398.96 -47.68 Q 401.04 -44.08 401.04 -39.84 L 401.04 -39.84 Q 401.04 -36.4 399.48 -33.44 Q 397.92 -30.48 395.76 -28.64 L 395.76 -28.64 Q 398.08 -26.32 399.36 -23.28 Q 400.64 -20.24 400.64 -16.88 L 400.64 -16.88 Q 400.64 -12.24 398.4 -8.4 Q 396.16 -4.56 392.36 -2.28 Q 388.56 0 383.92 0 L 383.92 0 Z M 379.04 -46.16 L 379.04 -33.6 L 385.12 -33.6 Q 387.92 -33.6 389.64 -35.56 Q 391.36 -37.52 391.36 -39.84 L 391.36 -39.84 Q 391.36 -42.4 389.52 -44.28 Q 387.68 -46.16 385.12 -46.16 L 385.12 -46.16 L 379.04 -46.16 Z M 379.04 -23.92 L 378.96 -9.76 L 383.92 -9.76 Q 386.8 -9.76 388.88 -11.88 Q 390.96 -14 390.96 -16.88 L 390.96 -16.88 Q 390.96 -19.76 388.88 -21.84 Q 386.8 -23.92 383.92 -23.92 L 383.92 -23.92 L 379.04 -23.92 Z" stroke-linecap="round" />
</g>
</g>
</g>
<g transform="matrix(1.9211538461538462 0 0 1.9211538461538462 809.1205708878691 589.0615277316958)" id="tagline-7e62f813-0663-4b9d-bd96-3df1dc617582-logo"  >
<g style=""  paint-order="stroke"   >
		<g transform="matrix(1 0 0 1 0 0)" id="tagline-7e62f813-0663-4b9d-bd96-3df1dc617582-logo-path-0"  >
<filter id="SVGID_108742" y="-125.69300984866683%" height="351.38601969733367%" x="-24.766996781193765%" width="149.53399356238754%" >
	<feGaussianBlur in="SourceAlpha" stdDeviation="9.565217391304348"></feGaussianBlur>
	<feOffset dx="0" dy="0" result="oBlur" ></feOffset>
	<feFlood flood-color="rgb(228,156,180)" flood-opacity="1"/>
	<feComposite in2="oBlur" operator="in" />
	<feMerge>
		<feMergeNode></feMergeNode>
		<feMergeNode in="SourceGraphic"></feMergeNode>
	</feMerge>
</filter>
<path style="stroke: rgb(255,255,255); stroke-width: 0; stroke-dasharray: none; stroke-linecap: butt; stroke-dashoffset: 0; stroke-linejoin: miter; stroke-miterlimit: 4; fill: rgb(0,0,0); fill-rule: nonzero; opacity: 1;filter: url(#SVGID_108742);"  paint-order="stroke"  transform=" translate(-202.01500000000001, 4.74)" d="M 7.52 -7.94 L 6.11 -7.7 C 5.35 -7.7 4.83 -7.8 4.55 -7.99 C 4.28 -8.17 4.14 -8.51 4.14 -8.98 C 4.14 -11.14 4.72 -11.73 6.03 -11.73 C 6.7 -11.72 7.3 -11.7 7.85 -11.66 C 8.41 -11.6 8.78 -11.57 9 -11.57 C 9.4 -11.57 9.72 -11.82 9.72 -12.26 C 9.72 -12.96 9.21 -13.31 8.19 -13.31 L 6.09 -13.31 C 3.07 -13.31 1.56 -13.04 1.56 -12.49 C 1.56 -12.27 1.63 -12.03 1.72 -11.77 C 1.82 -11.5 1.88 -11.29 1.89 -11.13 C 1.93 -10.95 1.96 -10.43 1.96 -9.59 L 1.8 -5.39 C 1.79 -3.63 1.72 -2.48 1.58 -1.96 L 1.36 -1.17 L 1.36 -0.9 C 1.36 -0.57 1.61 -0.34 2.12 -0.21 C 2.6 -0.08 3.6 0 5.12 0 L 5.48 0 C 7.36 0 8.53 -0.05 9 -0.15 C 9.68 -0.29 10.01 -0.62 10.01 -1.17 L 10.01 -1.39 C 10 -1.74 9.78 -1.91 9.32 -1.91 C 9.18 -1.91 8.78 -1.85 8.12 -1.72 C 7.41 -1.58 6.6 -1.51 5.67 -1.51 C 4.98 -1.51 4.53 -1.73 4.31 -2.15 C 4.08 -2.57 3.96 -3.2 3.96 -4.07 C 3.96 -5.77 4.29 -6.03 5.88 -6.03 C 6.1 -6.03 6.4 -6 6.82 -5.92 C 7.24 -5.87 7.52 -5.81 7.75 -5.81 C 8.19 -5.81 8.54 -6.28 8.54 -7.01 C 8.53 -7.63 8.2 -7.94 7.52 -7.94 Z M 12.49 -13.04 C 12.49 -12.97 12.55 -12.74 12.67 -12.34 C 12.8 -11.97 12.87 -11.43 12.87 -10.71 L 12.87 -8.93 L 12.85 -8.58 L 12.85 -6.78 L 12.83 -6.6 L 12.83 -5.52 L 12.8 -5.35 L 12.76 -3.08 C 12.72 -2.31 12.72 -1.82 12.67 -1.56 C 12.61 -1.27 12.58 -1.11 12.58 -1.05 C 12.58 -0.35 13.03 0 13.92 0 L 14.25 0 C 15.24 0 15.77 -0.4 15.77 -0.82 C 15.77 -1.05 15.67 -1.32 15.48 -1.61 C 15.3 -1.9 15.15 -2.3 15.03 -2.83 C 14.91 -3.34 14.85 -3.83 14.85 -4.31 C 14.85 -4.81 14.83 -5.09 14.82 -5.17 L 14.8 -6.38 L 14.8 -7.81 L 14.82 -7.98 L 14.82 -8.88 L 14.87 -9.97 L 14.87 -13.07 C 14.81 -13.56 14.48 -13.79 13.88 -13.79 L 13.73 -13.79 C 12.9 -13.79 12.49 -13.55 12.49 -13.04 Z M 19.99 -8.46 C 19.85 -8.97 19.51 -9.22 18.98 -9.22 L 18.73 -9.22 C 18.09 -9.22 17.77 -9.04 17.77 -8.69 L 17.77 -8.5 C 17.77 -8.37 17.8 -8.22 17.88 -8.06 C 17.95 -7.83 17.99 -7.72 17.99 -7.72 C 18.08 -7.44 18.12 -6.69 18.12 -5.48 C 18.12 -3.43 18.29 -2.07 18.63 -1.43 C 19.07 -0.58 19.91 -0.09 20.94 -0.09 L 21.21 -0.09 C 21.67 -0.09 22.17 -0.21 22.76 -0.44 C 23.38 -0.67 23.72 -0.77 23.77 -0.77 C 23.87 -0.76 24.06 -0.69 24.37 -0.55 C 24.73 -0.39 25.07 -0.31 25.41 -0.31 C 26.1 -0.31 26.5 -0.63 26.5 -0.97 L 26.5 -1.17 L 26.37 -1.7 C 26.18 -2.47 26.08 -3.77 26.08 -5.61 C 26.08 -7.41 26.04 -8.41 25.95 -8.6 C 25.85 -8.92 25.59 -9.07 25.18 -9.07 C 24.4 -9.07 23.96 -8.84 23.96 -8.25 C 23.96 -8.2 23.99 -8.01 24.04 -7.66 C 24.08 -7.3 24.11 -6.95 24.11 -6.62 L 24.11 -6.11 L 24.08 -5.61 C 24.08 -4.05 23.9 -2.95 23.53 -2.31 C 23.15 -1.67 22.55 -1.34 21.71 -1.34 C 20.35 -1.34 20.1 -2.16 20.1 -5.52 C 20.1 -7.23 20.08 -8.17 19.99 -8.46 Z M 32.46 0.11 L 32.66 0.11 C 34.16 0.11 35.93 -0.78 35.93 -1.56 C 35.93 -1.84 35.8 -1.98 35.56 -1.98 C 35.43 -1.99 35.07 -1.89 34.48 -1.7 C 33.87 -1.51 33.35 -1.43 32.95 -1.43 C 31.44 -1.43 30.41 -2.54 30.41 -4.64 C 30.41 -6.76 31.29 -7.94 32.53 -7.94 C 32.94 -7.95 33.39 -7.84 33.87 -7.64 C 34.03 -7.48 34.74 -7.11 34.97 -7.11 C 35.47 -7.1 35.72 -7.35 35.72 -7.83 C 35.72 -8.29 35.47 -8.67 34.98 -8.98 C 34.47 -9.29 33.83 -9.44 33.03 -9.44 C 31.56 -9.44 30.43 -9 29.63 -8.12 C 28.82 -7.24 28.41 -6.06 28.41 -4.58 L 28.41 -4.36 C 28.41 -1.78 29.84 0.11 32.46 0.11 Z M 38.98 0 L 39.47 0 C 40.34 0 41 -0.35 41 -0.88 C 41 -1.11 40.95 -1.34 40.83 -1.58 C 40.52 -2.12 40.37 -2.76 40.37 -3.5 L 40.3 -4.84 L 40.3 -6.99 C 40.3 -9 40.34 -9.2 39.42 -9.2 L 39.09 -9.2 C 38.33 -9.2 37.95 -9.01 37.95 -8.65 L 37.95 -8.44 C 37.95 -8.43 38.02 -8.25 38.15 -7.92 L 38.23 -7.72 C 38.31 -7.52 38.36 -7.23 38.39 -6.86 L 38.39 -3.15 L 38.35 -2.42 C 38.34 -2.13 38.29 -1.83 38.19 -1.51 C 38.07 -1.14 38.02 -0.88 38.02 -0.75 C 38.02 -0.37 38.46 0 38.98 0 Z M 39.64 -13.27 L 39.32 -13.27 C 38.96 -13.27 38.7 -13.17 38.54 -12.98 C 38.38 -12.78 38.3 -12.61 38.3 -12.47 L 38.25 -12.17 L 38.25 -12.12 L 38.3 -11.82 C 38.3 -11.62 38.37 -11.45 38.53 -11.3 C 38.69 -11.14 38.82 -11.06 38.94 -11.06 C 39.07 -11.06 39.17 -11.05 39.22 -11.04 L 39.53 -11.04 L 39.7 -11.06 C 40.26 -11.06 40.63 -11.55 40.63 -12.07 L 40.63 -12.3 C 40.63 -12.94 40.17 -13.27 39.64 -13.27 Z M 47.49 -9.35 C 44.68 -9.35 43.11 -7.09 43.11 -4.45 L 43.11 -3.96 C 43.11 -2.77 43.4 -1.82 43.99 -1.1 C 44.58 -0.37 45.42 0 46.5 0 L 46.72 0 C 47.14 0 47.58 -0.12 48.1 -0.29 C 48.63 -0.46 48.95 -0.55 49.07 -0.55 C 49.21 -0.55 49.42 -0.53 49.76 -0.44 C 50.07 -0.35 50.37 -0.31 50.68 -0.31 C 51.29 -0.31 51.61 -0.64 51.61 -0.9 C 51.59 -1.08 51.54 -1.32 51.44 -1.63 C 51.36 -1.98 51.29 -2.32 51.29 -2.71 L 51.29 -3.46 L 51.27 -3.65 L 51.27 -4.09 L 51.25 -4.95 L 51.25 -6.53 L 51.27 -7.68 C 51.27 -10.91 51.24 -12.69 51.19 -12.98 C 51.11 -13.44 50.83 -13.66 50.33 -13.66 L 50.16 -13.66 C 49.33 -13.66 48.9 -13.21 48.9 -12.65 C 48.9 -12.54 48.93 -12.34 48.98 -12.1 C 49.04 -11.84 49.07 -11.55 49.07 -11.29 C 49.07 -9.59 48.88 -9.35 47.49 -9.35 Z M 49.13 -6.34 L 49.13 -6.13 L 49.16 -5.85 L 49.16 -4.77 L 49.13 -4.18 C 49.13 -2.75 48.77 -1.21 47.03 -1.21 L 46.94 -1.21 C 46.37 -1.21 45.89 -1.48 45.5 -2.01 C 45.11 -2.54 44.91 -3.29 44.91 -4.26 L 44.91 -4.68 C 44.91 -5.79 45.13 -6.65 45.56 -7.26 C 45.98 -7.87 46.52 -8.19 47.18 -8.19 L 47.27 -8.21 L 47.35 -8.21 C 48.61 -8.21 49.13 -7.46 49.13 -6.34 Z M 61.78 -0.73 C 61.78 -0.93 61.7 -1.17 61.54 -1.43 C 61.36 -1.7 61.25 -1.98 61.21 -2.27 C 61.17 -2.54 61.14 -3.23 61.14 -4.38 C 61.14 -6.4 60.96 -7.68 60.6 -8.23 C 60.09 -9.01 59.1 -9.53 57.87 -9.53 L 57.38 -9.53 C 55.73 -9.53 54.22 -8.75 54.22 -8.06 C 54.22 -7.5 54.42 -7.22 54.83 -7.22 C 55.05 -7.22 55.47 -7.37 56.08 -7.68 C 56.67 -7.97 57.19 -8.12 57.66 -8.12 C 58.58 -8.12 59.15 -7.52 59.15 -6.67 C 59.15 -6.26 59 -5.97 58.68 -5.81 C 58.65 -5.8 57.98 -5.66 56.65 -5.39 C 54.63 -5.02 53.63 -4.03 53.63 -2.42 C 53.63 -0.86 54.8 0.11 56.15 0.11 L 56.38 0.11 C 56.83 0.12 57.34 0.01 57.91 -0.21 C 58.48 -0.44 58.82 -0.55 58.94 -0.55 C 59.06 -0.55 59.32 -0.47 59.69 -0.33 C 60.11 -0.15 60.37 -0.09 60.51 -0.09 C 61.36 -0.1 61.78 -0.31 61.78 -0.73 Z M 57.3 -1.17 L 57.01 -1.17 C 56.56 -1.17 56.21 -1.31 55.97 -1.59 C 55.72 -1.86 55.6 -2.17 55.6 -2.5 L 55.6 -2.84 C 55.6 -3.3 55.78 -3.68 56.16 -4.01 C 56.54 -4.33 57.01 -4.49 57.6 -4.49 L 58.35 -4.55 L 58.64 -4.55 C 59.04 -4.55 59.23 -4.32 59.23 -3.85 L 59.23 -3.48 C 59.23 -1.98 58.5 -1.17 57.3 -1.17 Z M 67.24 -0.02 L 67.58 -0.02 C 67.96 -0.02 68.3 -0.12 68.61 -0.3 C 68.91 -0.48 69.06 -0.7 69.06 -0.95 C 69.06 -1.28 68.79 -1.48 68.27 -1.54 C 67.74 -1.61 67.35 -1.8 67.12 -2.12 C 66.89 -2.38 66.77 -3.21 66.77 -4.6 C 66.76 -5.96 66.89 -6.91 67.16 -7.43 C 67.32 -7.72 67.67 -7.96 68.18 -8.14 C 68.72 -8.35 68.99 -8.56 68.99 -8.8 C 69 -9.07 68.74 -9.28 68.22 -9.46 C 67.18 -9.8 67.11 -10.01 66.88 -10.96 C 66.76 -11.42 66.64 -11.73 66.55 -11.89 C 66.45 -12.04 66.27 -12.12 66 -12.12 C 65.47 -12.12 65.22 -11.75 64.93 -10.69 C 64.67 -9.65 64.72 -9.75 64.13 -9.35 C 63.84 -9.14 63.69 -8.96 63.69 -8.82 L 63.69 -8.69 C 63.69 -8.51 63.82 -8.28 64.07 -8.04 C 64.31 -7.79 64.47 -7.55 64.55 -7.33 C 64.71 -6.77 64.79 -5.77 64.79 -4.33 C 64.79 -2.87 64.97 -1.78 65.32 -1.08 C 65.68 -0.38 66.31 -0.02 67.24 -0.02 Z M 72.26 0 L 72.75 0 C 73.62 0 74.28 -0.35 74.28 -0.88 C 74.28 -1.11 74.23 -1.34 74.11 -1.58 C 73.8 -2.12 73.65 -2.76 73.65 -3.5 L 73.58 -4.84 L 73.58 -6.99 C 73.58 -9 73.62 -9.2 72.7 -9.2 L 72.37 -9.2 C 71.61 -9.2 71.23 -9.01 71.23 -8.65 L 71.23 -8.44 C 71.23 -8.43 71.3 -8.25 71.42 -7.92 L 71.51 -7.72 C 71.59 -7.52 71.64 -7.23 71.67 -6.86 L 71.67 -3.15 L 71.63 -2.42 C 71.62 -2.13 71.56 -1.83 71.47 -1.51 C 71.35 -1.14 71.3 -0.88 71.3 -0.75 C 71.3 -0.37 71.74 0 72.26 0 Z M 72.92 -13.27 L 72.6 -13.27 C 72.24 -13.27 71.98 -13.17 71.82 -12.98 C 71.66 -12.78 71.58 -12.61 71.58 -12.47 L 71.53 -12.17 L 71.53 -12.12 L 71.58 -11.82 C 71.58 -11.62 71.65 -11.45 71.81 -11.3 C 71.97 -11.14 72.1 -11.06 72.22 -11.06 C 72.35 -11.06 72.45 -11.05 72.5 -11.04 L 72.81 -11.04 L 72.98 -11.06 C 73.54 -11.06 73.91 -11.55 73.91 -12.07 L 73.91 -12.3 C 73.91 -12.94 73.44 -13.27 72.92 -13.27 Z M 77.6 -0.27 L 77.62 -0.27 C 78.39 -0.27 78.99 -0.64 78.99 -1.17 L 78.9 -2.88 C 78.9 -4.79 79.06 -6.07 79.38 -6.71 C 79.73 -7.48 80.42 -7.77 81.09 -7.77 C 81.8 -7.77 82.3 -7.42 82.58 -6.74 C 82.89 -5.84 83.1 -4.21 83.1 -1.72 L 83.08 -1.36 C 83.08 -0.67 83.4 -0.4 84.13 -0.4 C 84.98 -0.4 85.41 -0.68 85.41 -1.24 C 85.4 -1.38 85.33 -1.64 85.19 -2.02 C 84.9 -2.79 84.94 -3.52 84.88 -4.11 L 84.84 -5.15 C 84.77 -6.38 84.63 -7.19 84.49 -7.66 C 84.13 -8.53 83.36 -9.09 82.41 -9.09 L 82.16 -9.09 C 81.35 -9.09 80.6 -8.7 80.04 -8.44 C 79.76 -8.31 79.57 -8.25 79.47 -8.25 C 79.37 -8.25 79.12 -8.36 78.7 -8.58 C 78.29 -8.8 77.89 -8.91 77.49 -8.91 C 77.1 -8.92 76.89 -8.81 76.89 -8.58 L 76.98 -7.59 C 76.98 -7.43 76.99 -7.24 76.96 -6.91 L 76.96 -4.64 C 76.96 -3.15 76.98 -2.59 76.7 -1.89 C 76.58 -1.51 76.52 -1.21 76.52 -1.01 C 76.53 -0.52 76.88 -0.27 77.6 -0.27 Z M 90.92 4.31 C 92.17 4.31 93.18 3.97 93.96 3.31 C 94.74 2.64 95.12 1.64 95.12 0.31 L 95.01 -1.89 C 95.01 -2.57 95.08 -3.5 95.17 -4.79 C 95.25 -6.07 95.29 -6.77 95.29 -6.89 L 95.29 -7.37 C 95.29 -8.22 94.89 -8.67 94.33 -8.67 L 94.05 -8.67 C 93.75 -8.67 93.4 -8.73 92.9 -8.91 C 92.42 -9.09 91.95 -9.17 91.51 -9.17 C 88.93 -9.17 87.58 -7.32 87.58 -4.91 L 87.58 -4.64 C 87.58 -2.3 88.83 -0.13 91.43 -0.13 C 91.93 -0.13 92.31 -0.15 92.58 -0.19 L 93.04 -0.25 C 93.31 -0.25 93.45 -0.1 93.45 0.21 C 93.45 1.8 92.45 2.69 90.86 2.69 C 90.61 2.69 90.33 2.65 90 2.6 C 89.67 2.55 89.39 2.5 89.18 2.5 C 88.58 2.51 88.28 2.71 88.28 3.1 C 88.28 3.72 89.58 4.31 90.92 4.31 Z M 89.18 -4.31 L 89.18 -4.71 C 89.18 -5.67 89.41 -6.43 89.86 -7 C 90.3 -7.57 90.88 -7.85 91.58 -7.85 L 91.82 -7.85 C 92.67 -7.85 93.25 -7.24 93.25 -6.18 L 93.27 -5.83 L 93.27 -5.54 L 93.3 -5.44 L 93.3 -4.95 L 93.27 -4.47 C 93.27 -3.07 93.06 -1.39 91.3 -1.39 L 90.96 -1.39 C 89.85 -1.39 89.18 -2.51 89.18 -4.31 Z M 103.61 -0.95 C 103.61 -0.5 103.84 -0.25 104.32 -0.15 C 104.74 -0.05 105.91 0 107.81 0 L 108.06 0 L 108.29 0.02 L 110.2 0.02 C 110.99 0.02 111.53 -0.06 111.82 -0.23 C 112.11 -0.39 112.26 -0.71 112.26 -1.19 L 112.26 -1.41 C 112.25 -1.98 112.03 -2.27 111.61 -2.27 C 111.47 -2.27 111.22 -2.2 110.89 -2.07 C 110.24 -1.82 109.8 -1.56 108.47 -1.56 C 107.8 -1.56 107.3 -1.6 107 -1.68 C 106.7 -1.75 106.5 -1.96 106.38 -2.29 C 106.25 -2.6 106.19 -4.01 106.19 -6.53 C 106.19 -9.02 106.22 -10.43 106.29 -10.75 C 106.39 -11.09 106.48 -11.37 106.55 -11.59 C 106.63 -11.84 106.69 -12.03 106.69 -12.17 C 106.69 -12.9 105.99 -13.27 105.02 -13.27 L 104.8 -13.27 C 104.06 -13.27 103.54 -12.93 103.54 -12.43 C 103.54 -12.17 103.62 -11.88 103.76 -11.53 C 103.92 -11.18 103.97 -10.88 104.03 -10.62 C 104.06 -10.4 104.05 -9.55 104.05 -8.06 L 104.05 -5.02 L 104.03 -3.59 C 104.03 -2.76 104.03 -2.19 103.74 -1.43 C 103.65 -1.19 103.61 -1.03 103.61 -0.95 Z M 121.66 -0.73 C 121.66 -0.93 121.58 -1.17 121.42 -1.43 C 121.24 -1.7 121.13 -1.98 121.09 -2.27 C 121.04 -2.54 121.02 -3.23 121.02 -4.38 C 121.02 -6.4 120.84 -7.68 120.47 -8.23 C 119.97 -9.01 118.98 -9.53 117.75 -9.53 L 117.26 -9.53 C 115.61 -9.53 114.09 -8.75 114.09 -8.06 C 114.09 -7.5 114.3 -7.22 114.71 -7.22 C 114.93 -7.22 115.35 -7.37 115.96 -7.68 C 116.54 -7.97 117.07 -8.12 117.54 -8.12 C 118.45 -8.12 119.02 -7.52 119.02 -6.67 C 119.02 -6.26 118.87 -5.97 118.56 -5.81 C 118.53 -5.8 117.85 -5.66 116.53 -5.39 C 114.51 -5.02 113.5 -4.03 113.5 -2.42 C 113.5 -0.86 114.67 0.11 116.03 0.11 L 116.25 0.11 C 116.7 0.12 117.22 0.01 117.79 -0.21 C 118.36 -0.44 118.7 -0.55 118.82 -0.55 C 118.94 -0.55 119.2 -0.47 119.57 -0.33 C 119.99 -0.15 120.25 -0.09 120.39 -0.09 C 121.24 -0.1 121.66 -0.31 121.66 -0.73 Z M 117.18 -1.17 L 116.89 -1.17 C 116.43 -1.17 116.09 -1.31 115.84 -1.59 C 115.6 -1.86 115.48 -2.17 115.48 -2.5 L 115.48 -2.84 C 115.48 -3.3 115.66 -3.68 116.04 -4.01 C 116.41 -4.33 116.89 -4.49 117.48 -4.49 L 118.23 -4.55 L 118.52 -4.55 C 118.92 -4.55 119.11 -4.32 119.11 -3.85 L 119.11 -3.48 C 119.11 -1.98 118.38 -1.17 117.18 -1.17 Z M 124.91 -0.27 L 124.93 -0.27 C 125.69 -0.27 126.3 -0.64 126.3 -1.17 L 126.21 -2.88 C 126.21 -4.79 126.37 -6.07 126.69 -6.71 C 127.04 -7.48 127.72 -7.77 128.4 -7.77 C 129.11 -7.77 129.6 -7.42 129.88 -6.74 C 130.2 -5.84 130.41 -4.21 130.41 -1.72 L 130.39 -1.36 C 130.39 -0.67 130.71 -0.4 131.44 -0.4 C 132.29 -0.4 132.72 -0.68 132.72 -1.24 C 132.71 -1.38 132.63 -1.64 132.49 -2.02 C 132.2 -2.79 132.25 -3.52 132.19 -4.11 L 132.15 -5.15 C 132.08 -6.38 131.94 -7.19 131.8 -7.66 C 131.44 -8.53 130.67 -9.09 129.72 -9.09 L 129.46 -9.09 C 128.66 -9.09 127.91 -8.7 127.35 -8.44 C 127.07 -8.31 126.88 -8.25 126.78 -8.25 C 126.68 -8.25 126.42 -8.36 126.01 -8.58 C 125.6 -8.8 125.2 -8.91 124.8 -8.91 C 124.41 -8.92 124.2 -8.81 124.2 -8.58 L 124.29 -7.59 C 124.29 -7.43 124.3 -7.24 124.27 -6.91 L 124.27 -4.64 C 124.27 -3.15 124.29 -2.59 124.01 -1.89 C 123.89 -1.51 123.83 -1.21 123.83 -1.01 C 123.84 -0.52 124.19 -0.27 124.91 -0.27 Z M 138.23 4.31 C 139.48 4.31 140.49 3.97 141.27 3.31 C 142.04 2.64 142.43 1.64 142.43 0.31 L 142.32 -1.89 C 142.32 -2.57 142.39 -3.5 142.47 -4.79 C 142.56 -6.07 142.6 -6.77 142.6 -6.89 L 142.6 -7.37 C 142.6 -8.22 142.19 -8.67 141.64 -8.67 L 141.36 -8.67 C 141.06 -8.67 140.71 -8.73 140.21 -8.91 C 139.72 -9.09 139.26 -9.17 138.82 -9.17 C 136.24 -9.17 134.89 -7.32 134.89 -4.91 L 134.89 -4.64 C 134.89 -2.3 136.14 -0.13 138.74 -0.13 C 139.24 -0.13 139.62 -0.15 139.88 -0.19 L 140.35 -0.25 C 140.62 -0.25 140.75 -0.1 140.75 0.21 C 140.75 1.8 139.76 2.69 138.17 2.69 C 137.92 2.69 137.64 2.65 137.31 2.6 C 136.97 2.55 136.69 2.5 136.49 2.5 C 135.89 2.51 135.59 2.71 135.59 3.1 C 135.59 3.72 136.89 4.31 138.23 4.31 Z M 136.49 -4.31 L 136.49 -4.71 C 136.49 -5.67 136.72 -6.43 137.17 -7 C 137.61 -7.57 138.19 -7.85 138.89 -7.85 L 139.13 -7.85 C 139.98 -7.85 140.56 -7.24 140.56 -6.18 L 140.58 -5.83 L 140.58 -5.54 L 140.6 -5.44 L 140.6 -4.95 L 140.58 -4.47 C 140.58 -3.07 140.37 -1.39 138.61 -1.39 L 138.27 -1.39 C 137.16 -1.39 136.49 -2.51 136.49 -4.31 Z M 147.47 -8.46 C 147.33 -8.97 146.99 -9.22 146.46 -9.22 L 146.21 -9.22 C 145.57 -9.22 145.25 -9.04 145.25 -8.69 L 145.25 -8.5 C 145.25 -8.37 145.28 -8.22 145.35 -8.06 C 145.43 -7.83 145.47 -7.72 145.47 -7.72 C 145.56 -7.44 145.6 -6.69 145.6 -5.48 C 145.6 -3.43 145.77 -2.07 146.1 -1.43 C 146.54 -0.58 147.38 -0.09 148.41 -0.09 L 148.68 -0.09 C 149.14 -0.09 149.65 -0.21 150.24 -0.44 C 150.85 -0.67 151.2 -0.77 151.25 -0.77 C 151.35 -0.76 151.54 -0.69 151.85 -0.55 C 152.21 -0.39 152.55 -0.31 152.88 -0.31 C 153.58 -0.31 153.98 -0.63 153.98 -0.97 L 153.98 -1.17 L 153.85 -1.7 C 153.66 -2.47 153.56 -3.77 153.56 -5.61 C 153.56 -7.41 153.52 -8.41 153.43 -8.6 C 153.32 -8.92 153.07 -9.07 152.66 -9.07 C 151.87 -9.07 151.43 -8.84 151.43 -8.25 C 151.43 -8.2 151.46 -8.01 151.52 -7.66 C 151.56 -7.3 151.58 -6.95 151.58 -6.62 L 151.58 -6.11 L 151.56 -5.61 C 151.56 -4.05 151.38 -2.95 151 -2.31 C 150.63 -1.67 150.03 -1.34 149.19 -1.34 C 147.82 -1.34 147.58 -2.16 147.58 -5.52 C 147.58 -7.23 147.55 -8.17 147.47 -8.46 Z M 163.98 -0.73 C 163.98 -0.93 163.9 -1.17 163.74 -1.43 C 163.56 -1.7 163.45 -1.98 163.41 -2.27 C 163.37 -2.54 163.35 -3.23 163.35 -4.38 C 163.35 -6.4 163.16 -7.68 162.8 -8.23 C 162.29 -9.01 161.3 -9.53 160.07 -9.53 L 159.59 -9.53 C 157.93 -9.53 156.42 -8.75 156.42 -8.06 C 156.42 -7.5 156.62 -7.22 157.03 -7.22 C 157.25 -7.22 157.67 -7.37 158.29 -7.68 C 158.87 -7.97 159.39 -8.12 159.87 -8.12 C 160.78 -8.12 161.35 -7.52 161.35 -6.67 C 161.35 -6.26 161.2 -5.97 160.89 -5.81 C 160.85 -5.8 160.18 -5.66 158.86 -5.39 C 156.84 -5.02 155.83 -4.03 155.83 -2.42 C 155.83 -0.86 157 0.11 158.35 0.11 L 158.58 0.11 C 159.03 0.12 159.54 0.01 160.11 -0.21 C 160.68 -0.44 161.03 -0.55 161.14 -0.55 C 161.26 -0.55 161.52 -0.47 161.9 -0.33 C 162.31 -0.15 162.57 -0.09 162.71 -0.09 C 163.56 -0.1 163.98 -0.31 163.98 -0.73 Z M 159.5 -1.17 L 159.21 -1.17 C 158.76 -1.17 158.42 -1.31 158.17 -1.59 C 157.92 -1.86 157.8 -2.17 157.8 -2.5 L 157.8 -2.84 C 157.8 -3.3 157.99 -3.68 158.36 -4.01 C 158.74 -4.33 159.21 -4.49 159.8 -4.49 L 160.55 -4.55 L 160.84 -4.55 C 161.24 -4.55 161.43 -4.32 161.43 -3.85 L 161.43 -3.48 C 161.43 -1.98 160.7 -1.17 159.5 -1.17 Z M 169.59 4.31 C 170.83 4.31 171.84 3.97 172.63 3.31 C 173.4 2.64 173.79 1.64 173.79 0.31 L 173.68 -1.89 C 173.68 -2.57 173.74 -3.5 173.83 -4.79 C 173.92 -6.07 173.96 -6.77 173.96 -6.89 L 173.96 -7.37 C 173.96 -8.22 173.55 -8.67 172.99 -8.67 L 172.71 -8.67 C 172.41 -8.67 172.07 -8.73 171.56 -8.91 C 171.08 -9.09 170.62 -9.17 170.18 -9.17 C 167.6 -9.17 166.25 -7.32 166.25 -4.91 L 166.25 -4.64 C 166.25 -2.3 167.49 -0.13 170.09 -0.13 C 170.6 -0.13 170.97 -0.15 171.24 -0.19 L 171.7 -0.25 C 171.97 -0.25 172.11 -0.1 172.11 0.21 C 172.11 1.8 171.11 2.69 169.52 2.69 C 169.28 2.69 169 2.65 168.66 2.6 C 168.33 2.55 168.05 2.5 167.85 2.5 C 167.25 2.51 166.94 2.71 166.94 3.1 C 166.94 3.72 168.24 4.31 169.59 4.31 Z M 167.85 -4.31 L 167.85 -4.71 C 167.85 -5.67 168.07 -6.43 168.52 -7 C 168.96 -7.57 169.54 -7.85 170.24 -7.85 L 170.49 -7.85 C 171.34 -7.85 171.92 -7.24 171.92 -6.18 L 171.94 -5.83 L 171.94 -5.54 L 171.96 -5.44 L 171.96 -4.95 L 171.94 -4.47 C 171.94 -3.07 171.72 -1.39 169.96 -1.39 L 169.63 -1.39 C 168.51 -1.39 167.85 -2.51 167.85 -4.31 Z M 180.44 0.13 L 180.84 0.13 C 182.32 0.13 184.06 -0.74 184.06 -1.49 C 184.06 -1.8 183.9 -1.96 183.57 -1.96 C 183.52 -1.96 183.18 -1.85 182.5 -1.68 C 181.87 -1.49 181.4 -1.41 181.09 -1.41 C 180.33 -1.41 179.71 -1.58 179.22 -1.93 C 178.74 -2.29 178.49 -2.77 178.49 -3.38 C 178.49 -3.74 178.76 -4 179.31 -4.14 C 179.45 -4.17 180.07 -4.24 181.24 -4.38 C 183.59 -4.67 184.22 -4.79 184.22 -6.32 C 184.22 -6.67 184.13 -7.06 183.97 -7.5 C 183.8 -7.93 183.55 -8.29 183.23 -8.6 C 182.64 -9.13 181.91 -9.39 181.03 -9.39 L 180.82 -9.39 C 178.19 -9.39 176.32 -7.39 176.32 -4.73 L 176.32 -4.31 C 176.32 -1.82 177.83 0.13 180.44 0.13 Z M 181.22 -5.54 L 181.03 -5.54 C 180.94 -5.51 180.86 -5.53 180.8 -5.5 L 179.29 -5.39 L 179.24 -5.37 L 179.02 -5.37 C 178.61 -5.36 178.41 -5.47 178.41 -5.69 L 178.41 -5.88 C 178.41 -7.03 179.43 -8.19 180.57 -8.19 L 180.8 -8.19 C 181.2 -8.19 181.58 -8.04 181.91 -7.73 C 182.24 -7.42 182.41 -7.05 182.41 -6.6 L 182.41 -6.21 C 182.41 -5.66 181.6 -5.54 181.22 -5.54 Z M 193.61 -0.02 L 194.15 -0.02 C 194.92 -0.02 195.56 -0.33 195.56 -0.75 C 195.56 -0.97 195.48 -1.24 195.29 -1.56 C 195.12 -1.89 195.01 -2.19 194.97 -2.44 C 194.94 -2.69 194.93 -3.94 194.93 -6.23 C 194.93 -8.51 194.98 -9.9 195.04 -10.43 C 195.07 -10.98 195.17 -11.4 195.36 -11.71 C 195.52 -12.06 195.6 -12.28 195.6 -12.36 L 195.6 -12.49 C 195.6 -12.67 195.5 -12.84 195.27 -13.02 C 195.02 -13.18 194.67 -13.27 194.22 -13.27 L 193.84 -13.27 C 193.37 -13.27 191.95 -13.14 191.95 -12.45 C 191.95 -12.22 192.06 -11.95 192.29 -11.61 C 192.52 -11.28 192.67 -10.89 192.73 -10.45 C 192.78 -10.01 192.81 -8.81 192.81 -6.82 C 192.81 -4.83 192.76 -3.61 192.7 -3.08 C 192.65 -2.6 192.5 -2.14 192.26 -1.7 C 192.06 -1.29 191.95 -0.99 191.95 -0.79 C 191.95 -0.18 193.2 -0.02 193.61 -0.02 Z M 199.19 -0.27 L 199.21 -0.27 C 199.98 -0.27 200.58 -0.64 200.58 -1.17 L 200.49 -2.88 C 200.49 -4.79 200.65 -6.07 200.98 -6.71 C 201.32 -7.48 202.01 -7.77 202.68 -7.77 C 203.39 -7.77 203.89 -7.42 204.17 -6.74 C 204.48 -5.84 204.69 -4.21 204.69 -1.72 L 204.67 -1.36 C 204.67 -0.67 204.99 -0.4 205.72 -0.4 C 206.57 -0.4 207 -0.68 207 -1.24 C 206.99 -1.38 206.92 -1.64 206.78 -2.02 C 206.49 -2.79 206.53 -3.52 206.48 -4.11 L 206.43 -5.15 C 206.36 -6.38 206.22 -7.19 206.08 -7.66 C 205.72 -8.53 204.95 -9.09 204 -9.09 L 203.75 -9.09 C 202.94 -9.09 202.19 -8.7 201.63 -8.44 C 201.35 -8.31 201.16 -8.25 201.06 -8.25 C 200.96 -8.25 200.71 -8.36 200.29 -8.58 C 199.88 -8.8 199.48 -8.91 199.08 -8.91 C 198.69 -8.92 198.48 -8.81 198.48 -8.58 L 198.57 -7.59 C 198.57 -7.43 198.58 -7.24 198.55 -6.91 L 198.55 -4.64 C 198.55 -3.15 198.57 -2.59 198.29 -1.89 C 198.17 -1.51 198.11 -1.21 198.11 -1.01 C 198.12 -0.52 198.47 -0.27 199.19 -0.27 Z M 212.36 -0.02 L 212.71 -0.02 C 213.08 -0.02 213.43 -0.12 213.74 -0.3 C 214.04 -0.48 214.19 -0.7 214.19 -0.95 C 214.19 -1.28 213.92 -1.48 213.39 -1.54 C 212.87 -1.61 212.48 -1.8 212.24 -2.12 C 212.02 -2.38 211.9 -3.21 211.9 -4.6 C 211.89 -5.96 212.02 -6.91 212.29 -7.43 C 212.45 -7.72 212.79 -7.96 213.31 -8.14 C 213.84 -8.35 214.11 -8.56 214.11 -8.8 C 214.12 -9.07 213.87 -9.28 213.35 -9.46 C 212.31 -9.8 212.23 -10.01 212.01 -10.96 C 211.89 -11.42 211.77 -11.73 211.67 -11.89 C 211.58 -12.04 211.4 -12.12 211.13 -12.12 C 210.6 -12.12 210.34 -11.75 210.05 -10.69 C 209.79 -9.65 209.85 -9.75 209.26 -9.35 C 208.97 -9.14 208.82 -8.96 208.82 -8.82 L 208.82 -8.69 C 208.82 -8.51 208.95 -8.28 209.19 -8.04 C 209.44 -7.79 209.6 -7.55 209.68 -7.33 C 209.84 -6.77 209.91 -5.77 209.91 -4.33 C 209.91 -2.87 210.1 -1.78 210.45 -1.08 C 210.8 -0.38 211.44 -0.02 212.36 -0.02 Z M 219.99 0.13 L 220.4 0.13 C 221.87 0.13 223.61 -0.74 223.61 -1.49 C 223.61 -1.8 223.45 -1.96 223.13 -1.96 C 223.07 -1.96 222.73 -1.85 222.05 -1.68 C 221.42 -1.49 220.96 -1.41 220.64 -1.41 C 219.88 -1.41 219.26 -1.58 218.78 -1.93 C 218.29 -2.29 218.04 -2.77 218.04 -3.38 C 218.04 -3.74 218.31 -4 218.86 -4.14 C 219 -4.17 219.62 -4.24 220.79 -4.38 C 223.15 -4.67 223.77 -4.79 223.77 -6.32 C 223.77 -6.67 223.68 -7.06 223.52 -7.5 C 223.35 -7.93 223.1 -8.29 222.78 -8.6 C 222.19 -9.13 221.46 -9.39 220.58 -9.39 L 220.38 -9.39 C 217.74 -9.39 215.88 -7.39 215.88 -4.73 L 215.88 -4.31 C 215.88 -1.82 217.38 0.13 219.99 0.13 Z M 220.77 -5.54 L 220.58 -5.54 C 220.49 -5.51 220.41 -5.53 220.35 -5.5 L 218.84 -5.39 L 218.8 -5.37 L 218.57 -5.37 C 218.16 -5.36 217.96 -5.47 217.96 -5.69 L 217.96 -5.88 C 217.96 -7.03 218.98 -8.19 220.12 -8.19 L 220.35 -8.19 C 220.75 -8.19 221.13 -8.04 221.46 -7.73 C 221.79 -7.42 221.97 -7.05 221.97 -6.6 L 221.97 -6.21 C 221.97 -5.66 221.15 -5.54 220.77 -5.54 Z M 226.17 -13.04 C 226.17 -12.97 226.22 -12.74 226.34 -12.34 C 226.48 -11.97 226.54 -11.43 226.54 -10.71 L 226.54 -8.93 L 226.52 -8.58 L 226.52 -6.78 L 226.5 -6.6 L 226.5 -5.52 L 226.48 -5.35 L 226.43 -3.08 C 226.39 -2.31 226.39 -1.82 226.34 -1.56 C 226.28 -1.27 226.25 -1.11 226.25 -1.05 C 226.25 -0.35 226.7 0 227.59 0 L 227.93 0 C 228.92 0 229.44 -0.4 229.44 -0.82 C 229.44 -1.05 229.35 -1.32 229.15 -1.61 C 228.97 -1.9 228.82 -2.3 228.7 -2.83 C 228.58 -3.34 228.52 -3.83 228.52 -4.31 C 228.52 -4.81 228.51 -5.09 228.5 -5.17 L 228.48 -6.38 L 228.48 -7.81 L 228.5 -7.98 L 228.5 -8.88 L 228.54 -9.97 L 228.54 -13.07 C 228.49 -13.56 228.15 -13.79 227.55 -13.79 L 227.4 -13.79 C 226.57 -13.79 226.17 -13.55 226.17 -13.04 Z M 231.77 -13.04 C 231.77 -12.97 231.83 -12.74 231.95 -12.34 C 232.08 -11.97 232.15 -11.43 232.15 -10.71 L 232.15 -8.93 L 232.13 -8.58 L 232.13 -6.78 L 232.11 -6.6 L 232.11 -5.52 L 232.08 -5.35 L 232.04 -3.08 C 232 -2.31 232 -1.82 231.95 -1.56 C 231.89 -1.27 231.86 -1.11 231.86 -1.05 C 231.86 -0.35 232.31 0 233.2 0 L 233.54 0 C 234.52 0 235.05 -0.4 235.05 -0.82 C 235.05 -1.05 234.95 -1.32 234.76 -1.61 C 234.58 -1.9 234.43 -2.3 234.31 -2.83 C 234.19 -3.34 234.13 -3.83 234.13 -4.31 C 234.13 -4.81 234.12 -5.09 234.1 -5.17 L 234.08 -6.38 L 234.08 -7.81 L 234.1 -7.98 L 234.1 -8.88 L 234.15 -9.97 L 234.15 -13.07 C 234.09 -13.56 233.76 -13.79 233.16 -13.79 L 233.01 -13.79 C 232.18 -13.79 231.77 -13.55 231.77 -13.04 Z M 238.28 0 L 238.77 0 C 239.64 0 240.3 -0.35 240.3 -0.88 C 240.3 -1.11 240.25 -1.34 240.13 -1.58 C 239.82 -2.12 239.67 -2.76 239.67 -3.5 L 239.6 -4.84 L 239.6 -6.99 C 239.6 -9 239.64 -9.2 238.72 -9.2 L 238.39 -9.2 C 237.63 -9.2 237.25 -9.01 237.25 -8.65 L 237.25 -8.44 C 237.25 -8.43 237.32 -8.25 237.45 -7.92 L 237.53 -7.72 C 237.61 -7.52 237.66 -7.23 237.69 -6.86 L 237.69 -3.15 L 237.65 -2.42 C 237.64 -2.13 237.58 -1.83 237.49 -1.51 C 237.37 -1.14 237.32 -0.88 237.32 -0.75 C 237.32 -0.37 237.76 0 238.28 0 Z M 238.94 -13.27 L 238.62 -13.27 C 238.26 -13.27 238 -13.17 237.84 -12.98 C 237.68 -12.78 237.6 -12.61 237.6 -12.47 L 237.55 -12.17 L 237.55 -12.12 L 237.6 -11.82 C 237.6 -11.62 237.67 -11.45 237.83 -11.3 C 237.99 -11.14 238.12 -11.06 238.24 -11.06 C 238.37 -11.06 238.47 -11.05 238.52 -11.04 L 238.83 -11.04 L 239 -11.06 C 239.56 -11.06 239.93 -11.55 239.93 -12.07 L 239.93 -12.3 C 239.93 -12.94 239.46 -13.27 238.94 -13.27 Z M 245.97 4.31 C 247.22 4.31 248.23 3.97 249.01 3.31 C 249.79 2.64 250.17 1.64 250.17 0.31 L 250.07 -1.89 C 250.07 -2.57 250.13 -3.5 250.22 -4.79 C 250.3 -6.07 250.35 -6.77 250.35 -6.89 L 250.35 -7.37 C 250.35 -8.22 249.94 -8.67 249.38 -8.67 L 249.1 -8.67 C 248.8 -8.67 248.46 -8.73 247.95 -8.91 C 247.47 -9.09 247.01 -9.17 246.57 -9.17 C 243.99 -9.17 242.63 -7.32 242.63 -4.91 L 242.63 -4.64 C 242.63 -2.3 243.88 -0.13 246.48 -0.13 C 246.98 -0.13 247.36 -0.15 247.63 -0.19 L 248.09 -0.25 C 248.36 -0.25 248.5 -0.1 248.5 0.21 C 248.5 1.8 247.5 2.69 245.91 2.69 C 245.66 2.69 245.38 2.65 245.05 2.6 C 244.72 2.55 244.44 2.5 244.23 2.5 C 243.63 2.51 243.33 2.71 243.33 3.1 C 243.33 3.72 244.63 4.31 245.97 4.31 Z M 244.23 -4.31 L 244.23 -4.71 C 244.23 -5.67 244.46 -6.43 244.91 -7 C 245.35 -7.57 245.93 -7.85 246.63 -7.85 L 246.88 -7.85 C 247.73 -7.85 248.31 -7.24 248.31 -6.18 L 248.33 -5.83 L 248.33 -5.54 L 248.35 -5.44 L 248.35 -4.95 L 248.33 -4.47 C 248.33 -3.07 248.11 -1.39 246.35 -1.39 L 246.02 -1.39 C 244.9 -1.39 244.23 -2.51 244.23 -4.31 Z M 256.82 0.13 L 257.23 0.13 C 258.7 0.13 260.44 -0.74 260.44 -1.49 C 260.44 -1.8 260.28 -1.96 259.96 -1.96 C 259.91 -1.96 259.56 -1.85 258.89 -1.68 C 258.25 -1.49 257.79 -1.41 257.48 -1.41 C 256.72 -1.41 256.09 -1.58 255.61 -1.93 C 255.13 -2.29 254.88 -2.77 254.88 -3.38 C 254.88 -3.74 255.15 -4 255.7 -4.14 C 255.84 -4.17 256.46 -4.24 257.63 -4.38 C 259.98 -4.67 260.61 -4.79 260.61 -6.32 C 260.61 -6.67 260.52 -7.06 260.36 -7.5 C 260.19 -7.93 259.94 -8.29 259.62 -8.6 C 259.03 -9.13 258.3 -9.39 257.42 -9.39 L 257.21 -9.39 C 254.58 -9.39 252.71 -7.39 252.71 -4.73 L 252.71 -4.31 C 252.71 -1.82 254.21 0.13 256.82 0.13 Z M 257.61 -5.54 L 257.42 -5.54 C 257.33 -5.51 257.24 -5.53 257.19 -5.5 L 255.67 -5.39 L 255.63 -5.37 L 255.41 -5.37 C 255 -5.36 254.79 -5.47 254.79 -5.69 L 254.79 -5.88 C 254.79 -7.03 255.81 -8.19 256.95 -8.19 L 257.19 -8.19 C 257.59 -8.19 257.96 -8.04 258.3 -7.73 C 258.63 -7.42 258.8 -7.05 258.8 -6.6 L 258.8 -6.21 C 258.8 -5.66 257.98 -5.54 257.61 -5.54 Z M 263.86 -0.27 L 263.88 -0.27 C 264.64 -0.27 265.25 -0.64 265.25 -1.17 L 265.16 -2.88 C 265.16 -4.79 265.32 -6.07 265.64 -6.71 C 265.99 -7.48 266.67 -7.77 267.35 -7.77 C 268.06 -7.77 268.55 -7.42 268.83 -6.74 C 269.15 -5.84 269.36 -4.21 269.36 -1.72 L 269.34 -1.36 C 269.34 -0.67 269.66 -0.4 270.39 -0.4 C 271.24 -0.4 271.67 -0.68 271.67 -1.24 C 271.66 -1.38 271.58 -1.64 271.44 -2.02 C 271.15 -2.79 271.2 -3.52 271.14 -4.11 L 271.1 -5.15 C 271.03 -6.38 270.89 -7.19 270.75 -7.66 C 270.39 -8.53 269.62 -9.09 268.67 -9.09 L 268.42 -9.09 C 267.61 -9.09 266.86 -8.7 266.3 -8.44 C 266.02 -8.31 265.83 -8.25 265.73 -8.25 C 265.63 -8.25 265.38 -8.36 264.96 -8.58 C 264.55 -8.8 264.15 -8.91 263.75 -8.91 C 263.36 -8.92 263.15 -8.81 263.15 -8.58 L 263.24 -7.59 C 263.24 -7.43 263.25 -7.24 263.22 -6.91 L 263.22 -4.64 C 263.22 -3.15 263.24 -2.59 262.96 -1.89 C 262.84 -1.51 262.78 -1.21 262.78 -1.01 C 262.79 -0.52 263.14 -0.27 263.86 -0.27 Z M 277.49 0.11 L 277.69 0.11 C 279.19 0.11 280.96 -0.78 280.96 -1.56 C 280.96 -1.84 280.83 -1.98 280.59 -1.98 C 280.46 -1.99 280.1 -1.89 279.51 -1.7 C 278.9 -1.51 278.38 -1.43 277.98 -1.43 C 276.47 -1.43 275.44 -2.54 275.44 -4.64 C 275.44 -6.76 276.32 -7.94 277.56 -7.94 C 277.96 -7.95 278.42 -7.84 278.9 -7.64 C 279.06 -7.48 279.77 -7.11 280 -7.11 C 280.5 -7.1 280.75 -7.35 280.75 -7.83 C 280.75 -8.29 280.5 -8.67 280.01 -8.98 C 279.5 -9.29 278.86 -9.44 278.06 -9.44 C 276.59 -9.44 275.46 -9 274.66 -8.12 C 273.85 -7.24 273.44 -6.06 273.44 -4.58 L 273.44 -4.36 C 273.44 -1.78 274.87 0.11 277.49 0.11 Z M 286.61 0.13 L 287.02 0.13 C 288.49 0.13 290.23 -0.74 290.23 -1.49 C 290.23 -1.8 290.07 -1.96 289.75 -1.96 C 289.7 -1.96 289.35 -1.85 288.67 -1.68 C 288.04 -1.49 287.58 -1.41 287.27 -1.41 C 286.5 -1.41 285.88 -1.58 285.4 -1.93 C 284.92 -2.29 284.67 -2.77 284.67 -3.38 C 284.67 -3.74 284.94 -4 285.48 -4.14 C 285.62 -4.17 286.25 -4.24 287.42 -4.38 C 289.77 -4.67 290.39 -4.79 290.39 -6.32 C 290.39 -6.67 290.31 -7.06 290.15 -7.5 C 289.97 -7.93 289.73 -8.29 289.41 -8.6 C 288.81 -9.13 288.08 -9.39 287.2 -9.39 L 287 -9.39 C 284.37 -9.39 282.5 -7.39 282.5 -4.73 L 282.5 -4.31 C 282.5 -1.82 284 0.13 286.61 0.13 Z M 287.4 -5.54 L 287.2 -5.54 C 287.12 -5.51 287.03 -5.53 286.98 -5.5 L 285.46 -5.39 L 285.42 -5.37 L 285.19 -5.37 C 284.79 -5.36 284.58 -5.47 284.58 -5.69 L 284.58 -5.88 C 284.58 -7.03 285.6 -8.19 286.74 -8.19 L 286.98 -8.19 C 287.38 -8.19 287.75 -8.04 288.08 -7.73 C 288.42 -7.42 288.59 -7.05 288.59 -6.6 L 288.59 -6.21 C 288.59 -5.66 287.77 -5.54 287.4 -5.54 Z M 301.67 0.06 C 302.11 0.06 302.64 0.01 303.25 -0.11 C 304.42 -0.4 306.44 -0.59 306.67 -0.59 C 306.79 -0.59 306.98 -0.57 307.26 -0.53 L 307.45 -0.48 L 307.99 -0.42 C 308.35 -0.41 308.54 -0.49 308.54 -0.68 C 308.53 -0.74 308.31 -1.05 307.89 -1.61 C 307.48 -2.16 307.28 -2.64 307.28 -3.06 C 307.28 -3.5 307.44 -4.09 307.76 -4.82 C 308.08 -5.56 308.23 -5.97 308.23 -6.05 C 308.23 -6.37 308.1 -6.53 307.85 -6.53 C 307.25 -6.53 306.68 -6.2 306.13 -5.52 C 306 -5.34 305.88 -5.25 305.77 -5.25 C 305.34 -5.25 304.96 -5.35 304.65 -5.53 C 304.34 -5.71 304.18 -5.97 304.18 -6.29 C 304.18 -6.61 304.34 -7.3 304.59 -8.42 C 304.87 -9.5 305.01 -10.14 305.01 -10.34 C 305.01 -11.06 304.79 -11.67 304.35 -12.15 C 303.9 -12.63 303.32 -12.87 302.62 -12.87 L 302.35 -12.87 C 300.59 -12.87 299.43 -11.53 299.43 -9.99 C 299.43 -9.59 299.55 -9.1 299.78 -8.5 C 300.01 -7.92 300.13 -7.58 300.13 -7.5 C 300.14 -7.28 299.88 -6.91 299.36 -6.36 C 298.41 -5.42 297.93 -4.48 297.93 -3.54 L 297.93 -3.25 C 297.93 -1.2 299.76 0.06 301.67 0.06 Z M 302.18 -1.28 L 302.03 -1.28 C 300.72 -1.28 299.71 -2.4 299.71 -3.63 L 299.71 -3.87 L 299.74 -4.03 C 299.74 -4.76 300.79 -6.16 301.28 -6.16 L 301.38 -6.16 C 301.45 -6.16 301.84 -5.68 302.58 -4.73 L 304.34 -2.44 L 304.34 -2.37 C 304.34 -1.94 303.14 -1.28 302.18 -1.28 Z M 302.53 -12.07 L 302.77 -12.07 C 303.06 -12.07 303.32 -11.92 303.52 -11.61 C 303.72 -11.3 303.82 -10.98 303.82 -10.62 L 303.82 -10.5 L 303.8 -10.21 C 303.8 -9.65 303.05 -8.08 302.35 -8.08 L 302.33 -8.08 C 302.13 -8.08 301.3 -9.43 301.3 -10.01 C 301.3 -10.07 301.28 -10.13 301.28 -10.27 L 301.28 -10.67 C 301.28 -11 301.4 -11.32 301.66 -11.62 C 301.92 -11.92 302.21 -12.07 302.53 -12.07 Z M 317.3 -10.18 L 317.35 -8.52 L 317.35 -7.96 L 317.37 -7.68 L 317.37 -5 C 317.37 -3.96 317.36 -3.33 317.32 -3.04 C 317.28 -2.73 317.18 -2.43 317.04 -2.12 C 316.89 -1.8 316.82 -1.57 316.82 -1.39 C 316.82 -0.54 317.31 -0.21 318.18 -0.21 C 319.03 -0.21 319.72 -0.54 319.72 -1.3 C 319.72 -1.38 319.68 -1.61 319.59 -2.02 C 319.5 -2.44 319.46 -2.9 319.46 -3.38 C 319.46 -3.89 319.56 -4.32 319.74 -4.69 C 319.92 -5.07 320.25 -5.25 320.72 -5.25 C 321.62 -5.25 321.78 -5.07 323.14 -2.77 C 323.81 -1.63 324.25 -0.96 324.46 -0.75 C 324.81 -0.38 325.2 -0.19 325.64 -0.19 L 325.86 -0.19 C 326.33 -0.19 326.56 -0.34 326.56 -0.63 L 326.56 -0.82 C 326.57 -1 326.32 -1.36 325.8 -1.91 C 325.53 -2.18 325.03 -2.98 324.59 -3.77 C 324.15 -4.57 323.77 -5.34 323.77 -5.67 C 323.78 -5.95 324.01 -6.34 324.46 -6.84 C 325.33 -7.78 325.78 -8.59 325.78 -9.74 C 325.78 -10.3 325.7 -10.76 325.53 -11.15 C 324.94 -12.62 323.44 -13.35 321.02 -13.35 L 320.43 -13.35 C 319.21 -13.35 318.34 -13.31 317.83 -13.22 C 317.35 -13.14 317.11 -12.97 317.11 -12.72 C 317.11 -12.58 317.14 -12.36 317.2 -12.05 C 317.25 -11.74 317.28 -11.4 317.28 -11 C 317.28 -10.65 317.27 -10.36 317.3 -10.18 Z M 320.45 -6.78 L 320.21 -6.78 C 319.84 -6.78 319.59 -6.84 319.49 -6.97 C 319.39 -7.09 319.33 -7.37 319.33 -7.79 L 319.33 -9.66 L 319.35 -9.93 L 319.35 -10.62 L 319.4 -11.21 C 319.4 -11.56 319.5 -11.77 319.72 -11.86 C 319.92 -11.95 320.17 -11.99 320.45 -11.99 L 320.85 -12.03 L 321.18 -12.03 C 322.76 -12.03 323.71 -11.16 323.71 -9.79 L 323.71 -9.32 C 323.71 -8.55 323.42 -7.94 322.82 -7.48 C 322.23 -7.01 321.45 -6.78 320.45 -6.78 Z M 332.52 0.13 L 332.93 0.13 C 334.4 0.13 336.14 -0.74 336.14 -1.49 C 336.14 -1.8 335.98 -1.96 335.66 -1.96 C 335.61 -1.96 335.26 -1.85 334.59 -1.68 C 333.95 -1.49 333.49 -1.41 333.18 -1.41 C 332.42 -1.41 331.79 -1.58 331.31 -1.93 C 330.83 -2.29 330.58 -2.77 330.58 -3.38 C 330.58 -3.74 330.85 -4 331.4 -4.14 C 331.54 -4.17 332.16 -4.24 333.33 -4.38 C 335.68 -4.67 336.31 -4.79 336.31 -6.32 C 336.31 -6.67 336.22 -7.06 336.06 -7.5 C 335.89 -7.93 335.64 -8.29 335.32 -8.6 C 334.73 -9.13 334 -9.39 333.12 -9.39 L 332.91 -9.39 C 330.28 -9.39 328.41 -7.39 328.41 -4.73 L 328.41 -4.31 C 328.41 -1.82 329.91 0.13 332.52 0.13 Z M 333.31 -5.54 L 333.12 -5.54 C 333.03 -5.51 332.94 -5.53 332.89 -5.5 L 331.38 -5.39 L 331.33 -5.37 L 331.11 -5.37 C 330.7 -5.36 330.49 -5.47 330.49 -5.69 L 330.49 -5.88 C 330.49 -7.03 331.51 -8.19 332.65 -8.19 L 332.89 -8.19 C 333.29 -8.19 333.66 -8.04 334 -7.73 C 334.33 -7.42 334.5 -7.05 334.5 -6.6 L 334.5 -6.21 C 334.5 -5.66 333.68 -5.54 333.31 -5.54 Z M 346.26 -0.73 C 346.26 -0.93 346.19 -1.17 346.03 -1.43 C 345.84 -1.7 345.74 -1.98 345.69 -2.27 C 345.65 -2.54 345.63 -3.23 345.63 -4.38 C 345.63 -6.4 345.45 -7.68 345.08 -8.23 C 344.58 -9.01 343.59 -9.53 342.35 -9.53 L 341.87 -9.53 C 340.22 -9.53 338.7 -8.75 338.7 -8.06 C 338.7 -7.5 338.91 -7.22 339.31 -7.22 C 339.54 -7.22 339.96 -7.37 340.57 -7.68 C 341.15 -7.97 341.68 -8.12 342.15 -8.12 C 343.06 -8.12 343.63 -7.52 343.63 -6.67 C 343.63 -6.26 343.48 -5.97 343.17 -5.81 C 343.14 -5.8 342.46 -5.66 341.14 -5.39 C 339.12 -5.02 338.11 -4.03 338.11 -2.42 C 338.11 -0.86 339.28 0.11 340.63 0.11 L 340.86 0.11 C 341.31 0.12 341.83 0.01 342.4 -0.21 C 342.97 -0.44 343.31 -0.55 343.43 -0.55 C 343.55 -0.55 343.8 -0.47 344.18 -0.33 C 344.6 -0.15 344.86 -0.09 345 -0.09 C 345.84 -0.1 346.26 -0.31 346.26 -0.73 Z M 341.78 -1.17 L 341.49 -1.17 C 341.04 -1.17 340.7 -1.31 340.45 -1.59 C 340.21 -1.86 340.09 -2.17 340.09 -2.5 L 340.09 -2.84 C 340.09 -3.3 340.27 -3.68 340.65 -4.01 C 341.02 -4.33 341.49 -4.49 342.08 -4.49 L 342.84 -4.55 L 343.13 -4.55 C 343.52 -4.55 343.72 -4.32 343.72 -3.85 L 343.72 -3.48 C 343.72 -1.98 342.99 -1.17 341.78 -1.17 Z M 348.41 -6.99 C 348.41 -5.35 349.68 -4.67 351.03 -4.16 C 352.73 -3.45 353.28 -3.23 353.28 -2.44 C 353.28 -1.68 352.68 -1.24 351.65 -1.24 C 351.14 -1.24 350.57 -1.41 349.96 -1.76 C 349.3 -2.08 348.93 -2.25 348.83 -2.25 C 348.5 -2.25 348.33 -1.98 348.33 -1.43 C 348.34 -1.27 348.4 -1.08 348.53 -0.86 C 348.95 -0.18 350.02 0.15 351.74 0.15 C 353.78 0.15 355.21 -1.03 355.21 -2.6 C 355.21 -3.37 354.99 -3.96 354.55 -4.36 C 354.09 -4.76 353.44 -5.12 352.57 -5.48 C 350.83 -6.19 350.33 -6.33 350.33 -7.04 C 350.33 -7.76 350.81 -8.23 351.79 -8.23 C 352.25 -8.23 352.75 -8.1 353.28 -7.85 C 353.8 -7.58 354.13 -7.46 354.25 -7.46 C 354.58 -7.46 354.75 -7.72 354.75 -8.25 C 354.76 -9.51 352.71 -9.57 351.87 -9.57 C 349.86 -9.57 348.41 -8.52 348.41 -6.99 Z M 365.51 -4.55 L 365.51 -4.89 C 365.51 -7.26 364.16 -9.49 361.53 -9.49 L 361.04 -9.49 C 360.49 -9.49 359.93 -9.36 359.37 -9.09 C 357.67 -8.31 356.95 -6.56 356.95 -4.79 L 356.95 -4.31 C 356.95 -3.09 357.21 -1.1 359.22 -0.15 C 359.75 0.1 360.28 0.21 360.84 0.21 L 361.17 0.21 C 361.79 0.21 362.41 0.06 363.04 -0.25 C 363.89 -0.64 364.53 -1.24 364.92 -2.03 C 365.32 -2.81 365.51 -3.66 365.51 -4.55 Z M 361.15 -1.07 L 360.98 -1.07 C 359.8 -1.07 358.89 -2.48 358.89 -3.89 C 358.89 -3.96 358.9 -4.06 358.86 -4.2 L 358.86 -4.87 C 358.86 -5.89 359.08 -6.71 359.51 -7.33 C 359.93 -7.94 360.45 -8.25 361.09 -8.25 L 361.28 -8.25 C 361.93 -8.25 362.44 -7.95 362.82 -7.34 C 363.19 -6.72 363.38 -5.95 363.38 -5.02 L 363.38 -4.26 L 363.35 -4.05 C 363.35 -3.18 363.15 -2.47 362.74 -1.91 C 362.32 -1.35 361.8 -1.07 361.15 -1.07 Z M 368.63 -0.27 L 368.65 -0.27 C 369.41 -0.27 370.01 -0.64 370.01 -1.17 L 369.93 -2.88 C 369.93 -4.79 370.09 -6.07 370.41 -6.71 C 370.76 -7.48 371.44 -7.77 372.12 -7.77 C 372.83 -7.77 373.32 -7.42 373.6 -6.74 C 373.91 -5.84 374.13 -4.21 374.13 -1.72 L 374.11 -1.36 C 374.11 -0.67 374.43 -0.4 375.16 -0.4 C 376.01 -0.4 376.44 -0.68 376.44 -1.24 C 376.43 -1.38 376.35 -1.64 376.21 -2.02 C 375.92 -2.79 375.97 -3.52 375.91 -4.11 L 375.87 -5.15 C 375.79 -6.38 375.65 -7.19 375.51 -7.66 C 375.16 -8.53 374.39 -9.09 373.44 -9.09 L 373.18 -9.09 C 372.38 -9.09 371.63 -8.7 371.07 -8.44 C 370.79 -8.31 370.59 -8.25 370.5 -8.25 C 370.4 -8.25 370.14 -8.36 369.72 -8.58 C 369.32 -8.8 368.92 -8.91 368.52 -8.91 C 368.12 -8.92 367.92 -8.81 367.92 -8.58 L 368.01 -7.59 C 368.01 -7.43 368.02 -7.24 367.98 -6.91 L 367.98 -4.64 C 367.98 -3.15 368.01 -2.59 367.73 -1.89 C 367.61 -1.51 367.54 -1.21 367.54 -1.01 C 367.55 -0.52 367.91 -0.27 368.63 -0.27 Z M 379.64 0 L 380.12 0 C 380.99 0 381.66 -0.35 381.66 -0.88 C 381.66 -1.11 381.61 -1.34 381.49 -1.58 C 381.18 -2.12 381.03 -2.76 381.03 -3.5 L 380.96 -4.84 L 380.96 -6.99 C 380.96 -9 380.99 -9.2 380.08 -9.2 L 379.75 -9.2 C 378.98 -9.2 378.61 -9.01 378.61 -8.65 L 378.61 -8.44 C 378.61 -8.43 378.67 -8.25 378.8 -7.92 L 378.89 -7.72 C 378.96 -7.52 379.02 -7.23 379.05 -6.86 L 379.05 -3.15 L 379.01 -2.42 C 379 -2.13 378.94 -1.83 378.84 -1.51 C 378.73 -1.14 378.67 -0.88 378.67 -0.75 C 378.67 -0.37 379.11 0 379.64 0 Z M 380.29 -13.27 L 379.97 -13.27 C 379.62 -13.27 379.36 -13.17 379.2 -12.98 C 379.04 -12.78 378.95 -12.61 378.95 -12.47 L 378.91 -12.17 L 378.91 -12.12 L 378.95 -11.82 C 378.95 -11.62 379.03 -11.45 379.19 -11.3 C 379.35 -11.14 379.48 -11.06 379.6 -11.06 C 379.73 -11.06 379.82 -11.05 379.88 -11.04 L 380.19 -11.04 L 380.36 -11.06 C 380.92 -11.06 381.28 -11.55 381.28 -12.07 L 381.28 -12.3 C 381.28 -12.94 380.82 -13.27 380.29 -13.27 Z M 384.98 -0.27 L 385 -0.27 C 385.76 -0.27 386.36 -0.64 386.36 -1.17 L 386.28 -2.88 C 386.28 -4.79 386.44 -6.07 386.76 -6.71 C 387.11 -7.48 387.79 -7.77 388.47 -7.77 C 389.18 -7.77 389.67 -7.42 389.95 -6.74 C 390.26 -5.84 390.48 -4.21 390.48 -1.72 L 390.46 -1.36 C 390.46 -0.67 390.78 -0.4 391.51 -0.4 C 392.36 -0.4 392.79 -0.68 392.79 -1.24 C 392.78 -1.38 392.7 -1.64 392.56 -2.02 C 392.27 -2.79 392.32 -3.52 392.26 -4.11 L 392.22 -5.15 C 392.14 -6.38 392 -7.19 391.86 -7.66 C 391.51 -8.53 390.74 -9.09 389.79 -9.09 L 389.53 -9.09 C 388.73 -9.09 387.98 -8.7 387.42 -8.44 C 387.14 -8.31 386.94 -8.25 386.85 -8.25 C 386.75 -8.25 386.49 -8.36 386.07 -8.58 C 385.67 -8.8 385.27 -8.91 384.87 -8.91 C 384.47 -8.92 384.27 -8.81 384.27 -8.58 L 384.36 -7.59 C 384.36 -7.43 384.37 -7.24 384.33 -6.91 L 384.33 -4.64 C 384.33 -3.15 384.36 -2.59 384.08 -1.89 C 383.96 -1.51 383.89 -1.21 383.89 -1.01 C 383.9 -0.52 384.26 -0.27 384.98 -0.27 Z M 398.3 4.31 C 399.54 4.31 400.55 3.97 401.34 3.31 C 402.11 2.64 402.5 1.64 402.5 0.31 L 402.39 -1.89 C 402.39 -2.57 402.46 -3.5 402.54 -4.79 C 402.63 -6.07 402.67 -6.77 402.67 -6.89 L 402.67 -7.37 C 402.67 -8.22 402.26 -8.67 401.7 -8.67 L 401.42 -8.67 C 401.12 -8.67 400.78 -8.73 400.28 -8.91 C 399.79 -9.09 399.33 -9.17 398.89 -9.17 C 396.31 -9.17 394.96 -7.32 394.96 -4.91 L 394.96 -4.64 C 394.96 -2.3 396.2 -0.13 398.8 -0.13 C 399.31 -0.13 399.68 -0.15 399.95 -0.19 L 400.42 -0.25 C 400.68 -0.25 400.82 -0.1 400.82 0.21 C 400.82 1.8 399.82 2.69 398.23 2.69 C 397.99 2.69 397.71 2.65 397.38 2.6 C 397.04 2.55 396.76 2.5 396.56 2.5 C 395.96 2.51 395.66 2.71 395.66 3.1 C 395.66 3.72 396.96 4.31 398.3 4.31 Z M 396.56 -4.31 L 396.56 -4.71 C 396.56 -5.67 396.78 -6.43 397.24 -7 C 397.68 -7.57 398.26 -7.85 398.95 -7.85 L 399.2 -7.85 C 400.05 -7.85 400.63 -7.24 400.63 -6.18 L 400.65 -5.83 L 400.65 -5.54 L 400.67 -5.44 L 400.67 -4.95 L 400.65 -4.47 C 400.65 -3.07 400.44 -1.39 398.67 -1.39 L 398.34 -1.39 C 397.22 -1.39 396.56 -2.51 396.56 -4.31 Z" stroke-linecap="round" />
</g>
</g>
</g>
</svg>