<?xml version="1.0" encoding="UTF-8" standalone="no" ?>
<!DOCTYPE svg PUBLIC "-//W3C//DTD SVG 1.1//EN" "http://www.w3.org/Graphics/SVG/1.1/DTD/svg11.dtd">
<svg xmlns="http://www.w3.org/2000/svg" xmlns:xlink="http://www.w3.org/1999/xlink" version="1.1" width="1280" height="1024" viewBox="0 0 1280 1024" xml:space="preserve">
<desc>Created with Fabric.js 5.3.0</desc>
<defs>
</defs>
<g transform="matrix(1 0 0 1 640 512)" id="background-logo"  >
<rect style="stroke: none; stroke-width: 0; stroke-dasharray: none; stroke-linecap: butt; stroke-dashoffset: 0; stroke-linejoin: miter; stroke-miterlimit: 4; fill: rgb(255,255,255); fill-opacity: 0; fill-rule: nonzero; opacity: 1;"  paint-order="stroke"  x="-640" y="-512" rx="0" ry="0" width="1280" height="1024" />
</g>
<g transform="matrix(1.6042875216877774 0 0 1.6042875216877774 207.07724949392707 504.585020242915)" id="logo-logo"  >
<g style=""  paint-order="stroke"   >
		<g transform="matrix(1.7046436714538828 0 0 1.7046436714538828 0 0)"  >
<linearGradient id="SVGID_7_161536" gradientUnits="userSpaceOnUse" gradientTransform="matrix(1 0 0 1 133.58999999999997 93.31)"  x1="0" y1="0" x2="0" y2="109">
<stop offset="0%" style="stop-color:rgb(98,39,116);stop-opacity: 1"/>
<stop offset="100%" style="stop-color:rgb(197,51,100);stop-opacity: 1"/>
</linearGradient>
<path style="stroke: none; stroke-width: 1; stroke-dasharray: none; stroke-linecap: butt; stroke-dashoffset: 0; stroke-linejoin: miter; stroke-miterlimit: 4; fill: url(#SVGID_7_161536); fill-rule: nonzero; opacity: 1;"  paint-order="stroke"  transform=" translate(-187.885, -147.61)" d="M 187.89 93.31 C 157.95 93.31 133.58999999999997 117.67 133.58999999999997 147.61 C 133.58999999999997 177.55 157.95 201.91000000000003 187.89 201.91000000000003 C 189.25 201.91000000000003 190.58999999999997 201.86 191.92 201.76000000000002 L 191.92 201.76000000000002 C 191.92 201.76000000000002 191.92 201.76000000000002 191.92 201.76000000000002 C 219.98 199.69000000000003 242.17999999999998 176.19000000000003 242.17999999999998 147.61 C 242.17999999999998 119.03 217.82 93.31000000000002 187.88 93.31000000000002 Z M 222.82 168.28 C 221.73 168.01 221.04999999999998 166.9 221.32 165.81 C 221.54999999999998 164.88 222.39 164.25 223.31 164.25 C 223.47 164.25 223.63 164.27 223.8 164.31 C 224.89000000000001 164.58 225.57000000000002 165.69 225.3 166.78 C 225.14000000000001 167.43 224.67000000000002 167.97 224.03 168.21 C 223.64000000000001 168.36 223.23 168.38 222.82 168.28 Z M 226.14 170.01 C 226.98 169.37 227.6 168.45999999999998 227.85999999999999 167.41 C 228.48 164.9 226.94 162.37 224.42999999999998 161.75 C 221.92999999999998 161.13 219.39 162.67 218.76999999999998 165.18 C 218.14999999999998 167.69 219.68999999999997 170.22 222.2 170.84 C 222.57 170.93 222.95 170.98 223.32 170.98 C 223.43 170.98 223.53 170.98 223.64 170.97 C 224.08999999999997 173.28 224.19 175.59 224.19 177.29 C 224.19 178.97 223.97 180.69 223.51 182.70999999999998 L 223.42 183.09999999999997 C 223.22 184.01999999999995 222.86999999999998 185.56999999999996 222.32 186.06999999999996 L 222.35 186.09999999999997 C 215.23999999999998 192.46999999999997 206.35999999999999 196.90999999999997 196.54999999999998 198.56999999999996 C 198.79 196.73999999999995 200.66 194.75999999999996 202.18999999999997 192.55999999999997 C 207.44999999999996 185.01999999999998 210.17999999999998 178.80999999999997 211.30999999999997 171.77999999999997 C 211.45999999999998 170.81999999999996 211.58999999999997 169.86999999999998 211.68999999999997 168.92999999999998 C 212.18999999999997 167.12999999999997 213.15999999999997 165.46999999999997 214.19999999999996 163.71999999999997 C 214.54999999999995 163.12999999999997 214.90999999999997 162.51999999999998 215.24999999999997 161.90999999999997 C 218.63999999999996 155.75999999999996 222.87999999999997 149.04999999999995 228.80999999999997 145.19999999999996 C 229.32999999999998 145.60999999999996 229.92 145.89999999999995 230.57999999999998 146.05999999999997 C 230.95 146.14999999999998 231.32999999999998 146.19999999999996 231.7 146.19999999999996 C 233.79999999999998 146.19999999999996 235.72 144.76999999999995 236.23999999999998 142.63999999999996 C 236.85999999999999 140.12999999999997 235.32 137.59999999999997 232.80999999999997 136.97999999999996 C 231.59999999999997 136.67999999999995 230.33999999999997 136.86999999999995 229.26999999999998 137.51999999999995 C 228.2 138.16999999999996 227.45 139.18999999999994 227.14999999999998 140.40999999999994 C 226.92999999999998 141.29999999999993 226.98 142.21999999999994 227.27999999999997 143.05999999999995 C 220.91999999999996 147.22999999999993 216.47999999999996 154.22999999999993 212.93999999999997 160.63999999999993 C 212.63999999999996 161.17999999999992 212.31999999999996 161.71999999999994 211.98999999999998 162.27999999999992 C 211.89 156.92999999999992 210.92999999999998 151.86999999999992 209.2 147.36999999999992 L 209.32 147.36999999999992 C 209.32999999999998 145.83999999999992 209.94 143.8799999999999 211.04999999999998 141.8499999999999 C 212.88 138.4699999999999 215.55999999999997 135.2199999999999 218.36999999999998 132.9199999999999 C 218.95999999999998 133.5399999999999 219.73 133.99999999999991 220.61999999999998 134.2199999999999 C 220.98999999999998 134.30999999999992 221.36999999999998 134.3599999999999 221.74999999999997 134.3599999999999 C 222.58999999999997 134.3599999999999 223.41999999999996 134.1299999999999 224.15999999999997 133.6799999999999 C 225.22999999999996 133.0299999999999 225.97999999999996 132.0099999999999 226.27999999999997 130.7899999999999 C 226.57999999999998 129.5699999999999 226.39 128.3199999999999 225.73999999999998 127.2499999999999 C 225.08999999999997 126.17999999999991 224.07 125.42999999999991 222.85 125.1299999999999 C 220.34 124.50999999999989 217.81 126.0499999999999 217.19 128.5599999999999 C 217.03 129.22999999999988 217.02 129.8999999999999 217.14 130.5299999999999 C 213.88 133.0799999999999 210.85 136.68999999999988 208.73 140.5899999999999 C 208.29 141.3999999999999 207.81 142.3999999999999 207.42999999999998 143.4999999999999 C 206.37999999999997 141.5299999999999 205.15999999999997 139.69999999999987 203.77999999999997 138.0499999999999 C 204.00999999999996 137.6599999999999 204.19999999999996 137.2299999999999 204.30999999999997 136.7599999999999 L 204.30999999999997 136.7599999999999 C 204.92999999999998 134.24999999999991 203.39 131.7199999999999 200.87999999999997 131.0999999999999 C 199.66999999999996 130.7999999999999 198.40999999999997 130.9899999999999 197.33999999999997 131.6399999999999 C 196.26999999999998 132.2899999999999 195.51999999999998 133.3099999999999 195.21999999999997 134.5299999999999 C 194.91999999999996 135.7399999999999 195.10999999999996 136.9999999999999 195.75999999999996 138.06999999999988 C 196.40999999999997 139.13999999999987 197.42999999999995 139.88999999999987 198.64999999999995 140.18999999999988 C 199.01999999999995 140.2799999999999 199.39999999999995 140.32999999999987 199.76999999999995 140.32999999999987 C 200.49999999999994 140.32999999999987 201.20999999999995 140.14999999999986 201.83999999999995 139.83999999999986 C 207.63999999999996 146.82999999999987 210.26999999999995 157.20999999999987 209.08999999999995 168.46999999999986 C 209.06999999999994 168.53999999999985 209.04999999999995 168.59999999999985 209.02999999999994 168.66999999999985 L 209.06999999999994 168.66999999999985 C 208.96999999999994 169.56999999999985 208.84999999999994 170.47999999999985 208.70999999999992 171.37999999999985 C 207.72999999999993 177.48999999999987 205.42999999999992 182.97999999999985 201.11999999999992 189.45999999999987 C 200.36999999999992 186.49999999999986 198.51999999999992 183.72999999999988 196.51999999999992 181.63999999999987 C 196.61999999999992 181.39999999999986 196.70999999999992 181.15999999999988 196.76999999999992 180.90999999999988 C 197.38999999999993 178.3999999999999 195.84999999999994 175.8699999999999 193.33999999999992 175.2499999999999 C 192.1299999999999 174.94999999999987 190.86999999999992 175.13999999999987 189.79999999999993 175.78999999999988 C 188.72999999999993 176.43999999999988 187.97999999999993 177.45999999999987 187.67999999999992 178.67999999999986 C 187.05999999999992 181.18999999999986 188.5999999999999 183.71999999999986 191.10999999999993 184.33999999999986 C 191.47999999999993 184.42999999999986 191.85999999999993 184.47999999999985 192.22999999999993 184.47999999999985 C 193.15999999999994 184.47999999999985 194.05999999999995 184.18999999999986 194.81999999999994 183.68999999999986 C 197.47999999999993 186.52999999999986 198.99999999999994 189.89999999999986 198.81999999999994 192.65999999999985 C 196.80999999999995 195.09999999999985 194.26999999999992 197.25999999999985 191.09999999999994 199.21999999999986 C 190.03999999999994 199.28999999999985 188.96999999999994 199.31999999999985 187.88999999999993 199.31999999999985 C 184.21999999999994 199.31999999999985 180.62999999999994 198.92999999999986 177.16999999999993 198.19999999999985 C 177.25999999999993 198.01999999999984 177.34999999999994 197.84999999999985 177.43999999999994 197.66999999999985 C 180.14999999999995 192.43999999999986 182.70999999999995 187.49999999999986 178.63999999999993 180.73999999999984 C 177.90999999999994 179.52999999999983 176.85999999999993 178.20999999999984 175.57999999999993 177.13999999999984 C 184.73999999999992 176.19999999999985 196.66999999999993 172.41999999999985 202.20999999999992 159.89999999999984 C 204.23999999999992 159.81999999999982 206.06999999999994 158.41999999999985 206.57999999999993 156.34999999999982 C 207.19999999999993 153.83999999999983 205.65999999999994 151.30999999999983 203.14999999999992 150.68999999999983 C 201.9399999999999 150.38999999999982 200.67999999999992 150.5799999999998 199.60999999999993 151.22999999999982 C 198.53999999999994 151.87999999999982 197.78999999999994 152.8999999999998 197.48999999999992 154.1199999999998 C 197.1899999999999 155.3399999999998 197.3799999999999 156.5899999999998 198.02999999999992 157.6599999999998 C 198.42999999999992 158.3199999999998 198.9699999999999 158.8599999999998 199.61999999999992 159.2399999999998 C 193.36999999999992 172.7199999999998 178.60999999999993 174.78999999999982 170.16999999999993 174.78999999999982 L 170.16999999999993 174.81999999999982 C 168.49999999999994 174.5499999999998 166.84999999999994 174.4599999999998 165.23999999999992 174.36999999999983 C 164.76999999999992 174.33999999999983 164.28999999999994 174.31999999999982 163.80999999999992 174.27999999999983 C 161.04999999999993 174.09999999999982 158.9399999999999 173.42999999999984 157.52999999999992 172.29999999999984 C 155.8499999999999 170.94999999999985 155.92999999999992 168.55999999999983 156.26999999999992 166.16999999999985 C 156.28999999999994 166.01999999999984 156.31999999999994 165.86999999999983 156.34999999999994 165.71999999999986 C 156.44999999999993 165.16999999999985 156.56999999999994 164.53999999999985 156.45999999999995 163.84999999999985 C 156.39999999999995 163.43999999999986 156.27999999999994 163.08999999999986 156.17999999999995 162.76999999999984 C 156.07999999999996 162.47999999999985 155.99999999999994 162.21999999999983 155.98999999999995 162.00999999999985 C 155.93999999999994 160.94999999999985 156.40999999999994 159.88999999999984 156.91999999999996 158.72999999999985 C 157.58999999999995 157.22999999999985 157.11999999999995 156.10999999999984 156.77999999999997 155.28999999999985 C 156.62999999999997 154.91999999999985 156.49999999999997 154.60999999999984 156.44999999999996 154.25999999999985 C 156.37999999999997 153.79999999999984 156.58999999999995 153.48999999999984 157.14999999999995 152.77999999999986 C 157.46999999999994 152.36999999999986 157.83999999999995 151.90999999999985 158.10999999999996 151.33999999999986 C 159.09999999999997 149.20999999999987 158.32999999999996 146.55999999999986 157.05999999999995 145.02999999999986 C 156.62999999999994 144.51999999999987 156.14999999999995 144.14999999999986 155.71999999999994 143.82999999999987 C 155.08999999999995 143.34999999999988 154.72999999999993 143.05999999999986 154.57999999999996 142.56999999999988 C 154.16999999999996 141.20999999999987 156.65999999999997 139.2499999999999 157.84999999999997 138.3099999999999 L 158.06999999999996 138.1399999999999 C 160.72999999999996 136.0299999999999 162.81999999999996 134.0499999999999 164.35999999999996 131.2199999999999 C 165.85999999999996 128.45999999999992 166.36999999999995 125.38999999999992 166.84999999999997 122.42999999999992 C 166.93999999999997 121.87999999999992 167.02999999999997 121.33999999999992 167.12999999999997 120.79999999999993 C 167.37999999999997 119.36999999999992 167.81999999999996 118.00999999999992 168.41999999999996 116.72999999999993 C 168.52999999999997 116.79999999999993 168.62999999999997 116.85999999999993 168.72999999999996 116.91999999999993 C 168.91999999999996 117.02999999999993 169.09999999999997 117.13999999999993 169.25999999999996 117.24999999999993 C 171.23999999999995 118.65999999999993 172.61999999999998 119.84999999999992 173.71999999999997 121.08999999999993 C 176.67999999999998 124.42999999999994 178.98999999999998 127.44999999999993 180.60999999999996 131.32999999999993 C 182.20999999999995 135.15999999999994 182.65999999999997 139.2199999999999 182.77999999999994 142.89999999999992 C 182.42999999999995 143.00999999999993 182.08999999999995 143.1599999999999 181.76999999999995 143.3499999999999 C 180.69999999999996 143.99999999999991 179.94999999999996 145.0199999999999 179.64999999999995 146.2399999999999 C 179.02999999999994 148.7499999999999 180.56999999999994 151.2799999999999 183.07999999999996 151.8999999999999 C 183.44999999999996 151.9899999999999 183.82999999999996 152.03999999999988 184.19999999999996 152.03999999999988 C 186.29999999999995 152.03999999999988 188.21999999999997 150.60999999999987 188.73999999999995 148.47999999999988 C 189.03999999999996 147.26999999999987 188.84999999999997 146.00999999999988 188.19999999999996 144.93999999999988 C 187.56999999999996 143.8999999999999 186.58999999999995 143.15999999999988 185.41999999999996 142.84999999999988 C 185.32999999999996 139.78999999999988 185.00999999999996 136.46999999999989 184.04999999999995 133.16999999999987 C 184.45999999999995 131.96999999999989 184.92999999999995 130.64999999999986 185.52999999999994 129.50999999999988 C 186.82999999999996 127.01999999999988 188.53999999999994 124.69999999999987 190.60999999999996 122.59999999999988 C 190.92999999999995 122.27999999999989 191.27999999999994 121.92999999999988 191.66999999999996 121.55999999999987 C 192.27999999999997 122.21999999999987 193.07999999999996 122.68999999999987 193.96999999999997 122.90999999999987 C 194.33999999999997 122.99999999999987 194.71999999999997 123.04999999999987 195.09999999999997 123.04999999999987 C 195.93999999999997 123.04999999999987 196.76999999999995 122.81999999999987 197.50999999999996 122.36999999999986 C 198.57999999999996 121.71999999999986 199.32999999999996 120.69999999999986 199.62999999999997 119.47999999999986 C 200.24999999999997 116.96999999999986 198.70999999999998 114.43999999999986 196.19999999999996 113.81999999999987 C 193.68999999999997 113.19999999999986 191.15999999999997 114.73999999999987 190.53999999999996 117.24999999999987 C 190.38999999999996 117.85999999999987 190.35999999999996 118.47999999999988 190.45999999999995 119.08999999999988 C 189.80999999999995 119.67999999999988 189.22999999999996 120.25999999999988 188.73999999999995 120.74999999999987 C 186.48999999999995 123.02999999999987 184.61999999999995 125.56999999999988 183.19999999999996 128.28999999999988 C 183.00999999999996 128.65999999999988 182.82999999999996 129.04999999999987 182.65999999999997 129.43999999999988 C 180.80999999999997 125.40999999999988 178.24999999999997 122.20999999999988 175.71999999999997 119.34999999999988 C 174.47999999999996 117.94999999999987 172.96999999999997 116.64999999999988 170.81999999999996 115.10999999999989 C 170.59999999999997 114.94999999999989 170.35999999999996 114.80999999999989 170.12999999999997 114.66999999999989 C 170.00999999999996 114.5999999999999 169.86999999999998 114.50999999999989 169.74999999999997 114.4299999999999 C 172.96999999999997 109.6299999999999 178.61999999999998 106.47999999999989 184.96999999999997 106.3799999999999 C 192.25999999999996 106.2699999999999 203.92999999999998 111.25999999999989 206.23999999999998 119.1599999999999 C 205.95 119.2699999999999 205.65999999999997 119.39999999999989 205.39 119.5699999999999 C 204.32 120.2199999999999 203.57 121.2399999999999 203.26999999999998 122.44999999999989 C 202.64999999999998 124.9599999999999 204.18999999999997 127.4899999999999 206.7 128.1099999999999 C 207.07 128.1999999999999 207.45 128.2499999999999 207.82999999999998 128.2499999999999 C 208.67 128.2499999999999 209.49999999999997 128.0199999999999 210.23999999999998 127.56999999999988 C 211.30999999999997 126.91999999999987 212.05999999999997 125.89999999999988 212.35999999999999 124.67999999999988 C 212.66 123.46999999999989 212.47 122.20999999999988 211.82 121.13999999999987 C 211.17 120.06999999999988 210.15 119.31999999999988 208.94 119.01999999999987 C 206.67 109.56999999999987 193.74 103.72999999999988 185.23 103.72999999999988 C 185.13 103.72999999999988 185.03 103.72999999999988 184.92999999999998 103.72999999999988 C 174.80999999999997 103.89999999999988 166.24999999999997 110.87999999999988 164.57999999999998 120.32999999999987 C 164.48 120.87999999999987 164.39 121.43999999999987 164.29999999999998 121.99999999999987 C 163.85 124.74999999999987 163.38 127.58999999999988 162.08999999999997 129.95999999999987 C 160.75999999999996 132.39999999999986 158.95999999999998 134.10999999999987 156.47999999999996 136.07999999999987 L 156.26999999999995 136.24999999999986 C 154.48999999999995 137.64999999999986 151.17999999999995 140.25999999999985 152.09999999999997 143.32999999999987 C 152.49999999999997 144.66999999999987 153.42999999999998 145.36999999999986 154.16999999999996 145.92999999999986 C 154.51999999999995 146.18999999999986 154.83999999999995 146.43999999999986 155.07999999999996 146.71999999999986 C 155.89999999999995 147.69999999999985 156.20999999999995 149.26999999999987 155.75999999999996 150.21999999999986 C 155.61999999999998 150.50999999999985 155.37999999999997 150.81999999999985 155.12999999999997 151.13999999999984 C 154.50999999999996 151.92999999999984 153.64999999999998 153.00999999999985 153.88999999999996 154.63999999999984 C 153.98999999999995 155.31999999999985 154.21999999999997 155.85999999999984 154.39999999999995 156.29999999999984 C 154.68999999999994 156.98999999999984 154.75999999999996 157.20999999999984 154.54999999999995 157.68999999999983 C 153.97999999999996 158.97999999999982 153.32999999999996 160.44999999999982 153.40999999999997 162.12999999999982 C 153.43999999999997 162.70999999999984 153.59999999999997 163.20999999999984 153.73999999999998 163.59999999999982 C 153.82 163.83999999999983 153.89 164.0499999999998 153.90999999999997 164.21999999999983 C 153.94999999999996 164.47999999999982 153.87999999999997 164.84999999999982 153.80999999999997 165.23999999999984 C 153.77999999999997 165.42999999999984 153.73999999999998 165.60999999999984 153.71999999999997 165.79999999999984 C 153.45999999999998 167.61999999999983 152.85999999999996 171.88999999999984 155.93999999999997 174.35999999999984 C 157.80999999999997 175.85999999999984 160.33999999999997 176.68999999999986 163.68999999999997 176.90999999999985 C 164.17999999999998 176.93999999999986 164.65999999999997 176.96999999999986 165.13999999999996 176.99999999999986 C 167.26999999999995 177.11999999999986 169.27999999999994 177.23999999999987 171.28999999999996 177.71999999999986 C 173.43999999999997 178.22999999999985 175.40999999999997 180.40999999999985 176.42999999999995 182.10999999999984 C 179.73999999999995 187.60999999999984 177.80999999999995 191.32999999999984 175.14999999999995 196.47999999999985 C 174.95999999999995 196.83999999999986 174.76999999999995 197.20999999999984 174.57999999999996 197.58999999999986 C 152.53999999999996 191.68999999999986 136.26999999999995 171.54999999999987 136.26999999999995 147.67999999999986 C 136.26999999999995 119.18999999999987 159.44999999999996 96.00999999999986 187.93999999999994 96.00999999999986 C 216.42999999999992 96.00999999999986 239.60999999999996 119.18999999999986 239.60999999999996 147.67999999999986 C 239.60999999999996 160.92999999999986 234.59999999999997 173.02999999999986 226.36999999999995 182.17999999999986 C 226.69999999999996 180.45999999999987 226.86999999999995 178.86999999999986 226.87999999999994 177.34999999999985 C 226.87999999999994 175.41999999999985 226.75999999999993 172.74999999999986 226.18999999999994 170.07999999999984 Z M 229.71 141 C 229.84 140.47 230.17000000000002 140.02 230.64000000000001 139.74 C 230.96 139.54000000000002 231.33 139.44 231.69000000000003 139.44 C 231.85000000000002 139.44 232.02000000000004 139.46 232.18000000000004 139.5 C 233.27000000000004 139.77 233.95000000000005 140.88 233.68000000000004 141.97 C 233.41000000000003 143.06 232.30000000000004 143.73 231.21000000000004 143.47 C 230.68000000000004 143.34 230.23000000000005 143.01 229.95000000000005 142.54 C 229.67000000000004 142.07 229.58000000000004 141.51999999999998 229.71000000000004 140.98999999999998 Z M 219.75 129.16 C 219.98 128.23 220.82 127.6 221.74 127.6 C 221.9 127.6 222.06 127.61999999999999 222.23000000000002 127.66 C 222.76000000000002 127.78999999999999 223.21 128.12 223.49 128.59 C 223.77 129.06 223.86 129.61 223.73000000000002 130.14000000000001 C 223.60000000000002 130.67000000000002 223.27 131.12 222.8 131.4 C 222.33 131.68 221.78 131.77 221.25 131.64000000000001 C 220.16 131.37 219.48 130.26000000000002 219.75 129.17000000000002 Z M 199.28 137.6 C 198.75 137.47 198.3 137.14 198.02 136.67 C 197.74 136.2 197.65 135.64999999999998 197.78 135.11999999999998 C 197.91 134.58999999999997 198.24 134.14 198.71 133.85999999999999 C 199.03 133.66 199.4 133.55999999999997 199.76000000000002 133.55999999999997 C 199.92000000000002 133.55999999999997 200.09000000000003 133.57999999999998 200.25000000000003 133.61999999999998 C 201.34000000000003 133.89 202.02000000000004 134.99999999999997 201.75000000000003 136.08999999999997 C 201.48000000000002 137.17999999999998 200.37000000000003 137.85999999999999 199.28000000000003 137.58999999999997 Z M 191.73 181.74 C 190.64 181.47 189.95999999999998 180.36 190.23 179.27 C 190.35999999999999 178.74 190.69 178.29000000000002 191.16 178.01000000000002 C 191.48 177.81000000000003 191.85 177.71 192.21 177.71 C 192.37 177.71 192.54000000000002 177.73000000000002 192.70000000000002 177.77 C 193.79000000000002 178.04000000000002 194.47000000000003 179.15 194.20000000000002 180.24 C 194.17000000000002 180.36 194.13000000000002 180.48000000000002 194.08 180.59 C 193.68 181.49 192.69000000000003 181.97 191.73000000000002 181.74 Z M 201.56 157.16 C 200.47 156.89 199.79 155.78 200.06 154.69 C 200.19 154.16 200.52 153.71 200.99 153.43 C 201.31 153.23000000000002 201.68 153.13 202.04000000000002 153.13 C 202.20000000000002 153.13 202.37000000000003 153.15 202.53000000000003 153.19 C 203.62000000000003 153.46 204.30000000000004 154.57 204.03000000000003 155.66 C 203.76000000000002 156.75 202.65000000000003 157.43 201.56000000000003 157.16 Z M 185.92 146.22 C 186.2 146.69 186.29 147.24 186.16 147.77 C 185.89 148.86 184.78 149.54000000000002 183.69 149.27 C 183.16 149.14000000000001 182.71 148.81 182.43 148.34 C 182.15 147.87 182.06 147.32 182.19 146.79 C 182.32 146.26 182.65 145.81 183.12 145.53 C 183.44 145.33 183.81 145.23 184.17000000000002 145.23 C 184.33 145.23 184.50000000000003 145.25 184.66000000000003 145.29 C 185.19000000000003 145.42 185.64000000000001 145.75 185.92000000000002 146.22 Z M 193.07 117.79 C 193.29999999999998 116.86 194.14 116.23 195.06 116.23 C 195.22 116.23 195.38 116.25 195.55 116.29 C 196.08 116.42 196.53 116.75 196.81 117.22000000000001 C 197.09 117.69000000000001 197.18 118.24000000000001 197.05 118.77000000000001 C 196.92000000000002 119.30000000000001 196.59 119.75000000000001 196.12 120.03000000000002 C 195.65 120.31000000000002 195.1 120.40000000000002 194.57 120.27000000000001 C 194.04 120.14000000000001 193.59 119.81000000000002 193.31 119.34 C 193.03 118.87 192.94 118.32000000000001 193.07 117.79 Z M 209.51 122.42 C 209.79 122.89 209.88 123.44 209.75 123.97 L 209.75 123.97 C 209.62 124.5 209.29 124.95 208.82 125.23 C 208.35 125.51 207.79999999999998 125.60000000000001 207.26999999999998 125.47 C 206.17999999999998 125.2 205.49999999999997 124.09 205.76999999999998 123 C 205.89999999999998 122.47 206.23 122.02 206.7 121.74 C 207.01999999999998 121.53999999999999 207.39 121.44 207.75 121.44 C 207.91 121.44 208.08 121.46 208.24 121.5 C 208.77 121.63 209.22 121.96 209.5 122.43 Z" stroke-linecap="round" />
</g>
</g>
</g>
<g transform="matrix(1.9211538461538462 0 0 1.9211538461538462 803.2104291479275 478.046282966909)" id="text-logo"  >
<g style=""  paint-order="stroke"   >
		<g transform="matrix(1 0 0 1 0 0)" id="text-logo-path-0"  >
<path style="stroke: rgb(98,39,116); stroke-width: 2.133333333333333; stroke-dasharray: none; stroke-linecap: butt; stroke-dashoffset: 0; stroke-linejoin: miter; stroke-miterlimit: 4; fill: rgb(0,0,0); fill-rule: nonzero; opacity: 1;"  paint-order="stroke"  transform=" translate(-202.12, 27.880000000000003)" d="M 29.36 0 L 3.52 0 Q 3.2 0 3.2 -0.4 L 3.2 -0.4 L 3.28 -55.36 Q 3.28 -55.68 3.6 -55.68 L 3.6 -55.68 L 29.28 -55.68 Q 29.6 -55.68 29.6 -55.28 L 29.6 -55.28 L 29.6 -46.32 Q 29.6 -46 29.28 -46 L 29.28 -46 L 12.88 -46 L 12.88 -33.52 L 29.28 -33.52 Q 29.6 -33.52 29.6 -33.2 L 29.6 -33.2 L 29.68 -24.16 Q 29.68 -23.84 29.36 -23.84 L 29.36 -23.84 L 12.88 -23.84 L 12.88 -9.84 L 29.36 -9.84 Q 29.68 -9.84 29.68 -9.44 L 29.68 -9.44 L 29.68 -0.32 Q 29.68 0 29.36 0 L 29.36 0 Z M 79.52 0 L 53.68 0 Q 53.36 0 53.36 -0.4 L 53.36 -0.4 L 53.44 -55.28 Q 53.44 -55.68 53.84 -55.68 L 53.84 -55.68 L 62.72 -55.68 Q 63.12 -55.68 63.12 -55.28 L 63.12 -55.28 L 63.04 -9.84 L 79.52 -9.84 Q 79.92 -9.84 79.92 -9.44 L 79.92 -9.44 L 79.92 -0.4 Q 79.92 0 79.52 0 L 79.52 0 Z M 111.12 0 L 102.08 0 Q 101.68 0 101.68 -0.4 L 101.68 -0.4 L 101.76 -55.36 Q 101.76 -55.68 102.08 -55.68 L 102.08 -55.68 L 111.04 -55.68 Q 111.36 -55.68 111.36 -55.36 L 111.36 -55.36 L 111.44 -0.4 Q 111.44 0 111.12 0 L 111.12 0 Z M 149.84 0.8 L 149.84 0.8 Q 145.52 0.8 141.96 -1.4 Q 138.4 -3.6 136.24 -7.24 Q 134.08 -10.88 134.08 -15.28 L 134.08 -15.28 L 134.16 -40.64 Q 134.16 -45.04 136.28 -48.64 Q 138.4 -52.24 142 -54.4 Q 145.6 -56.56 149.84 -56.56 L 149.84 -56.56 Q 154.16 -56.56 157.68 -54.4 Q 161.2 -52.24 163.32 -48.64 Q 165.44 -45.04 165.44 -40.64 L 165.44 -40.64 L 165.52 -15.28 Q 165.52 -10.88 163.4 -7.24 Q 161.28 -3.6 157.72 -1.4 Q 154.16 0.8 149.84 0.8 Z M 149.84 -8.88 L 149.84 -8.88 Q 152.24 -8.88 154.04 -10.84 Q 155.84 -12.8 155.84 -15.28 L 155.84 -15.28 L 155.76 -40.64 Q 155.76 -43.28 154.08 -45.12 Q 152.4 -46.96 149.84 -46.96 L 149.84 -46.96 Q 147.36 -46.96 145.6 -45.16 Q 143.84 -43.36 143.84 -40.64 L 143.84 -40.64 L 143.84 -15.28 Q 143.84 -12.64 145.6 -10.76 Q 147.36 -8.88 149.84 -8.88 Z M 196.88 0 L 188.88 0 Q 188.24 0 188.24 -0.56 L 188.24 -0.56 L 188.16 -55.04 Q 188.16 -55.68 188.8 -55.68 L 188.8 -55.68 L 196 -55.68 L 209.52 -24.16 L 209.12 -55.04 Q 209.12 -55.68 209.84 -55.68 L 209.84 -55.68 L 217.76 -55.68 Q 218.24 -55.68 218.24 -55.04 L 218.24 -55.04 L 218.32 -0.48 Q 218.32 0 217.92 0 L 217.92 0 L 210.88 0 L 197.04 -29.44 L 197.6 -0.64 Q 197.6 0 196.88 0 L 196.88 0 Z M 296.4 0 L 270.56 0 Q 270.24 0 270.24 -0.4 L 270.24 -0.4 L 270.32 -55.28 Q 270.32 -55.68 270.72 -55.68 L 270.72 -55.68 L 279.6 -55.68 Q 280 -55.68 280 -55.28 L 280 -55.28 L 279.92 -9.84 L 296.4 -9.84 Q 296.8 -9.84 296.8 -9.44 L 296.8 -9.44 L 296.8 -0.4 Q 296.8 0 296.4 0 L 296.4 0 Z M 315.84 -0.4 L 315.84 -0.4 L 325.76 -55.36 Q 325.84 -55.68 326.16 -55.68 L 326.16 -55.68 L 337.76 -55.68 Q 338.08 -55.68 338.16 -55.36 L 338.16 -55.36 L 347.68 -0.4 Q 347.76 0 347.36 0 L 347.36 0 L 338.48 0 Q 338.16 0 338.08 -0.4 L 338.08 -0.4 L 337.2 -6.24 L 326.32 -6.24 L 325.44 -0.4 Q 325.36 0 325.04 0 L 325.04 0 L 316.16 0 Q 315.84 0 315.84 -0.4 Z M 331.52 -37.28 L 327.92 -14.8 L 335.6 -14.8 L 332.32 -37.28 L 331.84 -40.24 L 331.52 -37.28 Z M 383.92 0 L 369.6 0 Q 369.28 0 369.28 -0.4 L 369.28 -0.4 L 369.44 -55.36 Q 369.44 -55.68 369.76 -55.68 L 369.76 -55.68 L 385.12 -55.68 Q 389.68 -55.68 393.28 -53.48 Q 396.88 -51.28 398.96 -47.68 Q 401.04 -44.08 401.04 -39.84 L 401.04 -39.84 Q 401.04 -36.4 399.48 -33.44 Q 397.92 -30.48 395.76 -28.64 L 395.76 -28.64 Q 398.08 -26.32 399.36 -23.28 Q 400.64 -20.24 400.64 -16.88 L 400.64 -16.88 Q 400.64 -12.24 398.4 -8.4 Q 396.16 -4.56 392.36 -2.28 Q 388.56 0 383.92 0 L 383.92 0 Z M 379.04 -46.16 L 379.04 -33.6 L 385.12 -33.6 Q 387.92 -33.6 389.64 -35.56 Q 391.36 -37.52 391.36 -39.84 L 391.36 -39.84 Q 391.36 -42.4 389.52 -44.28 Q 387.68 -46.16 385.12 -46.16 L 385.12 -46.16 L 379.04 -46.16 Z M 379.04 -23.92 L 378.96 -9.76 L 383.92 -9.76 Q 386.8 -9.76 388.88 -11.88 Q 390.96 -14 390.96 -16.88 L 390.96 -16.88 Q 390.96 -19.76 388.88 -21.84 Q 386.8 -23.92 383.92 -23.92 L 383.92 -23.92 L 379.04 -23.92 Z" stroke-linecap="round" />
</g>
</g>
</g>
<g transform="matrix(1.9211538461538462 0 0 1.9211538461538462 802.9654445100068 595.821402245336)" id="tagline-7e62f813-0663-4b9d-bd96-3df1dc617582-logo"  >
<g style=""  paint-order="stroke"   >
		<g transform="matrix(1 0 0 1 0 0)" id="tagline-7e62f813-0663-4b9d-bd96-3df1dc617582-logo-path-0"  >
<filter id="SVGID_161535" y="-125.67041058067599%" height="351.340821161352%" x="-26.525264878393273%" width="153.05052975678655%" >
	<feGaussianBlur in="SourceAlpha" stdDeviation="13.478260869565222"></feGaussianBlur>
	<feOffset dx="0" dy="0" result="oBlur" ></feOffset>
	<feFlood flood-color="rgb(228,156,180)" flood-opacity="1"/>
	<feComposite in2="oBlur" operator="in" />
	<feMerge>
		<feMergeNode></feMergeNode>
		<feMergeNode in="SourceGraphic"></feMergeNode>
	</feMerge>
</filter>
<path style="stroke: rgb(255,255,255); stroke-width: 0; stroke-dasharray: none; stroke-linecap: butt; stroke-dashoffset: 0; stroke-linejoin: miter; stroke-miterlimit: 4; fill: rgb(0,0,0); fill-rule: nonzero; opacity: 1;filter: url(#SVGID_161535);"  paint-order="stroke"  transform=" translate(-208.41500000000002, 6.6850000000000005)" d="M 1.95 -1.33 C 1.95 -0.71 2.29 -0.35 2.95 -0.21 C 3.54 -0.08 5.19 0 7.87 0 L 8.22 0 L 8.55 0.03 L 11.25 0.03 C 12.35 0.03 13.11 -0.09 13.52 -0.32 C 13.93 -0.54 14.14 -1 14.14 -1.68 L 14.14 -1.98 C 14.12 -2.79 13.82 -3.19 13.23 -3.19 C 13.03 -3.19 12.68 -3.1 12.22 -2.92 C 11.29 -2.56 10.67 -2.19 8.81 -2.19 C 7.86 -2.19 7.16 -2.26 6.74 -2.36 C 6.31 -2.47 6.02 -2.75 5.86 -3.22 C 5.68 -3.66 5.59 -5.65 5.59 -9.2 C 5.59 -12.71 5.63 -14.7 5.74 -15.15 C 5.87 -15.62 5.99 -16.01 6.1 -16.33 C 6.21 -16.68 6.3 -16.95 6.3 -17.15 C 6.3 -18.18 5.31 -18.69 3.94 -18.69 L 3.63 -18.69 C 2.59 -18.69 1.86 -18.22 1.86 -17.51 C 1.86 -17.15 1.97 -16.74 2.16 -16.24 C 2.39 -15.76 2.47 -15.33 2.54 -14.97 C 2.59 -14.65 2.57 -13.46 2.57 -11.35 L 2.57 -7.07 L 2.54 -5.06 C 2.54 -3.89 2.54 -3.09 2.13 -2.01 C 2.01 -1.68 1.95 -1.45 1.95 -1.33 Z M 27.38 -1.03 C 27.38 -1.32 27.28 -1.65 27.05 -2.01 C 26.79 -2.39 26.64 -2.79 26.58 -3.19 C 26.52 -3.57 26.49 -4.56 26.49 -6.18 C 26.49 -9.02 26.23 -10.82 25.72 -11.59 C 25.01 -12.7 23.61 -13.43 21.87 -13.43 L 21.19 -13.43 C 18.86 -13.43 16.73 -12.34 16.73 -11.35 C 16.73 -10.57 17.01 -10.17 17.59 -10.17 C 17.91 -10.17 18.5 -10.38 19.36 -10.82 C 20.18 -11.23 20.92 -11.44 21.58 -11.44 C 22.87 -11.44 23.67 -10.6 23.67 -9.4 C 23.67 -8.82 23.46 -8.42 23.02 -8.19 C 22.98 -8.17 22.02 -7.98 20.16 -7.6 C 17.32 -7.07 15.89 -5.68 15.89 -3.41 C 15.89 -1.21 17.54 0.15 19.45 0.15 L 19.77 0.15 C 20.4 0.17 21.13 0.02 21.93 -0.3 C 22.74 -0.62 23.22 -0.77 23.39 -0.77 C 23.55 -0.77 23.92 -0.67 24.45 -0.47 C 25.04 -0.21 25.4 -0.12 25.6 -0.12 C 26.79 -0.14 27.38 -0.44 27.38 -1.03 Z M 21.07 -1.65 L 20.66 -1.65 C 20.03 -1.65 19.54 -1.85 19.19 -2.24 C 18.85 -2.62 18.68 -3.06 18.68 -3.53 L 18.68 -4 C 18.68 -4.65 18.94 -5.19 19.47 -5.65 C 20 -6.1 20.66 -6.33 21.49 -6.33 L 22.55 -6.42 L 22.96 -6.42 C 23.52 -6.42 23.79 -6.08 23.79 -5.42 L 23.79 -4.9 C 23.79 -2.79 22.77 -1.65 21.07 -1.65 Z M 31.97 -0.38 L 32 -0.38 C 33.07 -0.38 33.92 -0.91 33.92 -1.65 L 33.8 -4.06 C 33.8 -6.75 34.03 -8.55 34.48 -9.46 C 34.97 -10.54 35.93 -10.94 36.89 -10.94 C 37.89 -10.94 38.58 -10.46 38.98 -9.49 C 39.42 -8.23 39.72 -5.93 39.72 -2.42 L 39.69 -1.92 C 39.69 -0.94 40.14 -0.56 41.17 -0.56 C 42.37 -0.56 42.97 -0.95 42.97 -1.74 C 42.96 -1.94 42.85 -2.32 42.66 -2.85 C 42.25 -3.94 42.31 -4.96 42.23 -5.8 L 42.17 -7.25 C 42.06 -8.99 41.87 -10.13 41.67 -10.79 C 41.17 -12.02 40.08 -12.81 38.75 -12.81 L 38.39 -12.81 C 37.25 -12.81 36.19 -12.26 35.4 -11.9 C 35.01 -11.72 34.74 -11.63 34.6 -11.63 C 34.47 -11.63 34.1 -11.78 33.51 -12.09 C 32.94 -12.4 32.38 -12.55 31.82 -12.55 C 31.26 -12.56 30.97 -12.41 30.97 -12.09 L 31.09 -10.7 C 31.09 -10.47 31.11 -10.2 31.06 -9.73 L 31.06 -6.54 C 31.06 -4.44 31.09 -3.65 30.7 -2.66 C 30.53 -2.13 30.44 -1.71 30.44 -1.42 C 30.46 -0.73 30.95 -0.38 31.97 -0.38 Z M 50.74 6.07 C 52.49 6.07 53.92 5.6 55.02 4.66 C 56.11 3.72 56.66 2.32 56.66 0.44 L 56.51 -2.66 C 56.51 -3.62 56.6 -4.93 56.72 -6.75 C 56.84 -8.55 56.9 -9.54 56.9 -9.7 L 56.9 -10.38 C 56.9 -11.58 56.32 -12.22 55.54 -12.22 L 55.14 -12.22 C 54.72 -12.22 54.23 -12.31 53.52 -12.55 C 52.84 -12.81 52.19 -12.93 51.57 -12.93 C 47.94 -12.93 46.03 -10.31 46.03 -6.92 L 46.03 -6.54 C 46.03 -3.24 47.79 -0.18 51.45 -0.18 C 52.16 -0.18 52.69 -0.21 53.07 -0.27 L 53.72 -0.35 C 54.1 -0.35 54.3 -0.14 54.3 0.3 C 54.3 2.54 52.89 3.78 50.65 3.78 C 50.3 3.78 49.91 3.74 49.44 3.66 C 48.97 3.59 48.57 3.53 48.29 3.53 C 47.44 3.54 47.01 3.81 47.01 4.37 C 47.01 5.24 48.85 6.07 50.74 6.07 Z M 48.29 -6.07 L 48.29 -6.63 C 48.29 -7.99 48.6 -9.07 49.24 -9.87 C 49.86 -10.67 50.68 -11.06 51.66 -11.06 L 52.01 -11.06 C 53.21 -11.06 54.02 -10.2 54.02 -8.7 L 54.05 -8.22 L 54.05 -7.81 L 54.08 -7.66 L 54.08 -6.98 L 54.05 -6.3 C 54.05 -4.33 53.75 -1.95 51.27 -1.95 L 50.8 -1.95 C 49.22 -1.95 48.29 -3.54 48.29 -6.07 Z M 63.76 -11.93 C 63.56 -12.64 63.07 -12.99 62.33 -12.99 L 61.98 -12.99 C 61.08 -12.99 60.62 -12.75 60.62 -12.25 L 60.62 -11.97 C 60.62 -11.79 60.67 -11.58 60.77 -11.35 C 60.88 -11.03 60.94 -10.88 60.94 -10.88 C 61.06 -10.49 61.12 -9.43 61.12 -7.72 C 61.12 -4.83 61.36 -2.92 61.83 -2.01 C 62.45 -0.82 63.63 -0.12 65.09 -0.12 L 65.47 -0.12 C 66.12 -0.12 66.83 -0.3 67.66 -0.62 C 68.52 -0.94 69.01 -1.09 69.08 -1.09 C 69.22 -1.07 69.49 -0.97 69.93 -0.77 C 70.43 -0.54 70.92 -0.44 71.38 -0.44 C 72.37 -0.44 72.93 -0.89 72.93 -1.36 L 72.93 -1.65 L 72.75 -2.39 C 72.47 -3.48 72.34 -5.31 72.34 -7.9 C 72.34 -10.44 72.28 -11.85 72.16 -12.12 C 72.01 -12.56 71.64 -12.78 71.07 -12.78 C 69.96 -12.78 69.34 -12.46 69.34 -11.63 C 69.34 -11.55 69.39 -11.29 69.46 -10.79 C 69.52 -10.29 69.55 -9.79 69.55 -9.32 L 69.55 -8.61 L 69.52 -7.9 C 69.52 -5.71 69.27 -4.16 68.74 -3.25 C 68.21 -2.35 67.36 -1.89 66.18 -1.89 C 64.26 -1.89 63.91 -3.04 63.91 -7.78 C 63.91 -10.19 63.88 -11.52 63.76 -11.93 Z M 87.02 -1.03 C 87.02 -1.32 86.92 -1.65 86.69 -2.01 C 86.43 -2.39 86.28 -2.79 86.22 -3.19 C 86.16 -3.57 86.13 -4.56 86.13 -6.18 C 86.13 -9.02 85.87 -10.82 85.36 -11.59 C 84.64 -12.7 83.25 -13.43 81.51 -13.43 L 80.83 -13.43 C 78.5 -13.43 76.36 -12.34 76.36 -11.35 C 76.36 -10.57 76.65 -10.17 77.23 -10.17 C 77.55 -10.17 78.14 -10.38 79 -10.82 C 79.82 -11.23 80.56 -11.44 81.22 -11.44 C 82.51 -11.44 83.31 -10.6 83.31 -9.4 C 83.31 -8.82 83.1 -8.42 82.66 -8.19 C 82.62 -8.17 81.66 -7.98 79.8 -7.6 C 76.96 -7.07 75.53 -5.68 75.53 -3.41 C 75.53 -1.21 77.18 0.15 79.09 0.15 L 79.41 0.15 C 80.04 0.17 80.77 0.02 81.57 -0.3 C 82.37 -0.62 82.86 -0.77 83.02 -0.77 C 83.19 -0.77 83.55 -0.67 84.08 -0.47 C 84.67 -0.21 85.04 -0.12 85.23 -0.12 C 86.43 -0.14 87.02 -0.44 87.02 -1.03 Z M 80.71 -1.65 L 80.3 -1.65 C 79.66 -1.65 79.18 -1.85 78.83 -2.24 C 78.48 -2.62 78.32 -3.06 78.32 -3.53 L 78.32 -4 C 78.32 -4.65 78.57 -5.19 79.1 -5.65 C 79.63 -6.1 80.3 -6.33 81.13 -6.33 L 82.19 -6.42 L 82.6 -6.42 C 83.16 -6.42 83.43 -6.08 83.43 -5.42 L 83.43 -4.9 C 83.43 -2.79 82.4 -1.65 80.71 -1.65 Z M 94.92 6.07 C 96.68 6.07 98.1 5.6 99.21 4.66 C 100.3 3.72 100.84 2.32 100.84 0.44 L 100.69 -2.66 C 100.69 -3.62 100.78 -4.93 100.9 -6.75 C 101.02 -8.55 101.08 -9.54 101.08 -9.7 L 101.08 -10.38 C 101.08 -11.58 100.51 -12.22 99.72 -12.22 L 99.33 -12.22 C 98.9 -12.22 98.42 -12.31 97.71 -12.55 C 97.03 -12.81 96.38 -12.93 95.75 -12.93 C 92.12 -12.93 90.21 -10.31 90.21 -6.92 L 90.21 -6.54 C 90.21 -3.24 91.97 -0.18 95.63 -0.18 C 96.35 -0.18 96.88 -0.21 97.25 -0.27 L 97.9 -0.35 C 98.28 -0.35 98.48 -0.14 98.48 0.3 C 98.48 2.54 97.07 3.78 94.83 3.78 C 94.48 3.78 94.09 3.74 93.62 3.66 C 93.15 3.59 92.76 3.53 92.47 3.53 C 91.62 3.54 91.2 3.81 91.2 4.37 C 91.2 5.24 93.03 6.07 94.92 6.07 Z M 92.47 -6.07 L 92.47 -6.63 C 92.47 -7.99 92.79 -9.07 93.42 -9.87 C 94.04 -10.67 94.86 -11.06 95.85 -11.06 L 96.19 -11.06 C 97.39 -11.06 98.21 -10.2 98.21 -8.7 L 98.24 -8.22 L 98.24 -7.81 L 98.27 -7.66 L 98.27 -6.98 L 98.24 -6.3 C 98.24 -4.33 97.93 -1.95 95.45 -1.95 L 94.98 -1.95 C 93.41 -1.95 92.47 -3.54 92.47 -6.07 Z M 110.21 0.18 L 110.79 0.18 C 112.86 0.18 115.31 -1.04 115.31 -2.1 C 115.31 -2.54 115.08 -2.75 114.63 -2.75 C 114.55 -2.75 114.07 -2.6 113.12 -2.36 C 112.22 -2.1 111.57 -1.98 111.13 -1.98 C 110.06 -1.98 109.18 -2.23 108.5 -2.72 C 107.82 -3.22 107.47 -3.91 107.47 -4.77 C 107.47 -5.27 107.85 -5.63 108.62 -5.83 C 108.82 -5.87 109.7 -5.98 111.35 -6.18 C 114.66 -6.58 115.54 -6.75 115.54 -8.9 C 115.54 -9.4 115.42 -9.94 115.19 -10.57 C 114.95 -11.17 114.6 -11.69 114.15 -12.12 C 113.31 -12.87 112.28 -13.23 111.04 -13.23 L 110.76 -13.23 C 107.05 -13.23 104.41 -10.41 104.41 -6.66 L 104.41 -6.07 C 104.41 -2.56 106.53 0.18 110.21 0.18 Z M 111.32 -7.81 L 111.04 -7.81 C 110.92 -7.77 110.8 -7.8 110.73 -7.75 L 108.59 -7.6 L 108.53 -7.57 L 108.21 -7.57 C 107.64 -7.55 107.35 -7.7 107.35 -8.02 L 107.35 -8.28 C 107.35 -9.9 108.79 -11.53 110.39 -11.53 L 110.73 -11.53 C 111.29 -11.53 111.81 -11.32 112.28 -10.9 C 112.75 -10.46 113 -9.93 113 -9.29 L 113 -8.75 C 113 -7.98 111.85 -7.81 111.32 -7.81 Z M 141.94 -12.87 C 142.27 -12.02 142.44 -9.54 142.44 -5.42 L 142.38 -2.98 C 142.38 -2.38 142.53 -1.83 142.81 -1.33 C 143.1 -0.83 143.57 -0.59 144.21 -0.59 C 145.3 -0.59 145.84 -0.97 145.84 -1.71 C 145.84 -1.83 145.77 -2.13 145.6 -2.63 L 145.4 -3.16 C 145.22 -3.78 145.13 -5.09 145.13 -7.1 L 145.13 -10.02 C 145.13 -10.97 145.1 -11.69 145.1 -12.19 L 145.1 -15 C 145.1 -15.47 145.12 -15.91 145.16 -16.27 L 145.25 -16.8 L 145.28 -17.27 C 145.28 -17.83 144.72 -18.19 144.01 -18.19 C 142.81 -18.19 142.09 -17.92 141.36 -17 C 140.64 -16.08 139.92 -14.47 138.59 -11.87 L 136.55 -7.72 L 136.26 -7.28 C 136 -7.3 135.23 -8.69 133.94 -11.47 C 132.61 -14.3 131.7 -16.04 131.21 -16.68 C 130.48 -17.65 129.6 -18.13 128.57 -18.13 C 127.62 -18.13 127.18 -17.63 127.18 -17.27 C 127.18 -17.04 127.22 -16.73 127.3 -16.18 L 127.41 -15.59 C 127.48 -14.92 127.53 -13.83 127.53 -12.22 C 127.53 -10.6 127.41 -8.31 127.21 -5.24 C 127.13 -4.4 127.03 -3.68 126.79 -3.01 C 126.56 -2.29 126.44 -1.91 126.44 -1.89 C 126.44 -1.18 126.79 -0.83 127.5 -0.83 C 128.18 -0.83 128.65 -1.03 128.92 -1.44 C 129.18 -1.85 129.31 -2.63 129.31 -3.81 C 129.33 -8.33 129.56 -11.31 130.01 -12.75 C 130.07 -12.97 130.16 -13.08 130.28 -13.08 C 130.52 -13.08 131.24 -11.61 132.42 -8.67 C 133.58 -5.72 134.28 -4 134.54 -3.53 C 134.93 -2.75 135.35 -2.36 135.81 -2.36 C 136.25 -2.36 136.67 -2.66 137.11 -3.28 C 137.34 -3.68 138.11 -5.39 139.42 -8.43 C 140.76 -11.5 141.5 -13.05 141.66 -13.05 C 141.83 -13.05 141.92 -12.99 141.94 -12.87 Z M 161.1 -6.42 L 161.1 -6.89 C 161.1 -10.23 159.19 -13.37 155.48 -13.37 L 154.8 -13.37 C 154.02 -13.37 153.23 -13.18 152.44 -12.81 C 150.05 -11.72 149.04 -9.25 149.04 -6.75 L 149.04 -6.07 C 149.04 -4.36 149.4 -1.54 152.23 -0.21 C 152.97 0.14 153.73 0.3 154.52 0.3 L 154.98 0.3 C 155.85 0.3 156.73 0.09 157.62 -0.35 C 158.81 -0.91 159.71 -1.74 160.27 -2.86 C 160.83 -3.97 161.1 -5.16 161.1 -6.42 Z M 154.95 -1.51 L 154.71 -1.51 C 153.05 -1.51 151.76 -3.5 151.76 -5.48 C 151.76 -5.59 151.78 -5.72 151.73 -5.92 L 151.73 -6.86 C 151.73 -8.29 152.03 -9.46 152.64 -10.32 C 153.23 -11.19 153.97 -11.63 154.86 -11.63 L 155.14 -11.63 C 156.04 -11.63 156.77 -11.2 157.3 -10.34 C 157.83 -9.48 158.09 -8.39 158.09 -7.07 L 158.09 -6.01 L 158.06 -5.71 C 158.06 -4.48 157.77 -3.48 157.19 -2.69 C 156.6 -1.91 155.86 -1.51 154.95 -1.51 Z M 169.96 -13.17 C 165.99 -13.17 163.78 -9.99 163.78 -6.27 L 163.78 -5.59 C 163.78 -3.91 164.19 -2.56 165.02 -1.54 C 165.85 -0.51 167.03 0 168.56 0 L 168.87 0 C 169.46 0 170.08 -0.17 170.82 -0.41 C 171.56 -0.65 172.01 -0.77 172.18 -0.77 C 172.38 -0.77 172.68 -0.74 173.15 -0.62 C 173.59 -0.5 174.01 -0.44 174.45 -0.44 C 175.31 -0.44 175.75 -0.91 175.75 -1.27 C 175.74 -1.53 175.66 -1.86 175.53 -2.3 C 175.4 -2.79 175.31 -3.27 175.31 -3.81 L 175.31 -4.87 L 175.28 -5.15 L 175.28 -5.77 L 175.25 -6.98 L 175.25 -9.2 L 175.28 -10.82 C 175.28 -15.38 175.24 -17.88 175.16 -18.29 C 175.06 -18.94 174.66 -19.25 173.95 -19.25 L 173.71 -19.25 C 172.54 -19.25 171.94 -18.62 171.94 -17.83 C 171.94 -17.66 171.98 -17.39 172.06 -17.04 C 172.13 -16.68 172.18 -16.27 172.18 -15.91 C 172.18 -13.52 171.91 -13.17 169.96 -13.17 Z M 172.27 -8.93 L 172.27 -8.64 L 172.3 -8.25 L 172.3 -6.72 L 172.27 -5.89 C 172.27 -3.88 171.76 -1.71 169.3 -1.71 L 169.18 -1.71 C 168.38 -1.71 167.7 -2.09 167.15 -2.83 C 166.59 -3.57 166.32 -4.63 166.32 -6.01 L 166.32 -6.6 C 166.32 -8.16 166.63 -9.37 167.23 -10.23 C 167.82 -11.1 168.59 -11.53 169.52 -11.53 L 169.64 -11.56 L 169.76 -11.56 C 171.53 -11.56 172.27 -10.5 172.27 -8.93 Z M 184.37 0.18 L 184.94 0.18 C 187.01 0.18 189.47 -1.04 189.47 -2.1 C 189.47 -2.54 189.24 -2.75 188.79 -2.75 C 188.71 -2.75 188.23 -2.6 187.27 -2.36 C 186.38 -2.1 185.73 -1.98 185.29 -1.98 C 184.21 -1.98 183.34 -2.23 182.65 -2.72 C 181.97 -3.22 181.63 -3.91 181.63 -4.77 C 181.63 -5.27 182 -5.63 182.78 -5.83 C 182.97 -5.87 183.85 -5.98 185.5 -6.18 C 188.82 -6.58 189.69 -6.75 189.69 -8.9 C 189.69 -9.4 189.57 -9.94 189.35 -10.57 C 189.1 -11.17 188.75 -11.69 188.3 -12.12 C 187.47 -12.87 186.44 -13.23 185.2 -13.23 L 184.91 -13.23 C 181.2 -13.23 178.57 -10.41 178.57 -6.66 L 178.57 -6.07 C 178.57 -2.56 180.69 0.18 184.37 0.18 Z M 185.47 -7.81 L 185.2 -7.81 C 185.08 -7.77 184.96 -7.8 184.88 -7.75 L 182.75 -7.6 L 182.69 -7.57 L 182.37 -7.57 C 181.79 -7.55 181.5 -7.7 181.5 -8.02 L 181.5 -8.28 C 181.5 -9.9 182.94 -11.53 184.55 -11.53 L 184.88 -11.53 C 185.44 -11.53 185.97 -11.32 186.44 -10.9 C 186.91 -10.46 187.15 -9.93 187.15 -9.29 L 187.15 -8.75 C 187.15 -7.98 186 -7.81 185.47 -7.81 Z M 193.07 -18.38 C 193.07 -18.27 193.14 -17.95 193.31 -17.39 C 193.51 -16.86 193.6 -16.11 193.6 -15.09 L 193.6 -12.58 L 193.57 -12.09 L 193.57 -9.55 L 193.54 -9.29 L 193.54 -7.78 L 193.51 -7.54 L 193.45 -4.34 C 193.39 -3.25 193.39 -2.56 193.31 -2.19 C 193.24 -1.79 193.19 -1.56 193.19 -1.48 C 193.19 -0.5 193.83 0 195.08 0 L 195.55 0 C 196.94 0 197.69 -0.56 197.69 -1.15 C 197.69 -1.48 197.55 -1.86 197.28 -2.27 C 197.02 -2.68 196.81 -3.24 196.64 -3.98 C 196.47 -4.71 196.38 -5.4 196.38 -6.07 C 196.38 -6.78 196.37 -7.17 196.35 -7.28 L 196.32 -8.99 L 196.32 -11 L 196.35 -11.25 L 196.35 -12.52 L 196.41 -14.05 L 196.41 -18.42 C 196.34 -19.1 195.87 -19.44 195.02 -19.44 L 194.81 -19.44 C 193.64 -19.44 193.07 -19.09 193.07 -18.38 Z M 200.62 -9.85 C 200.62 -7.54 202.41 -6.58 204.32 -5.86 C 206.71 -4.86 207.48 -4.56 207.48 -3.44 C 207.48 -2.36 206.63 -1.74 205.18 -1.74 C 204.47 -1.74 203.66 -1.98 202.8 -2.48 C 201.88 -2.94 201.35 -3.16 201.21 -3.16 C 200.74 -3.16 200.5 -2.79 200.5 -2.01 C 200.52 -1.79 200.61 -1.53 200.79 -1.21 C 201.38 -0.26 202.89 0.21 205.31 0.21 C 208.19 0.21 210.2 -1.45 210.2 -3.66 C 210.2 -4.75 209.89 -5.59 209.27 -6.15 C 208.63 -6.71 207.71 -7.22 206.48 -7.72 C 204.03 -8.72 203.33 -8.92 203.33 -9.91 C 203.33 -10.93 204 -11.59 205.38 -11.59 C 206.03 -11.59 206.74 -11.41 207.48 -11.06 C 208.22 -10.69 208.67 -10.5 208.84 -10.5 C 209.31 -10.5 209.55 -10.88 209.55 -11.63 C 209.57 -13.4 206.68 -13.49 205.5 -13.49 C 202.67 -13.49 200.62 -12 200.62 -9.85 Z M 225.82 0.09 C 226.45 0.09 227.19 0.02 228.05 -0.15 C 229.7 -0.56 232.55 -0.83 232.86 -0.83 C 233.03 -0.83 233.3 -0.8 233.7 -0.74 L 233.97 -0.68 L 234.73 -0.59 C 235.24 -0.58 235.5 -0.7 235.5 -0.95 C 235.48 -1.04 235.18 -1.48 234.59 -2.27 C 234.01 -3.04 233.73 -3.72 233.73 -4.31 C 233.73 -4.93 233.95 -5.77 234.41 -6.8 C 234.85 -7.84 235.06 -8.42 235.06 -8.52 C 235.06 -8.98 234.88 -9.2 234.53 -9.2 C 233.68 -9.2 232.88 -8.73 232.11 -7.78 C 231.92 -7.52 231.76 -7.4 231.59 -7.4 C 230.99 -7.4 230.46 -7.54 230.02 -7.8 C 229.58 -8.05 229.35 -8.42 229.35 -8.87 C 229.35 -9.31 229.58 -10.29 229.94 -11.87 C 230.34 -13.38 230.53 -14.29 230.53 -14.58 C 230.53 -15.59 230.21 -16.44 229.59 -17.12 C 228.96 -17.8 228.14 -18.13 227.16 -18.13 L 226.78 -18.13 C 224.3 -18.13 222.66 -16.24 222.66 -14.08 C 222.66 -13.52 222.83 -12.82 223.16 -11.97 C 223.48 -11.16 223.65 -10.69 223.65 -10.57 C 223.66 -10.26 223.3 -9.73 222.57 -8.96 C 221.22 -7.64 220.56 -6.31 220.56 -5 L 220.56 -4.59 C 220.56 -1.7 223.13 0.09 225.82 0.09 Z M 226.54 -1.8 L 226.32 -1.8 C 224.48 -1.8 223.05 -3.38 223.05 -5.12 L 223.05 -5.45 L 223.1 -5.68 C 223.1 -6.71 224.58 -8.67 225.26 -8.67 L 225.42 -8.67 C 225.51 -8.67 226.07 -8.01 227.1 -6.66 L 229.58 -3.44 L 229.58 -3.35 C 229.58 -2.74 227.9 -1.8 226.54 -1.8 Z M 227.04 -17.01 L 227.37 -17.01 C 227.78 -17.01 228.14 -16.8 228.43 -16.36 C 228.72 -15.92 228.85 -15.47 228.85 -14.97 L 228.85 -14.79 L 228.82 -14.38 C 228.82 -13.59 227.76 -11.38 226.78 -11.38 L 226.75 -11.38 C 226.48 -11.38 225.29 -13.29 225.29 -14.11 C 225.29 -14.18 225.26 -14.27 225.26 -14.47 L 225.26 -15.03 C 225.26 -15.5 225.45 -15.95 225.81 -16.38 C 226.17 -16.8 226.58 -17.01 227.04 -17.01 Z M 249.44 -0.03 L 250.21 -0.03 C 251.28 -0.03 252.19 -0.47 252.19 -1.06 C 252.19 -1.36 252.07 -1.74 251.81 -2.19 C 251.57 -2.66 251.42 -3.09 251.36 -3.44 C 251.31 -3.78 251.3 -5.56 251.3 -8.78 C 251.3 -11.99 251.38 -13.96 251.45 -14.7 C 251.5 -15.47 251.65 -16.06 251.91 -16.5 C 252.13 -17 252.25 -17.3 252.25 -17.42 L 252.25 -17.6 C 252.25 -17.85 252.1 -18.09 251.78 -18.35 C 251.44 -18.57 250.94 -18.69 250.3 -18.69 L 249.77 -18.69 C 249.1 -18.69 247.11 -18.51 247.11 -17.54 C 247.11 -17.23 247.26 -16.83 247.58 -16.36 C 247.91 -15.89 248.12 -15.35 248.2 -14.73 C 248.27 -14.11 248.32 -12.41 248.32 -9.61 C 248.32 -6.81 248.24 -5.09 248.17 -4.34 C 248.09 -3.66 247.88 -3.01 247.55 -2.39 C 247.26 -1.82 247.11 -1.39 247.11 -1.12 C 247.11 -0.26 248.86 -0.03 249.44 -0.03 Z M 257.31 -0.38 L 257.34 -0.38 C 258.41 -0.38 259.26 -0.91 259.26 -1.65 L 259.14 -4.06 C 259.14 -6.75 259.37 -8.55 259.82 -9.46 C 260.31 -10.54 261.27 -10.94 262.23 -10.94 C 263.23 -10.94 263.92 -10.46 264.32 -9.49 C 264.76 -8.23 265.06 -5.93 265.06 -2.42 L 265.03 -1.92 C 265.03 -0.94 265.48 -0.56 266.51 -0.56 C 267.71 -0.56 268.31 -0.95 268.31 -1.74 C 268.3 -1.94 268.19 -2.32 268 -2.85 C 267.59 -3.94 267.65 -4.96 267.57 -5.8 L 267.51 -7.25 C 267.41 -8.99 267.21 -10.13 267.01 -10.79 C 266.51 -12.02 265.42 -12.81 264.09 -12.81 L 263.73 -12.81 C 262.59 -12.81 261.53 -12.26 260.75 -11.9 C 260.35 -11.72 260.08 -11.63 259.94 -11.63 C 259.81 -11.63 259.44 -11.78 258.85 -12.09 C 258.28 -12.4 257.72 -12.55 257.16 -12.55 C 256.6 -12.56 256.31 -12.41 256.31 -12.09 L 256.43 -10.7 C 256.43 -10.47 256.45 -10.2 256.4 -9.73 L 256.4 -6.54 C 256.4 -4.44 256.43 -3.65 256.04 -2.66 C 255.87 -2.13 255.78 -1.71 255.78 -1.42 C 255.8 -0.73 256.29 -0.38 257.31 -0.38 Z M 275.87 -0.03 L 276.35 -0.03 C 276.88 -0.03 277.37 -0.17 277.8 -0.42 C 278.23 -0.68 278.44 -0.98 278.44 -1.33 C 278.44 -1.8 278.06 -2.09 277.32 -2.16 C 276.58 -2.27 276.03 -2.54 275.7 -2.98 C 275.38 -3.36 275.22 -4.53 275.22 -6.48 C 275.2 -8.4 275.38 -9.73 275.76 -10.47 C 275.99 -10.88 276.47 -11.22 277.2 -11.47 C 277.96 -11.76 278.33 -12.06 278.33 -12.4 C 278.35 -12.78 277.99 -13.08 277.26 -13.34 C 275.79 -13.8 275.69 -14.11 275.37 -15.44 C 275.2 -16.09 275.03 -16.53 274.9 -16.76 C 274.76 -16.97 274.5 -17.07 274.13 -17.07 C 273.38 -17.07 273.02 -16.56 272.61 -15.06 C 272.25 -13.59 272.32 -13.74 271.49 -13.17 C 271.08 -12.88 270.87 -12.62 270.87 -12.43 L 270.87 -12.25 C 270.87 -11.99 271.05 -11.67 271.4 -11.32 C 271.75 -10.97 271.98 -10.64 272.08 -10.32 C 272.31 -9.54 272.42 -8.13 272.42 -6.1 C 272.42 -4.04 272.67 -2.51 273.17 -1.53 C 273.67 -0.53 274.56 -0.03 275.87 -0.03 Z M 286.61 0.18 L 287.19 0.18 C 289.26 0.18 291.71 -1.04 291.71 -2.1 C 291.71 -2.54 291.49 -2.75 291.03 -2.75 C 290.96 -2.75 290.47 -2.6 289.52 -2.36 C 288.63 -2.1 287.98 -1.98 287.54 -1.98 C 286.46 -1.98 285.58 -2.23 284.9 -2.72 C 284.22 -3.22 283.87 -3.91 283.87 -4.77 C 283.87 -5.27 284.25 -5.63 285.02 -5.83 C 285.22 -5.87 286.1 -5.98 287.75 -6.18 C 291.06 -6.58 291.94 -6.75 291.94 -8.9 C 291.94 -9.4 291.82 -9.94 291.59 -10.57 C 291.35 -11.17 291 -11.69 290.55 -12.12 C 289.72 -12.87 288.69 -13.23 287.45 -13.23 L 287.16 -13.23 C 283.45 -13.23 280.82 -10.41 280.82 -6.66 L 280.82 -6.07 C 280.82 -2.56 282.94 0.18 286.61 0.18 Z M 287.72 -7.81 L 287.45 -7.81 C 287.33 -7.77 287.2 -7.8 287.13 -7.75 L 284.99 -7.6 L 284.93 -7.57 L 284.62 -7.57 C 284.04 -7.55 283.75 -7.7 283.75 -8.02 L 283.75 -8.28 C 283.75 -9.9 285.19 -11.53 286.8 -11.53 L 287.13 -11.53 C 287.69 -11.53 288.22 -11.32 288.69 -10.9 C 289.16 -10.46 289.4 -9.93 289.4 -9.29 L 289.4 -8.75 C 289.4 -7.98 288.25 -7.81 287.72 -7.81 Z M 301.36 -10.5 C 301.74 -10.5 302.1 -10.47 302.48 -10.41 C 303.34 -10.41 303.78 -10.82 303.78 -11.63 C 303.78 -12.41 303.2 -12.93 302.13 -12.93 L 301.92 -12.93 C 301.34 -12.93 300.6 -12.62 299.69 -12.03 C 299.36 -11.81 299.13 -11.69 299.01 -11.69 C 298.87 -11.69 298.74 -11.76 298.6 -11.9 C 298.21 -12.43 297.54 -12.68 296.59 -12.68 C 295.67 -12.67 295.2 -12.4 295.2 -11.87 C 295.2 -11.69 295.27 -11.41 295.44 -11.06 C 295.6 -10.61 295.7 -10.17 295.7 -9.73 L 295.7 -8.78 L 295.73 -8.05 L 295.73 -5.86 C 295.73 -5.03 295.71 -4.37 295.7 -3.91 C 295.67 -3.44 295.57 -2.92 295.41 -2.39 C 295.23 -1.86 295.14 -1.56 295.14 -1.48 L 295.14 -1.27 C 295.14 -0.68 295.79 -0.12 296.62 -0.12 L 296.86 -0.12 L 297.09 -0.09 C 298.41 -0.09 299.31 -0.74 299.31 -1.45 C 299.31 -1.8 299.21 -2.19 299.13 -2.66 C 298.89 -3.66 298.72 -3.94 298.72 -5.45 C 298.72 -8.89 299.71 -10.5 301.36 -10.5 Z M 307.65 5.59 C 309.03 5.59 309.97 4.86 309.97 3.78 C 309.97 3.53 309.91 3.16 309.79 2.66 C 309.71 2.18 309.61 1.77 309.61 1.57 C 309.61 0.26 310.44 -0.11 312.09 -0.18 C 316.15 -0.35 318.31 -3.21 318.31 -7.01 L 318.31 -7.66 C 318.33 -9.17 317.95 -10.44 317.17 -11.47 C 316.83 -11.99 316.34 -12.41 315.72 -12.76 C 315.1 -13.11 314.48 -13.27 313.84 -13.27 L 313.22 -13.27 C 312.66 -13.27 312.03 -13.15 311.3 -12.9 C 310.62 -12.65 310.17 -12.49 309.97 -12.49 C 309.77 -12.49 309.55 -12.55 309.08 -12.62 L 308.67 -12.71 C 308.35 -12.78 308.14 -12.81 308.02 -12.81 C 306.91 -12.81 306.35 -12.56 306.35 -12.09 C 306.35 -11.99 306.43 -11.66 306.59 -11.13 C 306.75 -10.63 306.82 -9.91 306.82 -8.96 L 306.82 -4.8 C 306.82 -1.86 306.64 1.85 306.56 2.42 C 306.52 2.74 306.43 3.1 306.29 3.5 C 306.16 3.91 306.09 4.24 306.09 4.47 C 306.11 5.21 306.62 5.59 307.65 5.59 Z M 315.4 -7.25 L 315.4 -6.51 C 315.4 -5.04 315.1 -3.89 314.48 -3.04 C 313.86 -2.19 313.07 -1.77 312.12 -1.77 L 311.86 -1.77 C 310.94 -1.77 310.3 -2.03 309.97 -2.54 C 309.62 -3.06 309.46 -3.98 309.46 -5.3 L 309.46 -6.83 C 309.44 -8.54 309.59 -9.64 309.88 -10.11 C 310.5 -11.06 311.5 -11.53 312.33 -11.53 L 312.57 -11.53 C 313.44 -11.53 314.13 -11.14 314.65 -10.37 C 315.15 -9.6 315.4 -8.55 315.4 -7.25 Z M 327.57 -10.5 C 327.95 -10.5 328.32 -10.47 328.69 -10.41 C 329.56 -10.41 330 -10.82 330 -11.63 C 330 -12.41 329.42 -12.93 328.35 -12.93 L 328.13 -12.93 C 327.56 -12.93 326.82 -12.62 325.91 -12.03 C 325.58 -11.81 325.35 -11.69 325.23 -11.69 C 325.09 -11.69 324.96 -11.76 324.82 -11.9 C 324.43 -12.43 323.76 -12.68 322.81 -12.68 C 321.88 -12.67 321.41 -12.4 321.41 -11.87 C 321.41 -11.69 321.49 -11.41 321.66 -11.06 C 321.82 -10.61 321.91 -10.17 321.91 -9.73 L 321.91 -8.78 L 321.94 -8.05 L 321.94 -5.86 C 321.94 -5.03 321.93 -4.37 321.91 -3.91 C 321.88 -3.44 321.79 -2.92 321.63 -2.39 C 321.44 -1.86 321.35 -1.56 321.35 -1.48 L 321.35 -1.27 C 321.35 -0.68 322 -0.12 322.84 -0.12 L 323.08 -0.12 L 323.31 -0.09 C 324.62 -0.09 325.53 -0.74 325.53 -1.45 C 325.53 -1.8 325.42 -2.19 325.35 -2.66 C 325.11 -3.66 324.94 -3.94 324.94 -5.45 C 324.94 -8.89 325.92 -10.5 327.57 -10.5 Z M 337.59 0.18 L 338.17 0.18 C 340.24 0.18 342.7 -1.04 342.7 -2.1 C 342.7 -2.54 342.47 -2.75 342.01 -2.75 C 341.94 -2.75 341.45 -2.6 340.5 -2.36 C 339.61 -2.1 338.96 -1.98 338.52 -1.98 C 337.44 -1.98 336.56 -2.23 335.88 -2.72 C 335.2 -3.22 334.85 -3.91 334.85 -4.77 C 334.85 -5.27 335.23 -5.63 336 -5.83 C 336.2 -5.87 337.08 -5.98 338.73 -6.18 C 342.04 -6.58 342.92 -6.75 342.92 -8.9 C 342.92 -9.4 342.8 -9.94 342.57 -10.57 C 342.33 -11.17 341.98 -11.69 341.53 -12.12 C 340.7 -12.87 339.67 -13.23 338.43 -13.23 L 338.14 -13.23 C 334.43 -13.23 331.8 -10.41 331.8 -6.66 L 331.8 -6.07 C 331.8 -2.56 333.92 0.18 337.59 0.18 Z M 338.7 -7.81 L 338.43 -7.81 C 338.31 -7.77 338.18 -7.8 338.11 -7.75 L 335.97 -7.6 L 335.91 -7.57 L 335.6 -7.57 C 335.02 -7.55 334.73 -7.7 334.73 -8.02 L 334.73 -8.28 C 334.73 -9.9 336.17 -11.53 337.78 -11.53 L 338.11 -11.53 C 338.67 -11.53 339.2 -11.32 339.67 -10.9 C 340.14 -10.46 340.38 -9.93 340.38 -9.29 L 340.38 -8.75 C 340.38 -7.98 339.23 -7.81 338.7 -7.81 Z M 350.61 -0.03 L 351.1 -0.03 C 351.63 -0.03 352.11 -0.17 352.55 -0.42 C 352.97 -0.68 353.19 -0.98 353.19 -1.33 C 353.19 -1.8 352.81 -2.09 352.06 -2.16 C 351.32 -2.27 350.78 -2.54 350.45 -2.98 C 350.13 -3.36 349.96 -4.53 349.96 -6.48 C 349.95 -8.4 350.13 -9.73 350.51 -10.47 C 350.73 -10.88 351.22 -11.22 351.94 -11.47 C 352.7 -11.76 353.08 -12.06 353.08 -12.4 C 353.09 -12.78 352.73 -13.08 352 -13.34 C 350.54 -13.8 350.43 -14.11 350.11 -15.44 C 349.95 -16.09 349.78 -16.53 349.64 -16.76 C 349.51 -16.97 349.25 -17.07 348.87 -17.07 C 348.13 -17.07 347.77 -16.56 347.36 -15.06 C 346.99 -13.59 347.07 -13.74 346.24 -13.17 C 345.83 -12.88 345.62 -12.62 345.62 -12.43 L 345.62 -12.25 C 345.62 -11.99 345.8 -11.67 346.15 -11.32 C 346.49 -10.97 346.72 -10.64 346.83 -10.32 C 347.05 -9.54 347.16 -8.13 347.16 -6.1 C 347.16 -4.04 347.42 -2.51 347.92 -1.53 C 348.42 -0.53 349.31 -0.03 350.61 -0.03 Z M 367.08 -1.03 C 367.08 -1.32 366.97 -1.65 366.75 -2.01 C 366.49 -2.39 366.34 -2.79 366.28 -3.19 C 366.22 -3.57 366.19 -4.56 366.19 -6.18 C 366.19 -9.02 365.93 -10.82 365.42 -11.59 C 364.7 -12.7 363.31 -13.43 361.57 -13.43 L 360.89 -13.43 C 358.56 -13.43 356.42 -12.34 356.42 -11.35 C 356.42 -10.57 356.71 -10.17 357.29 -10.17 C 357.6 -10.17 358.2 -10.38 359.06 -10.82 C 359.88 -11.23 360.62 -11.44 361.28 -11.44 C 362.57 -11.44 363.37 -10.6 363.37 -9.4 C 363.37 -8.82 363.16 -8.42 362.72 -8.19 C 362.68 -8.17 361.72 -7.98 359.86 -7.6 C 357.01 -7.07 355.59 -5.68 355.59 -3.41 C 355.59 -1.21 357.24 0.15 359.15 0.15 L 359.47 0.15 C 360.1 0.17 360.83 0.02 361.63 -0.3 C 362.43 -0.62 362.92 -0.77 363.08 -0.77 C 363.25 -0.77 363.61 -0.67 364.14 -0.47 C 364.73 -0.21 365.1 -0.12 365.29 -0.12 C 366.49 -0.14 367.08 -0.44 367.08 -1.03 Z M 360.77 -1.65 L 360.36 -1.65 C 359.72 -1.65 359.24 -1.85 358.89 -2.24 C 358.54 -2.62 358.38 -3.06 358.38 -3.53 L 358.38 -4 C 358.38 -4.65 358.63 -5.19 359.16 -5.65 C 359.69 -6.1 360.36 -6.33 361.19 -6.33 L 362.25 -6.42 L 362.66 -6.42 C 363.22 -6.42 363.49 -6.08 363.49 -5.42 L 363.49 -4.9 C 363.49 -2.79 362.46 -1.65 360.77 -1.65 Z M 374.77 -0.03 L 375.25 -0.03 C 375.78 -0.03 376.27 -0.17 376.71 -0.42 C 377.13 -0.68 377.34 -0.98 377.34 -1.33 C 377.34 -1.8 376.96 -2.09 376.22 -2.16 C 375.48 -2.27 374.94 -2.54 374.6 -2.98 C 374.29 -3.36 374.12 -4.53 374.12 -6.48 C 374.1 -8.4 374.29 -9.73 374.66 -10.47 C 374.89 -10.88 375.38 -11.22 376.1 -11.47 C 376.86 -11.76 377.24 -12.06 377.24 -12.4 C 377.25 -12.78 376.89 -13.08 376.16 -13.34 C 374.69 -13.8 374.59 -14.11 374.27 -15.44 C 374.1 -16.09 373.94 -16.53 373.8 -16.76 C 373.67 -16.97 373.41 -17.07 373.03 -17.07 C 372.29 -17.07 371.92 -16.56 371.52 -15.06 C 371.15 -13.59 371.23 -13.74 370.4 -13.17 C 369.99 -12.88 369.77 -12.62 369.77 -12.43 L 369.77 -12.25 C 369.77 -11.99 369.96 -11.67 370.3 -11.32 C 370.65 -10.97 370.88 -10.64 370.99 -10.32 C 371.21 -9.54 371.32 -8.13 371.32 -6.1 C 371.32 -4.04 371.58 -2.51 372.08 -1.53 C 372.58 -0.53 373.47 -0.03 374.77 -0.03 Z M 381.85 0 L 382.54 0 C 383.76 0 384.7 -0.5 384.7 -1.24 C 384.7 -1.56 384.62 -1.89 384.46 -2.23 C 384.02 -2.98 383.81 -3.89 383.81 -4.93 L 383.72 -6.83 L 383.72 -9.85 C 383.72 -12.68 383.76 -12.96 382.47 -12.96 L 382.01 -12.96 C 380.93 -12.96 380.4 -12.7 380.4 -12.19 L 380.4 -11.9 C 380.4 -11.88 380.49 -11.63 380.67 -11.16 L 380.79 -10.88 C 380.9 -10.6 380.98 -10.19 381.02 -9.67 L 381.02 -4.44 L 380.96 -3.41 C 380.95 -3 380.87 -2.57 380.73 -2.13 C 380.57 -1.6 380.49 -1.24 380.49 -1.06 C 380.49 -0.51 381.11 0 381.85 0 Z M 382.78 -18.69 L 382.32 -18.69 C 381.82 -18.69 381.46 -18.56 381.23 -18.29 C 381.01 -18.01 380.89 -17.77 380.89 -17.57 L 380.82 -17.15 L 380.82 -17.07 L 380.89 -16.65 C 380.89 -16.38 380.99 -16.14 381.22 -15.92 C 381.45 -15.7 381.63 -15.59 381.79 -15.59 C 381.98 -15.59 382.11 -15.58 382.19 -15.56 L 382.63 -15.56 L 382.87 -15.59 C 383.66 -15.59 384.17 -16.27 384.17 -17.01 L 384.17 -17.33 C 384.17 -18.24 383.52 -18.69 382.78 -18.69 Z M 399.58 -6.42 L 399.58 -6.89 C 399.58 -10.23 397.67 -13.37 393.96 -13.37 L 393.28 -13.37 C 392.5 -13.37 391.71 -13.18 390.92 -12.81 C 388.53 -11.72 387.52 -9.25 387.52 -6.75 L 387.52 -6.07 C 387.52 -4.36 387.88 -1.54 390.71 -0.21 C 391.45 0.14 392.21 0.3 392.99 0.3 L 393.46 0.3 C 394.33 0.3 395.2 0.09 396.1 -0.35 C 397.29 -0.91 398.19 -1.74 398.75 -2.86 C 399.31 -3.97 399.58 -5.16 399.58 -6.42 Z M 393.43 -1.51 L 393.19 -1.51 C 391.53 -1.51 390.24 -3.5 390.24 -5.48 C 390.24 -5.59 390.25 -5.72 390.21 -5.92 L 390.21 -6.86 C 390.21 -8.29 390.51 -9.46 391.12 -10.32 C 391.71 -11.19 392.45 -11.63 393.34 -11.63 L 393.62 -11.63 C 394.52 -11.63 395.25 -11.2 395.78 -10.34 C 396.31 -9.48 396.57 -8.39 396.57 -7.07 L 396.57 -6.01 L 396.54 -5.71 C 396.54 -4.48 396.25 -3.48 395.67 -2.69 C 395.08 -1.91 394.34 -1.51 393.43 -1.51 Z M 403.97 -0.38 L 404 -0.38 C 405.07 -0.38 405.92 -0.91 405.92 -1.65 L 405.8 -4.06 C 405.8 -6.75 406.03 -8.55 406.48 -9.46 C 406.97 -10.54 407.93 -10.94 408.89 -10.94 C 409.89 -10.94 410.58 -10.46 410.98 -9.49 C 411.42 -8.23 411.72 -5.93 411.72 -2.42 L 411.69 -1.92 C 411.69 -0.94 412.14 -0.56 413.17 -0.56 C 414.37 -0.56 414.97 -0.95 414.97 -1.74 C 414.96 -1.94 414.85 -2.32 414.66 -2.85 C 414.25 -3.94 414.31 -4.96 414.23 -5.8 L 414.17 -7.25 C 414.06 -8.99 413.87 -10.13 413.67 -10.79 C 413.17 -12.02 412.08 -12.81 410.75 -12.81 L 410.39 -12.81 C 409.25 -12.81 408.19 -12.26 407.4 -11.9 C 407.01 -11.72 406.74 -11.63 406.6 -11.63 C 406.47 -11.63 406.1 -11.78 405.51 -12.09 C 404.94 -12.4 404.38 -12.55 403.82 -12.55 C 403.26 -12.56 402.97 -12.41 402.97 -12.09 L 403.09 -10.7 C 403.09 -10.47 403.11 -10.2 403.06 -9.73 L 403.06 -6.54 C 403.06 -4.44 403.09 -3.65 402.7 -2.66 C 402.53 -2.13 402.44 -1.71 402.44 -1.42 C 402.46 -0.73 402.95 -0.38 403.97 -0.38 Z" stroke-linecap="round" />
</g>
</g>
</g>
</svg>