<?xml version="1.0" encoding="UTF-8" standalone="no" ?>
<!DOCTYPE svg PUBLIC "-//W3C//DTD SVG 1.1//EN" "http://www.w3.org/Graphics/SVG/1.1/DTD/svg11.dtd">
<svg xmlns="http://www.w3.org/2000/svg" xmlns:xlink="http://www.w3.org/1999/xlink" version="1.1" width="1280" height="1024" viewBox="0 0 1280 1024" xml:space="preserve">
<desc>Created with Fabric.js 5.3.0</desc>
<defs>
</defs>
<g transform="matrix(1 0 0 1 640 512)" id="background-logo"  >
<rect style="stroke: none; stroke-width: 0; stroke-dasharray: none; stroke-linecap: butt; stroke-dashoffset: 0; stroke-linejoin: miter; stroke-miterlimit: 4; fill: rgb(255,255,255); fill-opacity: 0; fill-rule: nonzero; opacity: 1;"  paint-order="stroke"  x="-640" y="-512" rx="0" ry="0" width="1280" height="1024" />
</g>
<g transform="matrix(1.5873148451946453 0 0 1.5873148451946453 180.8577283587402 511.7865423259087)" id="logo-logo"  >
<g style=""  paint-order="stroke"   >
		<g transform="matrix(1.7046436714538828 0 0 1.7046436714538828 0 0)"  >
<linearGradient id="SVGID_7_2873" gradientUnits="userSpaceOnUse" gradientTransform="matrix(1 0 0 1 133.58999999999997 93.31)"  x1="0" y1="0" x2="0" y2="109">
<stop offset="0%" style="stop-color:rgb(98,39,116);stop-opacity: 1"/>
<stop offset="100%" style="stop-color:rgb(197,51,100);stop-opacity: 1"/>
</linearGradient>
<path style="stroke: none; stroke-width: 1; stroke-dasharray: none; stroke-linecap: butt; stroke-dashoffset: 0; stroke-linejoin: miter; stroke-miterlimit: 4; fill: url(#SVGID_7_2873); fill-rule: nonzero; opacity: 1;"  paint-order="stroke"  transform=" translate(-187.885, -147.61)" d="M 187.89 93.31 C 157.95 93.31 133.58999999999997 117.67 133.58999999999997 147.61 C 133.58999999999997 177.55 157.95 201.91000000000003 187.89 201.91000000000003 C 189.25 201.91000000000003 190.58999999999997 201.86 191.92 201.76000000000002 L 191.92 201.76000000000002 C 191.92 201.76000000000002 191.92 201.76000000000002 191.92 201.76000000000002 C 219.98 199.69000000000003 242.17999999999998 176.19000000000003 242.17999999999998 147.61 C 242.17999999999998 119.03 217.82 93.31000000000002 187.88 93.31000000000002 Z M 222.82 168.28 C 221.73 168.01 221.04999999999998 166.9 221.32 165.81 C 221.54999999999998 164.88 222.39 164.25 223.31 164.25 C 223.47 164.25 223.63 164.27 223.8 164.31 C 224.89000000000001 164.58 225.57000000000002 165.69 225.3 166.78 C 225.14000000000001 167.43 224.67000000000002 167.97 224.03 168.21 C 223.64000000000001 168.36 223.23 168.38 222.82 168.28 Z M 226.14 170.01 C 226.98 169.37 227.6 168.45999999999998 227.85999999999999 167.41 C 228.48 164.9 226.94 162.37 224.42999999999998 161.75 C 221.92999999999998 161.13 219.39 162.67 218.76999999999998 165.18 C 218.14999999999998 167.69 219.68999999999997 170.22 222.2 170.84 C 222.57 170.93 222.95 170.98 223.32 170.98 C 223.43 170.98 223.53 170.98 223.64 170.97 C 224.08999999999997 173.28 224.19 175.59 224.19 177.29 C 224.19 178.97 223.97 180.69 223.51 182.70999999999998 L 223.42 183.09999999999997 C 223.22 184.01999999999995 222.86999999999998 185.56999999999996 222.32 186.06999999999996 L 222.35 186.09999999999997 C 215.23999999999998 192.46999999999997 206.35999999999999 196.90999999999997 196.54999999999998 198.56999999999996 C 198.79 196.73999999999995 200.66 194.75999999999996 202.18999999999997 192.55999999999997 C 207.44999999999996 185.01999999999998 210.17999999999998 178.80999999999997 211.30999999999997 171.77999999999997 C 211.45999999999998 170.81999999999996 211.58999999999997 169.86999999999998 211.68999999999997 168.92999999999998 C 212.18999999999997 167.12999999999997 213.15999999999997 165.46999999999997 214.19999999999996 163.71999999999997 C 214.54999999999995 163.12999999999997 214.90999999999997 162.51999999999998 215.24999999999997 161.90999999999997 C 218.63999999999996 155.75999999999996 222.87999999999997 149.04999999999995 228.80999999999997 145.19999999999996 C 229.32999999999998 145.60999999999996 229.92 145.89999999999995 230.57999999999998 146.05999999999997 C 230.95 146.14999999999998 231.32999999999998 146.19999999999996 231.7 146.19999999999996 C 233.79999999999998 146.19999999999996 235.72 144.76999999999995 236.23999999999998 142.63999999999996 C 236.85999999999999 140.12999999999997 235.32 137.59999999999997 232.80999999999997 136.97999999999996 C 231.59999999999997 136.67999999999995 230.33999999999997 136.86999999999995 229.26999999999998 137.51999999999995 C 228.2 138.16999999999996 227.45 139.18999999999994 227.14999999999998 140.40999999999994 C 226.92999999999998 141.29999999999993 226.98 142.21999999999994 227.27999999999997 143.05999999999995 C 220.91999999999996 147.22999999999993 216.47999999999996 154.22999999999993 212.93999999999997 160.63999999999993 C 212.63999999999996 161.17999999999992 212.31999999999996 161.71999999999994 211.98999999999998 162.27999999999992 C 211.89 156.92999999999992 210.92999999999998 151.86999999999992 209.2 147.36999999999992 L 209.32 147.36999999999992 C 209.32999999999998 145.83999999999992 209.94 143.8799999999999 211.04999999999998 141.8499999999999 C 212.88 138.4699999999999 215.55999999999997 135.2199999999999 218.36999999999998 132.9199999999999 C 218.95999999999998 133.5399999999999 219.73 133.99999999999991 220.61999999999998 134.2199999999999 C 220.98999999999998 134.30999999999992 221.36999999999998 134.3599999999999 221.74999999999997 134.3599999999999 C 222.58999999999997 134.3599999999999 223.41999999999996 134.1299999999999 224.15999999999997 133.6799999999999 C 225.22999999999996 133.0299999999999 225.97999999999996 132.0099999999999 226.27999999999997 130.7899999999999 C 226.57999999999998 129.5699999999999 226.39 128.3199999999999 225.73999999999998 127.2499999999999 C 225.08999999999997 126.17999999999991 224.07 125.42999999999991 222.85 125.1299999999999 C 220.34 124.50999999999989 217.81 126.0499999999999 217.19 128.5599999999999 C 217.03 129.22999999999988 217.02 129.8999999999999 217.14 130.5299999999999 C 213.88 133.0799999999999 210.85 136.68999999999988 208.73 140.5899999999999 C 208.29 141.3999999999999 207.81 142.3999999999999 207.42999999999998 143.4999999999999 C 206.37999999999997 141.5299999999999 205.15999999999997 139.69999999999987 203.77999999999997 138.0499999999999 C 204.00999999999996 137.6599999999999 204.19999999999996 137.2299999999999 204.30999999999997 136.7599999999999 L 204.30999999999997 136.7599999999999 C 204.92999999999998 134.24999999999991 203.39 131.7199999999999 200.87999999999997 131.0999999999999 C 199.66999999999996 130.7999999999999 198.40999999999997 130.9899999999999 197.33999999999997 131.6399999999999 C 196.26999999999998 132.2899999999999 195.51999999999998 133.3099999999999 195.21999999999997 134.5299999999999 C 194.91999999999996 135.7399999999999 195.10999999999996 136.9999999999999 195.75999999999996 138.06999999999988 C 196.40999999999997 139.13999999999987 197.42999999999995 139.88999999999987 198.64999999999995 140.18999999999988 C 199.01999999999995 140.2799999999999 199.39999999999995 140.32999999999987 199.76999999999995 140.32999999999987 C 200.49999999999994 140.32999999999987 201.20999999999995 140.14999999999986 201.83999999999995 139.83999999999986 C 207.63999999999996 146.82999999999987 210.26999999999995 157.20999999999987 209.08999999999995 168.46999999999986 C 209.06999999999994 168.53999999999985 209.04999999999995 168.59999999999985 209.02999999999994 168.66999999999985 L 209.06999999999994 168.66999999999985 C 208.96999999999994 169.56999999999985 208.84999999999994 170.47999999999985 208.70999999999992 171.37999999999985 C 207.72999999999993 177.48999999999987 205.42999999999992 182.97999999999985 201.11999999999992 189.45999999999987 C 200.36999999999992 186.49999999999986 198.51999999999992 183.72999999999988 196.51999999999992 181.63999999999987 C 196.61999999999992 181.39999999999986 196.70999999999992 181.15999999999988 196.76999999999992 180.90999999999988 C 197.38999999999993 178.3999999999999 195.84999999999994 175.8699999999999 193.33999999999992 175.2499999999999 C 192.1299999999999 174.94999999999987 190.86999999999992 175.13999999999987 189.79999999999993 175.78999999999988 C 188.72999999999993 176.43999999999988 187.97999999999993 177.45999999999987 187.67999999999992 178.67999999999986 C 187.05999999999992 181.18999999999986 188.5999999999999 183.71999999999986 191.10999999999993 184.33999999999986 C 191.47999999999993 184.42999999999986 191.85999999999993 184.47999999999985 192.22999999999993 184.47999999999985 C 193.15999999999994 184.47999999999985 194.05999999999995 184.18999999999986 194.81999999999994 183.68999999999986 C 197.47999999999993 186.52999999999986 198.99999999999994 189.89999999999986 198.81999999999994 192.65999999999985 C 196.80999999999995 195.09999999999985 194.26999999999992 197.25999999999985 191.09999999999994 199.21999999999986 C 190.03999999999994 199.28999999999985 188.96999999999994 199.31999999999985 187.88999999999993 199.31999999999985 C 184.21999999999994 199.31999999999985 180.62999999999994 198.92999999999986 177.16999999999993 198.19999999999985 C 177.25999999999993 198.01999999999984 177.34999999999994 197.84999999999985 177.43999999999994 197.66999999999985 C 180.14999999999995 192.43999999999986 182.70999999999995 187.49999999999986 178.63999999999993 180.73999999999984 C 177.90999999999994 179.52999999999983 176.85999999999993 178.20999999999984 175.57999999999993 177.13999999999984 C 184.73999999999992 176.19999999999985 196.66999999999993 172.41999999999985 202.20999999999992 159.89999999999984 C 204.23999999999992 159.81999999999982 206.06999999999994 158.41999999999985 206.57999999999993 156.34999999999982 C 207.19999999999993 153.83999999999983 205.65999999999994 151.30999999999983 203.14999999999992 150.68999999999983 C 201.9399999999999 150.38999999999982 200.67999999999992 150.5799999999998 199.60999999999993 151.22999999999982 C 198.53999999999994 151.87999999999982 197.78999999999994 152.8999999999998 197.48999999999992 154.1199999999998 C 197.1899999999999 155.3399999999998 197.3799999999999 156.5899999999998 198.02999999999992 157.6599999999998 C 198.42999999999992 158.3199999999998 198.9699999999999 158.8599999999998 199.61999999999992 159.2399999999998 C 193.36999999999992 172.7199999999998 178.60999999999993 174.78999999999982 170.16999999999993 174.78999999999982 L 170.16999999999993 174.81999999999982 C 168.49999999999994 174.5499999999998 166.84999999999994 174.4599999999998 165.23999999999992 174.36999999999983 C 164.76999999999992 174.33999999999983 164.28999999999994 174.31999999999982 163.80999999999992 174.27999999999983 C 161.04999999999993 174.09999999999982 158.9399999999999 173.42999999999984 157.52999999999992 172.29999999999984 C 155.8499999999999 170.94999999999985 155.92999999999992 168.55999999999983 156.26999999999992 166.16999999999985 C 156.28999999999994 166.01999999999984 156.31999999999994 165.86999999999983 156.34999999999994 165.71999999999986 C 156.44999999999993 165.16999999999985 156.56999999999994 164.53999999999985 156.45999999999995 163.84999999999985 C 156.39999999999995 163.43999999999986 156.27999999999994 163.08999999999986 156.17999999999995 162.76999999999984 C 156.07999999999996 162.47999999999985 155.99999999999994 162.21999999999983 155.98999999999995 162.00999999999985 C 155.93999999999994 160.94999999999985 156.40999999999994 159.88999999999984 156.91999999999996 158.72999999999985 C 157.58999999999995 157.22999999999985 157.11999999999995 156.10999999999984 156.77999999999997 155.28999999999985 C 156.62999999999997 154.91999999999985 156.49999999999997 154.60999999999984 156.44999999999996 154.25999999999985 C 156.37999999999997 153.79999999999984 156.58999999999995 153.48999999999984 157.14999999999995 152.77999999999986 C 157.46999999999994 152.36999999999986 157.83999999999995 151.90999999999985 158.10999999999996 151.33999999999986 C 159.09999999999997 149.20999999999987 158.32999999999996 146.55999999999986 157.05999999999995 145.02999999999986 C 156.62999999999994 144.51999999999987 156.14999999999995 144.14999999999986 155.71999999999994 143.82999999999987 C 155.08999999999995 143.34999999999988 154.72999999999993 143.05999999999986 154.57999999999996 142.56999999999988 C 154.16999999999996 141.20999999999987 156.65999999999997 139.2499999999999 157.84999999999997 138.3099999999999 L 158.06999999999996 138.1399999999999 C 160.72999999999996 136.0299999999999 162.81999999999996 134.0499999999999 164.35999999999996 131.2199999999999 C 165.85999999999996 128.45999999999992 166.36999999999995 125.38999999999992 166.84999999999997 122.42999999999992 C 166.93999999999997 121.87999999999992 167.02999999999997 121.33999999999992 167.12999999999997 120.79999999999993 C 167.37999999999997 119.36999999999992 167.81999999999996 118.00999999999992 168.41999999999996 116.72999999999993 C 168.52999999999997 116.79999999999993 168.62999999999997 116.85999999999993 168.72999999999996 116.91999999999993 C 168.91999999999996 117.02999999999993 169.09999999999997 117.13999999999993 169.25999999999996 117.24999999999993 C 171.23999999999995 118.65999999999993 172.61999999999998 119.84999999999992 173.71999999999997 121.08999999999993 C 176.67999999999998 124.42999999999994 178.98999999999998 127.44999999999993 180.60999999999996 131.32999999999993 C 182.20999999999995 135.15999999999994 182.65999999999997 139.2199999999999 182.77999999999994 142.89999999999992 C 182.42999999999995 143.00999999999993 182.08999999999995 143.1599999999999 181.76999999999995 143.3499999999999 C 180.69999999999996 143.99999999999991 179.94999999999996 145.0199999999999 179.64999999999995 146.2399999999999 C 179.02999999999994 148.7499999999999 180.56999999999994 151.2799999999999 183.07999999999996 151.8999999999999 C 183.44999999999996 151.9899999999999 183.82999999999996 152.03999999999988 184.19999999999996 152.03999999999988 C 186.29999999999995 152.03999999999988 188.21999999999997 150.60999999999987 188.73999999999995 148.47999999999988 C 189.03999999999996 147.26999999999987 188.84999999999997 146.00999999999988 188.19999999999996 144.93999999999988 C 187.56999999999996 143.8999999999999 186.58999999999995 143.15999999999988 185.41999999999996 142.84999999999988 C 185.32999999999996 139.78999999999988 185.00999999999996 136.46999999999989 184.04999999999995 133.16999999999987 C 184.45999999999995 131.96999999999989 184.92999999999995 130.64999999999986 185.52999999999994 129.50999999999988 C 186.82999999999996 127.01999999999988 188.53999999999994 124.69999999999987 190.60999999999996 122.59999999999988 C 190.92999999999995 122.27999999999989 191.27999999999994 121.92999999999988 191.66999999999996 121.55999999999987 C 192.27999999999997 122.21999999999987 193.07999999999996 122.68999999999987 193.96999999999997 122.90999999999987 C 194.33999999999997 122.99999999999987 194.71999999999997 123.04999999999987 195.09999999999997 123.04999999999987 C 195.93999999999997 123.04999999999987 196.76999999999995 122.81999999999987 197.50999999999996 122.36999999999986 C 198.57999999999996 121.71999999999986 199.32999999999996 120.69999999999986 199.62999999999997 119.47999999999986 C 200.24999999999997 116.96999999999986 198.70999999999998 114.43999999999986 196.19999999999996 113.81999999999987 C 193.68999999999997 113.19999999999986 191.15999999999997 114.73999999999987 190.53999999999996 117.24999999999987 C 190.38999999999996 117.85999999999987 190.35999999999996 118.47999999999988 190.45999999999995 119.08999999999988 C 189.80999999999995 119.67999999999988 189.22999999999996 120.25999999999988 188.73999999999995 120.74999999999987 C 186.48999999999995 123.02999999999987 184.61999999999995 125.56999999999988 183.19999999999996 128.28999999999988 C 183.00999999999996 128.65999999999988 182.82999999999996 129.04999999999987 182.65999999999997 129.43999999999988 C 180.80999999999997 125.40999999999988 178.24999999999997 122.20999999999988 175.71999999999997 119.34999999999988 C 174.47999999999996 117.94999999999987 172.96999999999997 116.64999999999988 170.81999999999996 115.10999999999989 C 170.59999999999997 114.94999999999989 170.35999999999996 114.80999999999989 170.12999999999997 114.66999999999989 C 170.00999999999996 114.5999999999999 169.86999999999998 114.50999999999989 169.74999999999997 114.4299999999999 C 172.96999999999997 109.6299999999999 178.61999999999998 106.47999999999989 184.96999999999997 106.3799999999999 C 192.25999999999996 106.2699999999999 203.92999999999998 111.25999999999989 206.23999999999998 119.1599999999999 C 205.95 119.2699999999999 205.65999999999997 119.39999999999989 205.39 119.5699999999999 C 204.32 120.2199999999999 203.57 121.2399999999999 203.26999999999998 122.44999999999989 C 202.64999999999998 124.9599999999999 204.18999999999997 127.4899999999999 206.7 128.1099999999999 C 207.07 128.1999999999999 207.45 128.2499999999999 207.82999999999998 128.2499999999999 C 208.67 128.2499999999999 209.49999999999997 128.0199999999999 210.23999999999998 127.56999999999988 C 211.30999999999997 126.91999999999987 212.05999999999997 125.89999999999988 212.35999999999999 124.67999999999988 C 212.66 123.46999999999989 212.47 122.20999999999988 211.82 121.13999999999987 C 211.17 120.06999999999988 210.15 119.31999999999988 208.94 119.01999999999987 C 206.67 109.56999999999987 193.74 103.72999999999988 185.23 103.72999999999988 C 185.13 103.72999999999988 185.03 103.72999999999988 184.92999999999998 103.72999999999988 C 174.80999999999997 103.89999999999988 166.24999999999997 110.87999999999988 164.57999999999998 120.32999999999987 C 164.48 120.87999999999987 164.39 121.43999999999987 164.29999999999998 121.99999999999987 C 163.85 124.74999999999987 163.38 127.58999999999988 162.08999999999997 129.95999999999987 C 160.75999999999996 132.39999999999986 158.95999999999998 134.10999999999987 156.47999999999996 136.07999999999987 L 156.26999999999995 136.24999999999986 C 154.48999999999995 137.64999999999986 151.17999999999995 140.25999999999985 152.09999999999997 143.32999999999987 C 152.49999999999997 144.66999999999987 153.42999999999998 145.36999999999986 154.16999999999996 145.92999999999986 C 154.51999999999995 146.18999999999986 154.83999999999995 146.43999999999986 155.07999999999996 146.71999999999986 C 155.89999999999995 147.69999999999985 156.20999999999995 149.26999999999987 155.75999999999996 150.21999999999986 C 155.61999999999998 150.50999999999985 155.37999999999997 150.81999999999985 155.12999999999997 151.13999999999984 C 154.50999999999996 151.92999999999984 153.64999999999998 153.00999999999985 153.88999999999996 154.63999999999984 C 153.98999999999995 155.31999999999985 154.21999999999997 155.85999999999984 154.39999999999995 156.29999999999984 C 154.68999999999994 156.98999999999984 154.75999999999996 157.20999999999984 154.54999999999995 157.68999999999983 C 153.97999999999996 158.97999999999982 153.32999999999996 160.44999999999982 153.40999999999997 162.12999999999982 C 153.43999999999997 162.70999999999984 153.59999999999997 163.20999999999984 153.73999999999998 163.59999999999982 C 153.82 163.83999999999983 153.89 164.0499999999998 153.90999999999997 164.21999999999983 C 153.94999999999996 164.47999999999982 153.87999999999997 164.84999999999982 153.80999999999997 165.23999999999984 C 153.77999999999997 165.42999999999984 153.73999999999998 165.60999999999984 153.71999999999997 165.79999999999984 C 153.45999999999998 167.61999999999983 152.85999999999996 171.88999999999984 155.93999999999997 174.35999999999984 C 157.80999999999997 175.85999999999984 160.33999999999997 176.68999999999986 163.68999999999997 176.90999999999985 C 164.17999999999998 176.93999999999986 164.65999999999997 176.96999999999986 165.13999999999996 176.99999999999986 C 167.26999999999995 177.11999999999986 169.27999999999994 177.23999999999987 171.28999999999996 177.71999999999986 C 173.43999999999997 178.22999999999985 175.40999999999997 180.40999999999985 176.42999999999995 182.10999999999984 C 179.73999999999995 187.60999999999984 177.80999999999995 191.32999999999984 175.14999999999995 196.47999999999985 C 174.95999999999995 196.83999999999986 174.76999999999995 197.20999999999984 174.57999999999996 197.58999999999986 C 152.53999999999996 191.68999999999986 136.26999999999995 171.54999999999987 136.26999999999995 147.67999999999986 C 136.26999999999995 119.18999999999987 159.44999999999996 96.00999999999986 187.93999999999994 96.00999999999986 C 216.42999999999992 96.00999999999986 239.60999999999996 119.18999999999986 239.60999999999996 147.67999999999986 C 239.60999999999996 160.92999999999986 234.59999999999997 173.02999999999986 226.36999999999995 182.17999999999986 C 226.69999999999996 180.45999999999987 226.86999999999995 178.86999999999986 226.87999999999994 177.34999999999985 C 226.87999999999994 175.41999999999985 226.75999999999993 172.74999999999986 226.18999999999994 170.07999999999984 Z M 229.71 141 C 229.84 140.47 230.17000000000002 140.02 230.64000000000001 139.74 C 230.96 139.54000000000002 231.33 139.44 231.69000000000003 139.44 C 231.85000000000002 139.44 232.02000000000004 139.46 232.18000000000004 139.5 C 233.27000000000004 139.77 233.95000000000005 140.88 233.68000000000004 141.97 C 233.41000000000003 143.06 232.30000000000004 143.73 231.21000000000004 143.47 C 230.68000000000004 143.34 230.23000000000005 143.01 229.95000000000005 142.54 C 229.67000000000004 142.07 229.58000000000004 141.51999999999998 229.71000000000004 140.98999999999998 Z M 219.75 129.16 C 219.98 128.23 220.82 127.6 221.74 127.6 C 221.9 127.6 222.06 127.61999999999999 222.23000000000002 127.66 C 222.76000000000002 127.78999999999999 223.21 128.12 223.49 128.59 C 223.77 129.06 223.86 129.61 223.73000000000002 130.14000000000001 C 223.60000000000002 130.67000000000002 223.27 131.12 222.8 131.4 C 222.33 131.68 221.78 131.77 221.25 131.64000000000001 C 220.16 131.37 219.48 130.26000000000002 219.75 129.17000000000002 Z M 199.28 137.6 C 198.75 137.47 198.3 137.14 198.02 136.67 C 197.74 136.2 197.65 135.64999999999998 197.78 135.11999999999998 C 197.91 134.58999999999997 198.24 134.14 198.71 133.85999999999999 C 199.03 133.66 199.4 133.55999999999997 199.76000000000002 133.55999999999997 C 199.92000000000002 133.55999999999997 200.09000000000003 133.57999999999998 200.25000000000003 133.61999999999998 C 201.34000000000003 133.89 202.02000000000004 134.99999999999997 201.75000000000003 136.08999999999997 C 201.48000000000002 137.17999999999998 200.37000000000003 137.85999999999999 199.28000000000003 137.58999999999997 Z M 191.73 181.74 C 190.64 181.47 189.95999999999998 180.36 190.23 179.27 C 190.35999999999999 178.74 190.69 178.29000000000002 191.16 178.01000000000002 C 191.48 177.81000000000003 191.85 177.71 192.21 177.71 C 192.37 177.71 192.54000000000002 177.73000000000002 192.70000000000002 177.77 C 193.79000000000002 178.04000000000002 194.47000000000003 179.15 194.20000000000002 180.24 C 194.17000000000002 180.36 194.13000000000002 180.48000000000002 194.08 180.59 C 193.68 181.49 192.69000000000003 181.97 191.73000000000002 181.74 Z M 201.56 157.16 C 200.47 156.89 199.79 155.78 200.06 154.69 C 200.19 154.16 200.52 153.71 200.99 153.43 C 201.31 153.23000000000002 201.68 153.13 202.04000000000002 153.13 C 202.20000000000002 153.13 202.37000000000003 153.15 202.53000000000003 153.19 C 203.62000000000003 153.46 204.30000000000004 154.57 204.03000000000003 155.66 C 203.76000000000002 156.75 202.65000000000003 157.43 201.56000000000003 157.16 Z M 185.92 146.22 C 186.2 146.69 186.29 147.24 186.16 147.77 C 185.89 148.86 184.78 149.54000000000002 183.69 149.27 C 183.16 149.14000000000001 182.71 148.81 182.43 148.34 C 182.15 147.87 182.06 147.32 182.19 146.79 C 182.32 146.26 182.65 145.81 183.12 145.53 C 183.44 145.33 183.81 145.23 184.17000000000002 145.23 C 184.33 145.23 184.50000000000003 145.25 184.66000000000003 145.29 C 185.19000000000003 145.42 185.64000000000001 145.75 185.92000000000002 146.22 Z M 193.07 117.79 C 193.29999999999998 116.86 194.14 116.23 195.06 116.23 C 195.22 116.23 195.38 116.25 195.55 116.29 C 196.08 116.42 196.53 116.75 196.81 117.22000000000001 C 197.09 117.69000000000001 197.18 118.24000000000001 197.05 118.77000000000001 C 196.92000000000002 119.30000000000001 196.59 119.75000000000001 196.12 120.03000000000002 C 195.65 120.31000000000002 195.1 120.40000000000002 194.57 120.27000000000001 C 194.04 120.14000000000001 193.59 119.81000000000002 193.31 119.34 C 193.03 118.87 192.94 118.32000000000001 193.07 117.79 Z M 209.51 122.42 C 209.79 122.89 209.88 123.44 209.75 123.97 L 209.75 123.97 C 209.62 124.5 209.29 124.95 208.82 125.23 C 208.35 125.51 207.79999999999998 125.60000000000001 207.26999999999998 125.47 C 206.17999999999998 125.2 205.49999999999997 124.09 205.76999999999998 123 C 205.89999999999998 122.47 206.23 122.02 206.7 121.74 C 207.01999999999998 121.53999999999999 207.39 121.44 207.75 121.44 C 207.91 121.44 208.08 121.46 208.24 121.5 C 208.77 121.63 209.22 121.96 209.5 122.43 Z" stroke-linecap="round" />
</g>
</g>
</g>
<g transform="matrix(1.9008288593397615 0 0 1.9008288593397615 791.7531118301632 478.40549878524047)" id="text-logo"  >
<g style=""  paint-order="stroke"   >
		<g transform="matrix(1 0 0 1 0 0)" id="text-logo-path-0"  >
<path style="stroke: rgb(98,39,116); stroke-width: 2.133333333333333; stroke-dasharray: none; stroke-linecap: butt; stroke-dashoffset: 0; stroke-linejoin: miter; stroke-miterlimit: 4; fill: rgb(0,0,0); fill-rule: nonzero; opacity: 1;"  paint-order="stroke"  transform=" translate(-202.12, 27.880000000000003)" d="M 29.36 0 L 3.52 0 Q 3.2 0 3.2 -0.4 L 3.2 -0.4 L 3.28 -55.36 Q 3.28 -55.68 3.6 -55.68 L 3.6 -55.68 L 29.28 -55.68 Q 29.6 -55.68 29.6 -55.28 L 29.6 -55.28 L 29.6 -46.32 Q 29.6 -46 29.28 -46 L 29.28 -46 L 12.88 -46 L 12.88 -33.52 L 29.28 -33.52 Q 29.6 -33.52 29.6 -33.2 L 29.6 -33.2 L 29.68 -24.16 Q 29.68 -23.84 29.36 -23.84 L 29.36 -23.84 L 12.88 -23.84 L 12.88 -9.84 L 29.36 -9.84 Q 29.68 -9.84 29.68 -9.44 L 29.68 -9.44 L 29.68 -0.32 Q 29.68 0 29.36 0 L 29.36 0 Z M 79.52 0 L 53.68 0 Q 53.36 0 53.36 -0.4 L 53.36 -0.4 L 53.44 -55.28 Q 53.44 -55.68 53.84 -55.68 L 53.84 -55.68 L 62.72 -55.68 Q 63.12 -55.68 63.12 -55.28 L 63.12 -55.28 L 63.04 -9.84 L 79.52 -9.84 Q 79.92 -9.84 79.92 -9.44 L 79.92 -9.44 L 79.92 -0.4 Q 79.92 0 79.52 0 L 79.52 0 Z M 111.12 0 L 102.08 0 Q 101.68 0 101.68 -0.4 L 101.68 -0.4 L 101.76 -55.36 Q 101.76 -55.68 102.08 -55.68 L 102.08 -55.68 L 111.04 -55.68 Q 111.36 -55.68 111.36 -55.36 L 111.36 -55.36 L 111.44 -0.4 Q 111.44 0 111.12 0 L 111.12 0 Z M 149.84 0.8 L 149.84 0.8 Q 145.52 0.8 141.96 -1.4 Q 138.4 -3.6 136.24 -7.24 Q 134.08 -10.88 134.08 -15.28 L 134.08 -15.28 L 134.16 -40.64 Q 134.16 -45.04 136.28 -48.64 Q 138.4 -52.24 142 -54.4 Q 145.6 -56.56 149.84 -56.56 L 149.84 -56.56 Q 154.16 -56.56 157.68 -54.4 Q 161.2 -52.24 163.32 -48.64 Q 165.44 -45.04 165.44 -40.64 L 165.44 -40.64 L 165.52 -15.28 Q 165.52 -10.88 163.4 -7.24 Q 161.28 -3.6 157.72 -1.4 Q 154.16 0.8 149.84 0.8 Z M 149.84 -8.88 L 149.84 -8.88 Q 152.24 -8.88 154.04 -10.84 Q 155.84 -12.8 155.84 -15.28 L 155.84 -15.28 L 155.76 -40.64 Q 155.76 -43.28 154.08 -45.12 Q 152.4 -46.96 149.84 -46.96 L 149.84 -46.96 Q 147.36 -46.96 145.6 -45.16 Q 143.84 -43.36 143.84 -40.64 L 143.84 -40.64 L 143.84 -15.28 Q 143.84 -12.64 145.6 -10.76 Q 147.36 -8.88 149.84 -8.88 Z M 196.88 0 L 188.88 0 Q 188.24 0 188.24 -0.56 L 188.24 -0.56 L 188.16 -55.04 Q 188.16 -55.68 188.8 -55.68 L 188.8 -55.68 L 196 -55.68 L 209.52 -24.16 L 209.12 -55.04 Q 209.12 -55.68 209.84 -55.68 L 209.84 -55.68 L 217.76 -55.68 Q 218.24 -55.68 218.24 -55.04 L 218.24 -55.04 L 218.32 -0.48 Q 218.32 0 217.92 0 L 217.92 0 L 210.88 0 L 197.04 -29.44 L 197.6 -0.64 Q 197.6 0 196.88 0 L 196.88 0 Z M 296.4 0 L 270.56 0 Q 270.24 0 270.24 -0.4 L 270.24 -0.4 L 270.32 -55.28 Q 270.32 -55.68 270.72 -55.68 L 270.72 -55.68 L 279.6 -55.68 Q 280 -55.68 280 -55.28 L 280 -55.28 L 279.92 -9.84 L 296.4 -9.84 Q 296.8 -9.84 296.8 -9.44 L 296.8 -9.44 L 296.8 -0.4 Q 296.8 0 296.4 0 L 296.4 0 Z M 315.84 -0.4 L 315.84 -0.4 L 325.76 -55.36 Q 325.84 -55.68 326.16 -55.68 L 326.16 -55.68 L 337.76 -55.68 Q 338.08 -55.68 338.16 -55.36 L 338.16 -55.36 L 347.68 -0.4 Q 347.76 0 347.36 0 L 347.36 0 L 338.48 0 Q 338.16 0 338.08 -0.4 L 338.08 -0.4 L 337.2 -6.24 L 326.32 -6.24 L 325.44 -0.4 Q 325.36 0 325.04 0 L 325.04 0 L 316.16 0 Q 315.84 0 315.84 -0.4 Z M 331.52 -37.28 L 327.92 -14.8 L 335.6 -14.8 L 332.32 -37.28 L 331.84 -40.24 L 331.52 -37.28 Z M 383.92 0 L 369.6 0 Q 369.28 0 369.28 -0.4 L 369.28 -0.4 L 369.44 -55.36 Q 369.44 -55.68 369.76 -55.68 L 369.76 -55.68 L 385.12 -55.68 Q 389.68 -55.68 393.28 -53.48 Q 396.88 -51.28 398.96 -47.68 Q 401.04 -44.08 401.04 -39.84 L 401.04 -39.84 Q 401.04 -36.4 399.48 -33.44 Q 397.92 -30.48 395.76 -28.64 L 395.76 -28.64 Q 398.08 -26.32 399.36 -23.28 Q 400.64 -20.24 400.64 -16.88 L 400.64 -16.88 Q 400.64 -12.24 398.4 -8.4 Q 396.16 -4.56 392.36 -2.28 Q 388.56 0 383.92 0 L 383.92 0 Z M 379.04 -46.16 L 379.04 -33.6 L 385.12 -33.6 Q 387.92 -33.6 389.64 -35.56 Q 391.36 -37.52 391.36 -39.84 L 391.36 -39.84 Q 391.36 -42.4 389.52 -44.28 Q 387.68 -46.16 385.12 -46.16 L 385.12 -46.16 L 379.04 -46.16 Z M 379.04 -23.92 L 378.96 -9.76 L 383.92 -9.76 Q 386.8 -9.76 388.88 -11.88 Q 390.96 -14 390.96 -16.88 L 390.96 -16.88 Q 390.96 -19.76 388.88 -21.84 Q 386.8 -23.92 383.92 -23.92 L 383.92 -23.92 L 379.04 -23.92 Z" stroke-linecap="round" />
</g>
</g>
</g>
<g transform="matrix(1.9008288593397615 0 0 1.9008288593397615 791.6229496039748 594.5599016871471)" id="tagline-7e62f813-0663-4b9d-bd96-3df1dc617582-logo"  >
<g style=""  paint-order="stroke"   >
		<g transform="matrix(1 0 0 1 0 0)" id="tagline-7e62f813-0663-4b9d-bd96-3df1dc617582-logo-path-0"  >
<filter id="SVGID_2872" y="-125.68898283465144%" height="351.37796566930285%" x="-25.600504431640534%" width="151.20100886328106%" >
	<feGaussianBlur in="SourceAlpha" stdDeviation="12.608695652173918"></feGaussianBlur>
	<feOffset dx="0" dy="0" result="oBlur" ></feOffset>
	<feFlood flood-color="rgb(228,156,180)" flood-opacity="1"/>
	<feComposite in2="oBlur" operator="in" />
	<feMerge>
		<feMergeNode></feMergeNode>
		<feMergeNode in="SourceGraphic"></feMergeNode>
	</feMerge>
</filter>
<path style="stroke: rgb(255,255,255); stroke-width: 0; stroke-dasharray: none; stroke-linecap: butt; stroke-dashoffset: 0; stroke-linejoin: miter; stroke-miterlimit: 4; fill: rgb(0,0,0); fill-rule: nonzero; opacity: 1;filter: url(#SVGID_2872);"  paint-order="stroke"  transform=" translate(-226.875, 6.25)" d="M 1.83 -1.25 C 1.83 -0.67 2.14 -0.33 2.76 -0.2 C 3.31 -0.07 4.86 0 7.36 0 L 7.69 0 L 8 0.03 L 10.52 0.03 C 11.55 0.03 12.26 -0.08 12.65 -0.3 C 13.03 -0.51 13.23 -0.93 13.23 -1.57 L 13.23 -1.85 C 13.21 -2.61 12.93 -2.99 12.38 -2.99 C 12.19 -2.99 11.87 -2.9 11.43 -2.73 C 10.56 -2.39 9.98 -2.05 8.24 -2.05 C 7.35 -2.05 6.7 -2.11 6.3 -2.21 C 5.9 -2.31 5.64 -2.58 5.48 -3.02 C 5.31 -3.43 5.23 -5.28 5.23 -8.61 C 5.23 -11.89 5.27 -13.75 5.37 -14.17 C 5.49 -14.61 5.61 -14.98 5.71 -15.28 C 5.81 -15.6 5.89 -15.86 5.89 -16.04 C 5.89 -17.01 4.97 -17.49 3.68 -17.49 L 3.4 -17.49 C 2.42 -17.49 1.74 -17.05 1.74 -16.38 C 1.74 -16.04 1.84 -15.66 2.02 -15.19 C 2.24 -14.74 2.31 -14.34 2.38 -14 C 2.42 -13.71 2.41 -12.59 2.41 -10.62 L 2.41 -6.61 L 2.38 -4.73 C 2.38 -3.64 2.38 -2.89 2 -1.88 C 1.88 -1.57 1.83 -1.36 1.83 -1.25 Z M 25.62 -0.96 C 25.62 -1.23 25.52 -1.54 25.3 -1.88 C 25.06 -2.24 24.92 -2.61 24.87 -2.99 C 24.81 -3.34 24.78 -4.26 24.78 -5.78 C 24.78 -8.44 24.54 -10.12 24.06 -10.85 C 23.39 -11.88 22.09 -12.56 20.46 -12.56 L 19.82 -12.56 C 17.64 -12.56 15.65 -11.54 15.65 -10.62 C 15.65 -9.88 15.92 -9.52 16.45 -9.52 C 16.75 -9.52 17.3 -9.71 18.11 -10.12 C 18.88 -10.51 19.57 -10.71 20.19 -10.71 C 21.4 -10.71 22.15 -9.91 22.15 -8.79 C 22.15 -8.26 21.95 -7.87 21.54 -7.66 C 21.5 -7.65 20.6 -7.46 18.86 -7.11 C 16.2 -6.61 14.87 -5.31 14.87 -3.19 C 14.87 -1.13 16.41 0.14 18.2 0.14 L 18.49 0.14 C 19.09 0.16 19.77 0.01 20.52 -0.28 C 21.27 -0.58 21.72 -0.72 21.88 -0.72 C 22.03 -0.72 22.37 -0.62 22.87 -0.44 C 23.42 -0.2 23.76 -0.11 23.94 -0.11 C 25.06 -0.13 25.62 -0.41 25.62 -0.96 Z M 19.71 -1.54 L 19.33 -1.54 C 18.73 -1.54 18.28 -1.73 17.96 -2.1 C 17.63 -2.45 17.47 -2.86 17.47 -3.3 L 17.47 -3.74 C 17.47 -4.35 17.71 -4.86 18.21 -5.28 C 18.71 -5.71 19.33 -5.92 20.11 -5.92 L 21.1 -6 L 21.48 -6 C 22 -6 22.26 -5.69 22.26 -5.07 L 22.26 -4.59 C 22.26 -2.61 21.3 -1.54 19.71 -1.54 Z M 29.91 -0.35 L 29.93 -0.35 C 30.94 -0.35 31.73 -0.85 31.73 -1.54 L 31.62 -3.79 C 31.62 -6.32 31.83 -8 32.26 -8.85 C 32.71 -9.86 33.62 -10.24 34.51 -10.24 C 35.44 -10.24 36.09 -9.78 36.46 -8.88 C 36.87 -7.7 37.16 -5.55 37.16 -2.27 L 37.13 -1.8 C 37.13 -0.88 37.55 -0.52 38.52 -0.52 C 39.63 -0.52 40.2 -0.89 40.2 -1.63 C 40.19 -1.81 40.09 -2.17 39.9 -2.66 C 39.52 -3.68 39.58 -4.64 39.51 -5.42 L 39.45 -6.78 C 39.35 -8.41 39.17 -9.47 38.98 -10.1 C 38.52 -11.24 37.5 -11.98 36.25 -11.98 L 35.91 -11.98 C 34.85 -11.98 33.86 -11.47 33.12 -11.13 C 32.75 -10.96 32.5 -10.88 32.37 -10.88 C 32.24 -10.88 31.9 -11.02 31.35 -11.31 C 30.81 -11.6 30.29 -11.74 29.76 -11.74 C 29.24 -11.75 28.97 -11.61 28.97 -11.31 L 29.08 -10.01 C 29.08 -9.8 29.1 -9.54 29.06 -9.1 L 29.06 -6.12 C 29.06 -4.15 29.08 -3.41 28.72 -2.49 C 28.56 -2 28.48 -1.6 28.48 -1.33 C 28.49 -0.68 28.96 -0.35 29.91 -0.35 Z M 47.46 5.68 C 49.11 5.68 50.44 5.24 51.47 4.36 C 52.49 3.48 53 2.17 53 0.41 L 52.86 -2.49 C 52.86 -3.38 52.94 -4.62 53.06 -6.32 C 53.17 -8 53.23 -8.92 53.23 -9.08 L 53.23 -9.71 C 53.23 -10.83 52.69 -11.43 51.95 -11.43 L 51.59 -11.43 C 51.19 -11.43 50.74 -11.51 50.07 -11.74 C 49.43 -11.98 48.82 -12.09 48.24 -12.09 C 44.85 -12.09 43.06 -9.64 43.06 -6.47 L 43.06 -6.12 C 43.06 -3.03 44.7 -0.17 48.13 -0.17 C 48.8 -0.17 49.29 -0.2 49.65 -0.25 L 50.25 -0.33 C 50.61 -0.33 50.79 -0.13 50.79 0.28 C 50.79 2.38 49.48 3.54 47.38 3.54 C 47.05 3.54 46.69 3.5 46.25 3.43 C 45.81 3.36 45.44 3.3 45.17 3.3 C 44.38 3.31 43.98 3.57 43.98 4.09 C 43.98 4.9 45.69 5.68 47.46 5.68 Z M 45.17 -5.68 L 45.17 -6.2 C 45.17 -7.48 45.47 -8.48 46.06 -9.23 C 46.64 -9.98 47.41 -10.35 48.33 -10.35 L 48.65 -10.35 C 49.77 -10.35 50.54 -9.54 50.54 -8.14 L 50.57 -7.69 L 50.57 -7.31 L 50.59 -7.17 L 50.59 -6.53 L 50.57 -5.89 C 50.57 -4.05 50.28 -1.83 47.96 -1.83 L 47.52 -1.83 C 46.05 -1.83 45.17 -3.31 45.17 -5.68 Z M 59.64 -11.16 C 59.46 -11.82 59.01 -12.15 58.31 -12.15 L 57.99 -12.15 C 57.14 -12.15 56.71 -11.92 56.71 -11.46 L 56.71 -11.2 C 56.71 -11.03 56.75 -10.83 56.85 -10.62 C 56.95 -10.32 57.01 -10.18 57.01 -10.18 C 57.12 -9.81 57.18 -8.82 57.18 -7.22 C 57.18 -4.52 57.41 -2.73 57.84 -1.88 C 58.42 -0.76 59.53 -0.11 60.89 -0.11 L 61.24 -0.11 C 61.85 -0.11 62.52 -0.28 63.3 -0.58 C 64.1 -0.88 64.56 -1.02 64.63 -1.02 C 64.75 -1.01 65.01 -0.91 65.42 -0.72 C 65.89 -0.51 66.34 -0.41 66.78 -0.41 C 67.7 -0.41 68.22 -0.84 68.22 -1.27 L 68.22 -1.54 L 68.05 -2.24 C 67.8 -3.26 67.67 -4.97 67.67 -7.39 C 67.67 -9.77 67.61 -11.09 67.5 -11.34 C 67.36 -11.75 67.02 -11.95 66.48 -11.95 C 65.45 -11.95 64.87 -11.65 64.87 -10.88 C 64.87 -10.8 64.91 -10.56 64.98 -10.1 C 65.04 -9.63 65.07 -9.16 65.07 -8.72 L 65.07 -8.06 L 65.04 -7.39 C 65.04 -5.34 64.8 -3.89 64.3 -3.04 C 63.81 -2.19 63.01 -1.77 61.91 -1.77 C 60.11 -1.77 59.78 -2.85 59.78 -7.28 C 59.78 -9.53 59.76 -10.78 59.64 -11.16 Z M 81.41 -0.96 C 81.41 -1.23 81.31 -1.54 81.1 -1.88 C 80.85 -2.24 80.71 -2.61 80.66 -2.99 C 80.6 -3.34 80.57 -4.26 80.57 -5.78 C 80.57 -8.44 80.33 -10.12 79.85 -10.85 C 79.18 -11.88 77.88 -12.56 76.25 -12.56 L 75.62 -12.56 C 73.43 -12.56 71.44 -11.54 71.44 -10.62 C 71.44 -9.88 71.71 -9.52 72.25 -9.52 C 72.54 -9.52 73.09 -9.71 73.9 -10.12 C 74.67 -10.51 75.36 -10.71 75.98 -10.71 C 77.19 -10.71 77.94 -9.91 77.94 -8.79 C 77.94 -8.26 77.74 -7.87 77.33 -7.66 C 77.29 -7.65 76.39 -7.46 74.65 -7.11 C 71.99 -6.61 70.66 -5.31 70.66 -3.19 C 70.66 -1.13 72.2 0.14 73.99 0.14 L 74.28 0.14 C 74.88 0.16 75.56 0.01 76.31 -0.28 C 77.06 -0.58 77.51 -0.72 77.67 -0.72 C 77.82 -0.72 78.16 -0.62 78.66 -0.44 C 79.21 -0.2 79.55 -0.11 79.74 -0.11 C 80.85 -0.13 81.41 -0.41 81.41 -0.96 Z M 75.5 -1.54 L 75.12 -1.54 C 74.52 -1.54 74.07 -1.73 73.75 -2.1 C 73.42 -2.45 73.26 -2.86 73.26 -3.3 L 73.26 -3.74 C 73.26 -4.35 73.51 -4.86 74 -5.28 C 74.5 -5.71 75.12 -5.92 75.9 -5.92 L 76.89 -6 L 77.27 -6 C 77.8 -6 78.05 -5.69 78.05 -5.07 L 78.05 -4.59 C 78.05 -2.61 77.09 -1.54 75.5 -1.54 Z M 88.8 5.68 C 90.44 5.68 91.77 5.24 92.81 4.36 C 93.83 3.48 94.33 2.17 94.33 0.41 L 94.19 -2.49 C 94.19 -3.38 94.28 -4.62 94.39 -6.32 C 94.5 -8 94.56 -8.92 94.56 -9.08 L 94.56 -9.71 C 94.56 -10.83 94.02 -11.43 93.29 -11.43 L 92.92 -11.43 C 92.52 -11.43 92.07 -11.51 91.4 -11.74 C 90.77 -11.98 90.16 -12.09 89.58 -12.09 C 86.18 -12.09 84.39 -9.64 84.39 -6.47 L 84.39 -6.12 C 84.39 -3.03 86.04 -0.17 89.46 -0.17 C 90.13 -0.17 90.63 -0.2 90.98 -0.25 L 91.59 -0.33 C 91.94 -0.33 92.13 -0.13 92.13 0.28 C 92.13 2.38 90.81 3.54 88.71 3.54 C 88.39 3.54 88.02 3.5 87.58 3.43 C 87.14 3.36 86.77 3.3 86.5 3.3 C 85.71 3.31 85.31 3.57 85.31 4.09 C 85.31 4.9 87.03 5.68 88.8 5.68 Z M 86.5 -5.68 L 86.5 -6.2 C 86.5 -7.48 86.8 -8.48 87.4 -9.23 C 87.98 -9.98 88.74 -10.35 89.66 -10.35 L 89.99 -10.35 C 91.11 -10.35 91.87 -9.54 91.87 -8.14 L 91.9 -7.69 L 91.9 -7.31 L 91.93 -7.17 L 91.93 -6.53 L 91.9 -5.89 C 91.9 -4.05 91.62 -1.83 89.29 -1.83 L 88.85 -1.83 C 87.38 -1.83 86.5 -3.31 86.5 -5.68 Z M 103.1 0.17 L 103.64 0.17 C 105.58 0.17 107.87 -0.98 107.87 -1.97 C 107.87 -2.38 107.66 -2.58 107.23 -2.58 C 107.16 -2.58 106.71 -2.44 105.82 -2.21 C 104.98 -1.97 104.37 -1.85 103.96 -1.85 C 102.96 -1.85 102.14 -2.08 101.5 -2.55 C 100.86 -3.02 100.54 -3.65 100.54 -4.46 C 100.54 -4.93 100.89 -5.27 101.61 -5.45 C 101.8 -5.49 102.62 -5.59 104.16 -5.78 C 107.26 -6.16 108.08 -6.32 108.08 -8.33 C 108.08 -8.79 107.97 -9.3 107.76 -9.88 C 107.53 -10.45 107.21 -10.93 106.78 -11.34 C 106 -12.04 105.04 -12.38 103.88 -12.38 L 103.61 -12.38 C 100.14 -12.38 97.68 -9.74 97.68 -6.23 L 97.68 -5.68 C 97.68 -2.39 99.66 0.17 103.1 0.17 Z M 104.13 -7.31 L 103.88 -7.31 C 103.77 -7.26 103.65 -7.29 103.58 -7.25 L 101.58 -7.11 L 101.53 -7.08 L 101.23 -7.08 C 100.69 -7.07 100.42 -7.21 100.42 -7.5 L 100.42 -7.75 C 100.42 -9.26 101.77 -10.79 103.27 -10.79 L 103.58 -10.79 C 104.11 -10.79 104.6 -10.59 105.04 -10.2 C 105.48 -9.78 105.71 -9.29 105.71 -8.69 L 105.71 -8.18 C 105.71 -7.46 104.63 -7.31 104.13 -7.31 Z M 120.46 -0.03 L 121.18 -0.03 C 122.19 -0.03 123.04 -0.44 123.04 -0.99 C 123.04 -1.27 122.92 -1.63 122.68 -2.05 C 122.46 -2.49 122.32 -2.89 122.26 -3.21 C 122.22 -3.54 122.2 -5.2 122.2 -8.21 C 122.2 -11.21 122.27 -13.06 122.34 -13.75 C 122.39 -14.47 122.53 -15.02 122.77 -15.43 C 122.98 -15.9 123.09 -16.19 123.09 -16.3 L 123.09 -16.47 C 123.09 -16.69 122.95 -16.92 122.66 -17.16 C 122.33 -17.37 121.86 -17.49 121.27 -17.49 L 120.77 -17.49 C 120.15 -17.49 118.28 -17.32 118.28 -16.41 C 118.28 -16.11 118.42 -15.75 118.72 -15.31 C 119.03 -14.87 119.23 -14.36 119.3 -13.78 C 119.37 -13.2 119.41 -11.61 119.41 -8.99 C 119.41 -6.37 119.34 -4.76 119.27 -4.06 C 119.2 -3.43 119 -2.82 118.69 -2.24 C 118.42 -1.7 118.28 -1.3 118.28 -1.05 C 118.28 -0.24 119.92 -0.03 120.46 -0.03 Z M 127.82 -0.35 L 127.85 -0.35 C 128.86 -0.35 129.65 -0.85 129.65 -1.54 L 129.54 -3.79 C 129.54 -6.32 129.75 -8 130.17 -8.85 C 130.63 -9.86 131.53 -10.24 132.43 -10.24 C 133.36 -10.24 134.01 -9.78 134.38 -8.88 C 134.79 -7.7 135.07 -5.55 135.07 -2.27 L 135.05 -1.8 C 135.05 -0.88 135.47 -0.52 136.43 -0.52 C 137.55 -0.52 138.12 -0.89 138.12 -1.63 C 138.1 -1.81 138 -2.17 137.82 -2.66 C 137.44 -3.68 137.5 -4.64 137.42 -5.42 L 137.37 -6.78 C 137.27 -8.41 137.08 -9.47 136.9 -10.1 C 136.43 -11.24 135.41 -11.98 134.17 -11.98 L 133.83 -11.98 C 132.77 -11.98 131.77 -11.47 131.04 -11.13 C 130.67 -10.96 130.42 -10.88 130.29 -10.88 C 130.16 -10.88 129.82 -11.02 129.27 -11.31 C 128.73 -11.6 128.21 -11.74 127.68 -11.74 C 127.16 -11.75 126.89 -11.61 126.89 -11.31 L 127 -10.01 C 127 -9.8 127.02 -9.54 126.97 -9.1 L 126.97 -6.12 C 126.97 -4.15 127 -3.41 126.63 -2.49 C 126.48 -2 126.39 -1.6 126.39 -1.33 C 126.41 -0.68 126.88 -0.35 127.82 -0.35 Z M 145.18 -0.03 L 145.64 -0.03 C 146.13 -0.03 146.59 -0.16 147 -0.4 C 147.39 -0.64 147.59 -0.92 147.59 -1.25 C 147.59 -1.69 147.24 -1.95 146.54 -2.02 C 145.85 -2.12 145.34 -2.38 145.03 -2.79 C 144.73 -3.14 144.58 -4.23 144.58 -6.06 C 144.56 -7.86 144.73 -9.1 145.08 -9.8 C 145.3 -10.18 145.75 -10.49 146.43 -10.73 C 147.14 -11 147.49 -11.29 147.49 -11.6 C 147.51 -11.95 147.17 -12.23 146.49 -12.48 C 145.11 -12.91 145.01 -13.2 144.72 -14.44 C 144.56 -15.05 144.41 -15.46 144.28 -15.68 C 144.15 -15.87 143.91 -15.97 143.56 -15.97 C 142.86 -15.97 142.52 -15.49 142.14 -14.09 C 141.8 -12.72 141.87 -12.86 141.09 -12.32 C 140.71 -12.05 140.51 -11.81 140.51 -11.63 L 140.51 -11.46 C 140.51 -11.21 140.68 -10.92 141.01 -10.59 C 141.33 -10.27 141.54 -9.95 141.64 -9.66 C 141.86 -8.92 141.96 -7.6 141.96 -5.71 C 141.96 -3.78 142.2 -2.35 142.66 -1.43 C 143.13 -0.5 143.97 -0.03 145.18 -0.03 Z M 155.24 0.17 L 155.78 0.17 C 157.72 0.17 160.01 -0.98 160.01 -1.97 C 160.01 -2.38 159.8 -2.58 159.37 -2.58 C 159.3 -2.58 158.85 -2.44 157.96 -2.21 C 157.12 -1.97 156.51 -1.85 156.1 -1.85 C 155.1 -1.85 154.27 -2.08 153.64 -2.55 C 153 -3.02 152.67 -3.65 152.67 -4.46 C 152.67 -4.93 153.03 -5.27 153.75 -5.45 C 153.94 -5.49 154.76 -5.59 156.3 -5.78 C 159.4 -6.16 160.22 -6.32 160.22 -8.33 C 160.22 -8.79 160.11 -9.3 159.9 -9.88 C 159.67 -10.45 159.34 -10.93 158.92 -11.34 C 158.14 -12.04 157.18 -12.38 156.02 -12.38 L 155.75 -12.38 C 152.28 -12.38 149.81 -9.74 149.81 -6.23 L 149.81 -5.68 C 149.81 -2.39 151.8 0.17 155.24 0.17 Z M 156.27 -7.31 L 156.02 -7.31 C 155.9 -7.26 155.79 -7.29 155.72 -7.25 L 153.72 -7.11 L 153.67 -7.08 L 153.37 -7.08 C 152.83 -7.07 152.56 -7.21 152.56 -7.5 L 152.56 -7.75 C 152.56 -9.26 153.91 -10.79 155.41 -10.79 L 155.72 -10.79 C 156.24 -10.79 156.74 -10.59 157.18 -10.2 C 157.62 -9.78 157.84 -9.29 157.84 -8.69 L 157.84 -8.18 C 157.84 -7.46 156.77 -7.31 156.27 -7.31 Z M 163.38 -17.19 C 163.38 -17.09 163.45 -16.79 163.61 -16.27 C 163.79 -15.77 163.88 -15.07 163.88 -14.12 L 163.88 -11.77 L 163.85 -11.31 L 163.85 -8.94 L 163.82 -8.69 L 163.82 -7.28 L 163.79 -7.05 L 163.73 -4.06 C 163.68 -3.04 163.68 -2.39 163.61 -2.05 C 163.54 -1.67 163.49 -1.46 163.49 -1.39 C 163.49 -0.47 164.09 0 165.26 0 L 165.7 0 C 167 0 167.7 -0.52 167.7 -1.08 C 167.7 -1.39 167.57 -1.74 167.32 -2.12 C 167.08 -2.51 166.88 -3.03 166.72 -3.72 C 166.57 -4.4 166.48 -5.06 166.48 -5.68 C 166.48 -6.34 166.47 -6.71 166.45 -6.81 L 166.42 -8.41 L 166.42 -10.29 L 166.45 -10.52 L 166.45 -11.71 L 166.51 -13.14 L 166.51 -17.23 C 166.44 -17.87 166 -18.18 165.21 -18.18 L 165.01 -18.18 C 163.92 -18.18 163.38 -17.86 163.38 -17.19 Z M 170.77 -17.19 C 170.77 -17.09 170.84 -16.79 171 -16.27 C 171.18 -15.77 171.27 -15.07 171.27 -14.12 L 171.27 -11.77 L 171.24 -11.31 L 171.24 -8.94 L 171.21 -8.69 L 171.21 -7.28 L 171.18 -7.05 L 171.13 -4.06 C 171.07 -3.04 171.07 -2.39 171 -2.05 C 170.93 -1.67 170.88 -1.46 170.88 -1.39 C 170.88 -0.47 171.48 0 172.65 0 L 173.09 0 C 174.4 0 175.09 -0.52 175.09 -1.08 C 175.09 -1.39 174.96 -1.74 174.71 -2.12 C 174.47 -2.51 174.27 -3.03 174.11 -3.72 C 173.96 -4.4 173.87 -5.06 173.87 -5.68 C 173.87 -6.34 173.86 -6.71 173.84 -6.81 L 173.82 -8.41 L 173.82 -10.29 L 173.84 -10.52 L 173.84 -11.71 L 173.9 -13.14 L 173.9 -17.23 C 173.83 -17.87 173.39 -18.18 172.6 -18.18 L 172.4 -18.18 C 171.31 -18.18 170.77 -17.86 170.77 -17.19 Z M 179.35 0 L 179.99 0 C 181.14 0 182.01 -0.47 182.01 -1.16 C 182.01 -1.46 181.94 -1.77 181.79 -2.08 C 181.38 -2.79 181.18 -3.64 181.18 -4.62 L 181.09 -6.39 L 181.09 -9.22 C 181.09 -11.87 181.14 -12.12 179.93 -12.12 L 179.49 -12.12 C 178.49 -12.12 177.99 -11.88 177.99 -11.4 L 177.99 -11.13 C 177.99 -11.12 178.08 -10.88 178.25 -10.44 L 178.36 -10.18 C 178.46 -9.91 178.53 -9.53 178.57 -9.05 L 178.57 -4.15 L 178.52 -3.19 C 178.5 -2.8 178.43 -2.41 178.3 -2 C 178.15 -1.5 178.08 -1.16 178.08 -0.99 C 178.08 -0.48 178.66 0 179.35 0 Z M 180.22 -17.49 L 179.79 -17.49 C 179.32 -17.49 178.98 -17.36 178.77 -17.11 C 178.56 -16.85 178.45 -16.62 178.45 -16.44 L 178.39 -16.04 L 178.39 -15.97 L 178.45 -15.58 C 178.45 -15.32 178.55 -15.09 178.76 -14.9 C 178.97 -14.68 179.14 -14.58 179.3 -14.58 C 179.47 -14.58 179.59 -14.57 179.66 -14.56 L 180.07 -14.56 L 180.3 -14.58 C 181.04 -14.58 181.52 -15.22 181.52 -15.92 L 181.52 -16.21 C 181.52 -17.06 180.91 -17.49 180.22 -17.49 Z M 189.49 5.68 C 191.13 5.68 192.46 5.24 193.5 4.36 C 194.52 3.48 195.03 2.17 195.03 0.41 L 194.89 -2.49 C 194.89 -3.38 194.97 -4.62 195.08 -6.32 C 195.2 -8 195.25 -8.92 195.25 -9.08 L 195.25 -9.71 C 195.25 -10.83 194.72 -11.43 193.98 -11.43 L 193.61 -11.43 C 193.22 -11.43 192.76 -11.51 192.1 -11.74 C 191.46 -11.98 190.85 -12.09 190.27 -12.09 C 186.87 -12.09 185.09 -9.64 185.09 -6.47 L 185.09 -6.12 C 185.09 -3.03 186.73 -0.17 190.16 -0.17 C 190.82 -0.17 191.32 -0.2 191.67 -0.25 L 192.28 -0.33 C 192.63 -0.33 192.82 -0.13 192.82 0.28 C 192.82 2.38 191.5 3.54 189.41 3.54 C 189.08 3.54 188.71 3.5 188.27 3.43 C 187.83 3.36 187.47 3.3 187.2 3.3 C 186.4 3.31 186.01 3.57 186.01 4.09 C 186.01 4.9 187.72 5.68 189.49 5.68 Z M 187.2 -5.68 L 187.2 -6.2 C 187.2 -7.48 187.49 -8.48 188.09 -9.23 C 188.67 -9.98 189.43 -10.35 190.35 -10.35 L 190.68 -10.35 C 191.8 -10.35 192.56 -9.54 192.56 -8.14 L 192.59 -7.69 L 192.59 -7.31 L 192.62 -7.17 L 192.62 -6.53 L 192.59 -5.89 C 192.59 -4.05 192.31 -1.83 189.99 -1.83 L 189.55 -1.83 C 188.08 -1.83 187.2 -3.31 187.2 -5.68 Z M 203.79 0.17 L 204.33 0.17 C 206.27 0.17 208.56 -0.98 208.56 -1.97 C 208.56 -2.38 208.35 -2.58 207.93 -2.58 C 207.86 -2.58 207.4 -2.44 206.51 -2.21 C 205.68 -1.97 205.07 -1.85 204.66 -1.85 C 203.65 -1.85 202.83 -2.08 202.19 -2.55 C 201.56 -3.02 201.23 -3.65 201.23 -4.46 C 201.23 -4.93 201.58 -5.27 202.31 -5.45 C 202.49 -5.49 203.31 -5.59 204.85 -5.78 C 207.96 -6.16 208.78 -6.32 208.78 -8.33 C 208.78 -8.79 208.66 -9.3 208.45 -9.88 C 208.23 -10.45 207.9 -10.93 207.47 -11.34 C 206.7 -12.04 205.73 -12.38 204.57 -12.38 L 204.3 -12.38 C 200.83 -12.38 198.37 -9.74 198.37 -6.23 L 198.37 -5.68 C 198.37 -2.39 200.35 0.17 203.79 0.17 Z M 204.83 -7.31 L 204.57 -7.31 C 204.46 -7.26 204.35 -7.29 204.27 -7.25 L 202.28 -7.11 L 202.22 -7.08 L 201.92 -7.08 C 201.39 -7.07 201.12 -7.21 201.12 -7.5 L 201.12 -7.75 C 201.12 -9.26 202.46 -10.79 203.96 -10.79 L 204.27 -10.79 C 204.8 -10.79 205.29 -10.59 205.73 -10.2 C 206.17 -9.78 206.4 -9.29 206.4 -8.69 L 206.4 -8.18 C 206.4 -7.46 205.32 -7.31 204.83 -7.31 Z M 213.07 -0.35 L 213.1 -0.35 C 214.1 -0.35 214.89 -0.85 214.89 -1.54 L 214.78 -3.79 C 214.78 -6.32 214.99 -8 215.42 -8.85 C 215.87 -9.86 216.78 -10.24 217.67 -10.24 C 218.6 -10.24 219.26 -9.78 219.62 -8.88 C 220.03 -7.7 220.32 -5.55 220.32 -2.27 L 220.29 -1.8 C 220.29 -0.88 220.71 -0.52 221.68 -0.52 C 222.8 -0.52 223.36 -0.89 223.36 -1.63 C 223.35 -1.81 223.25 -2.17 223.06 -2.66 C 222.68 -3.68 222.74 -4.64 222.67 -5.42 L 222.61 -6.78 C 222.51 -8.41 222.33 -9.47 222.14 -10.1 C 221.68 -11.24 220.66 -11.98 219.41 -11.98 L 219.07 -11.98 C 218.01 -11.98 217.02 -11.47 216.28 -11.13 C 215.91 -10.96 215.66 -10.88 215.53 -10.88 C 215.4 -10.88 215.06 -11.02 214.51 -11.31 C 213.97 -11.6 213.45 -11.74 212.93 -11.74 C 212.4 -11.75 212.13 -11.61 212.13 -11.31 L 212.25 -10.01 C 212.25 -9.8 212.26 -9.54 212.22 -9.1 L 212.22 -6.12 C 212.22 -4.15 212.25 -3.41 211.88 -2.49 C 211.72 -2 211.64 -1.6 211.64 -1.33 C 211.65 -0.68 212.12 -0.35 213.07 -0.35 Z M 231.04 0.14 L 231.29 0.14 C 233.27 0.14 235.61 -1.03 235.61 -2.05 C 235.61 -2.42 235.44 -2.61 235.12 -2.61 C 234.95 -2.62 234.48 -2.49 233.7 -2.24 C 232.89 -2 232.21 -1.88 231.67 -1.88 C 229.69 -1.88 228.33 -3.34 228.33 -6.12 C 228.33 -8.91 229.49 -10.46 231.12 -10.46 C 231.66 -10.48 232.25 -10.34 232.89 -10.07 C 233.1 -9.86 234.04 -9.37 234.34 -9.37 C 235 -9.36 235.33 -9.69 235.33 -10.32 C 235.33 -10.93 235 -11.43 234.35 -11.84 C 233.69 -12.25 232.84 -12.45 231.79 -12.45 C 229.85 -12.45 228.36 -11.87 227.3 -10.71 C 226.24 -9.54 225.7 -7.99 225.7 -6.03 L 225.7 -5.75 C 225.7 -2.35 227.58 0.14 231.04 0.14 Z M 243.06 0.17 L 243.6 0.17 C 245.54 0.17 247.83 -0.98 247.83 -1.97 C 247.83 -2.38 247.62 -2.58 247.19 -2.58 C 247.12 -2.58 246.67 -2.44 245.78 -2.21 C 244.94 -1.97 244.33 -1.85 243.92 -1.85 C 242.92 -1.85 242.1 -2.08 241.46 -2.55 C 240.82 -3.02 240.5 -3.65 240.5 -4.46 C 240.5 -4.93 240.85 -5.27 241.57 -5.45 C 241.76 -5.49 242.58 -5.59 244.12 -5.78 C 247.22 -6.16 248.04 -6.32 248.04 -8.33 C 248.04 -8.79 247.93 -9.3 247.72 -9.88 C 247.49 -10.45 247.17 -10.93 246.74 -11.34 C 245.96 -12.04 245 -12.38 243.84 -12.38 L 243.57 -12.38 C 240.1 -12.38 237.64 -9.74 237.64 -6.23 L 237.64 -5.68 C 237.64 -2.39 239.62 0.17 243.06 0.17 Z M 244.09 -7.31 L 243.84 -7.31 C 243.72 -7.26 243.61 -7.29 243.54 -7.25 L 241.54 -7.11 L 241.49 -7.08 L 241.19 -7.08 C 240.65 -7.07 240.38 -7.21 240.38 -7.5 L 240.38 -7.75 C 240.38 -9.26 241.73 -10.79 243.23 -10.79 L 243.54 -10.79 C 244.06 -10.79 244.56 -10.59 245 -10.2 C 245.44 -9.78 245.66 -9.29 245.66 -8.69 L 245.66 -8.18 C 245.66 -7.46 244.59 -7.31 244.09 -7.31 Z M 262.91 0.08 C 263.49 0.08 264.19 0.01 264.99 -0.14 C 266.54 -0.52 269.2 -0.78 269.5 -0.78 C 269.65 -0.78 269.91 -0.75 270.27 -0.69 L 270.53 -0.64 L 271.24 -0.55 C 271.72 -0.54 271.96 -0.65 271.96 -0.89 C 271.95 -0.98 271.66 -1.39 271.11 -2.12 C 270.57 -2.85 270.3 -3.48 270.3 -4.04 C 270.3 -4.62 270.52 -5.4 270.94 -6.36 C 271.35 -7.33 271.55 -7.87 271.55 -7.97 C 271.55 -8.4 271.38 -8.61 271.05 -8.61 C 270.26 -8.61 269.51 -8.17 268.79 -7.28 C 268.62 -7.04 268.46 -6.92 268.31 -6.92 C 267.74 -6.92 267.24 -7.05 266.83 -7.29 C 266.42 -7.53 266.21 -7.87 266.21 -8.3 C 266.21 -8.71 266.42 -9.63 266.76 -11.1 C 267.13 -12.52 267.32 -13.37 267.32 -13.64 C 267.32 -14.58 267.02 -15.38 266.44 -16.02 C 265.84 -16.65 265.08 -16.96 264.16 -16.96 L 263.8 -16.96 C 261.48 -16.96 259.95 -15.19 259.95 -13.17 C 259.95 -12.65 260.11 -11.99 260.42 -11.2 C 260.72 -10.44 260.87 -10 260.87 -9.88 C 260.89 -9.6 260.55 -9.1 259.87 -8.38 C 258.61 -7.15 257.98 -5.9 257.98 -4.67 L 257.98 -4.29 C 257.98 -1.59 260.39 0.08 262.91 0.08 Z M 263.58 -1.69 L 263.38 -1.69 C 261.65 -1.69 260.32 -3.16 260.32 -4.79 L 260.32 -5.1 L 260.36 -5.31 C 260.36 -6.27 261.75 -8.11 262.39 -8.11 L 262.53 -8.11 C 262.61 -8.11 263.14 -7.49 264.1 -6.23 L 266.42 -3.21 L 266.42 -3.13 C 266.42 -2.56 264.85 -1.69 263.58 -1.69 Z M 264.04 -15.92 L 264.36 -15.92 C 264.74 -15.92 265.08 -15.72 265.35 -15.31 C 265.62 -14.9 265.74 -14.47 265.74 -14 L 265.74 -13.83 L 265.72 -13.45 C 265.72 -12.72 264.72 -10.65 263.8 -10.65 L 263.78 -10.65 C 263.52 -10.65 262.42 -12.43 262.42 -13.2 C 262.42 -13.27 262.39 -13.35 262.39 -13.54 L 262.39 -14.06 C 262.39 -14.5 262.56 -14.92 262.9 -15.32 C 263.24 -15.72 263.62 -15.92 264.04 -15.92 Z M 283.51 -13.42 L 283.57 -11.23 L 283.57 -10.49 L 283.6 -10.12 L 283.6 -6.58 C 283.6 -5.23 283.59 -4.39 283.54 -4.01 C 283.49 -3.6 283.36 -3.2 283.17 -2.79 C 282.98 -2.38 282.88 -2.07 282.88 -1.83 C 282.88 -0.71 283.53 -0.28 284.68 -0.28 C 285.79 -0.28 286.7 -0.71 286.7 -1.71 C 286.7 -1.81 286.64 -2.12 286.53 -2.66 C 286.42 -3.21 286.36 -3.82 286.36 -4.46 C 286.36 -5.13 286.49 -5.69 286.73 -6.19 C 286.97 -6.68 287.39 -6.92 288.02 -6.92 C 289.21 -6.92 289.42 -6.68 291.2 -3.65 C 292.1 -2.15 292.68 -1.26 292.95 -0.99 C 293.41 -0.5 293.92 -0.25 294.5 -0.25 L 294.8 -0.25 C 295.41 -0.25 295.72 -0.45 295.72 -0.84 L 295.72 -1.08 C 295.73 -1.32 295.4 -1.8 294.72 -2.52 C 294.36 -2.87 293.7 -3.92 293.12 -4.97 C 292.53 -6.02 292.04 -7.04 292.04 -7.48 C 292.05 -7.84 292.35 -8.35 292.95 -9.02 C 294.09 -10.25 294.69 -11.33 294.69 -12.84 C 294.69 -13.58 294.59 -14.19 294.36 -14.7 C 293.58 -16.64 291.6 -17.6 288.41 -17.6 L 287.64 -17.6 C 286.04 -17.6 284.89 -17.54 284.21 -17.43 C 283.57 -17.32 283.26 -17.09 283.26 -16.77 C 283.26 -16.58 283.3 -16.3 283.37 -15.89 C 283.44 -15.48 283.49 -15.02 283.49 -14.5 C 283.49 -14.03 283.47 -13.65 283.51 -13.42 Z M 287.66 -8.94 L 287.35 -8.94 C 286.86 -8.94 286.53 -9.02 286.4 -9.19 C 286.26 -9.35 286.19 -9.71 286.19 -10.27 L 286.19 -12.73 L 286.22 -13.08 L 286.22 -14 L 286.28 -14.78 C 286.28 -15.24 286.42 -15.52 286.7 -15.63 C 286.97 -15.75 287.3 -15.8 287.66 -15.8 L 288.19 -15.86 L 288.63 -15.86 C 290.71 -15.86 291.95 -14.71 291.95 -12.9 L 291.95 -12.29 C 291.95 -11.27 291.57 -10.46 290.79 -9.86 C 290.01 -9.25 288.98 -8.94 287.66 -8.94 Z M 303.58 0.17 L 304.12 0.17 C 306.06 0.17 308.35 -0.98 308.35 -1.97 C 308.35 -2.38 308.14 -2.58 307.71 -2.58 C 307.64 -2.58 307.19 -2.44 306.3 -2.21 C 305.46 -1.97 304.85 -1.85 304.44 -1.85 C 303.44 -1.85 302.62 -2.08 301.98 -2.55 C 301.34 -3.02 301.02 -3.65 301.02 -4.46 C 301.02 -4.93 301.37 -5.27 302.09 -5.45 C 302.28 -5.49 303.1 -5.59 304.64 -5.78 C 307.74 -6.16 308.56 -6.32 308.56 -8.33 C 308.56 -8.79 308.45 -9.3 308.24 -9.88 C 308.01 -10.45 307.69 -10.93 307.26 -11.34 C 306.48 -12.04 305.52 -12.38 304.36 -12.38 L 304.09 -12.38 C 300.62 -12.38 298.16 -9.74 298.16 -6.23 L 298.16 -5.68 C 298.16 -2.39 300.14 0.17 303.58 0.17 Z M 304.61 -7.31 L 304.36 -7.31 C 304.25 -7.26 304.13 -7.29 304.06 -7.25 L 302.06 -7.11 L 302.01 -7.08 L 301.71 -7.08 C 301.17 -7.07 300.9 -7.21 300.9 -7.5 L 300.9 -7.75 C 300.9 -9.26 302.25 -10.79 303.75 -10.79 L 304.06 -10.79 C 304.58 -10.79 305.08 -10.59 305.52 -10.2 C 305.96 -9.78 306.19 -9.29 306.19 -8.69 L 306.19 -8.18 C 306.19 -7.46 305.11 -7.31 304.61 -7.31 Z M 312.85 5.23 C 314.14 5.23 315.02 4.55 315.02 3.54 C 315.02 3.3 314.96 2.96 314.85 2.49 C 314.78 2.04 314.68 1.66 314.68 1.47 C 314.68 0.24 315.46 -0.1 317 -0.17 C 320.8 -0.33 322.82 -3 322.82 -6.56 L 322.82 -7.17 C 322.84 -8.58 322.48 -9.77 321.76 -10.73 C 321.44 -11.21 320.98 -11.61 320.4 -11.94 C 319.82 -12.26 319.24 -12.42 318.65 -12.42 L 318.07 -12.42 C 317.54 -12.42 316.95 -12.31 316.27 -12.06 C 315.63 -11.84 315.21 -11.68 315.02 -11.68 C 314.84 -11.68 314.62 -11.74 314.19 -11.81 L 313.8 -11.89 C 313.51 -11.95 313.31 -11.98 313.19 -11.98 C 312.16 -11.98 311.64 -11.75 311.64 -11.31 C 311.64 -11.21 311.71 -10.9 311.86 -10.41 C 312 -9.94 312.08 -9.27 312.08 -8.38 L 312.08 -4.49 C 312.08 -1.74 311.91 1.73 311.83 2.27 C 311.79 2.56 311.71 2.9 311.58 3.27 C 311.45 3.65 311.4 3.96 311.4 4.18 C 311.41 4.87 311.89 5.23 312.85 5.23 Z M 320.1 -6.78 L 320.1 -6.09 C 320.1 -4.72 319.82 -3.64 319.24 -2.85 C 318.66 -2.05 317.92 -1.66 317.03 -1.66 L 316.79 -1.66 C 315.93 -1.66 315.33 -1.9 315.02 -2.38 C 314.7 -2.86 314.54 -3.72 314.54 -4.96 L 314.54 -6.39 C 314.53 -7.99 314.67 -9.02 314.94 -9.46 C 315.52 -10.35 316.45 -10.79 317.23 -10.79 L 317.46 -10.79 C 318.26 -10.79 318.92 -10.42 319.4 -9.7 C 319.86 -8.98 320.1 -8 320.1 -6.78 Z M 331.49 -9.83 C 331.84 -9.83 332.18 -9.8 332.54 -9.74 C 333.34 -9.74 333.75 -10.12 333.75 -10.88 C 333.75 -11.61 333.22 -12.09 332.21 -12.09 L 332.01 -12.09 C 331.48 -12.09 330.78 -11.81 329.93 -11.26 C 329.62 -11.04 329.41 -10.93 329.29 -10.93 C 329.17 -10.93 329.04 -11 328.91 -11.13 C 328.54 -11.63 327.92 -11.87 327.03 -11.87 C 326.17 -11.85 325.73 -11.6 325.73 -11.1 C 325.73 -10.93 325.8 -10.68 325.95 -10.35 C 326.11 -9.93 326.19 -9.52 326.19 -9.1 L 326.19 -8.21 L 326.22 -7.53 L 326.22 -5.48 C 326.22 -4.7 326.21 -4.09 326.19 -3.65 C 326.17 -3.21 326.08 -2.73 325.92 -2.24 C 325.75 -1.74 325.67 -1.46 325.67 -1.39 L 325.67 -1.19 C 325.67 -0.64 326.28 -0.11 327.06 -0.11 L 327.28 -0.11 L 327.5 -0.08 C 328.73 -0.08 329.58 -0.69 329.58 -1.36 C 329.58 -1.69 329.48 -2.05 329.41 -2.49 C 329.18 -3.43 329.03 -3.68 329.03 -5.1 C 329.03 -8.31 329.95 -9.83 331.49 -9.83 Z M 340.86 0.17 L 341.4 0.17 C 343.34 0.17 345.64 -0.98 345.64 -1.97 C 345.64 -2.38 345.42 -2.58 345 -2.58 C 344.93 -2.58 344.47 -2.44 343.58 -2.21 C 342.75 -1.97 342.14 -1.85 341.73 -1.85 C 340.72 -1.85 339.9 -2.08 339.26 -2.55 C 338.63 -3.02 338.3 -3.65 338.3 -4.46 C 338.3 -4.93 338.65 -5.27 339.38 -5.45 C 339.56 -5.49 340.38 -5.59 341.93 -5.78 C 345.03 -6.16 345.85 -6.32 345.85 -8.33 C 345.85 -8.79 345.73 -9.3 345.52 -9.88 C 345.3 -10.45 344.97 -10.93 344.54 -11.34 C 343.77 -12.04 342.8 -12.38 341.64 -12.38 L 341.37 -12.38 C 337.9 -12.38 335.44 -9.74 335.44 -6.23 L 335.44 -5.68 C 335.44 -2.39 337.42 0.17 340.86 0.17 Z M 341.9 -7.31 L 341.64 -7.31 C 341.53 -7.26 341.42 -7.29 341.34 -7.25 L 339.35 -7.11 L 339.29 -7.08 L 338.99 -7.08 C 338.46 -7.07 338.19 -7.21 338.19 -7.5 L 338.19 -7.75 C 338.19 -9.26 339.53 -10.79 341.03 -10.79 L 341.34 -10.79 C 341.87 -10.79 342.36 -10.59 342.8 -10.2 C 343.24 -9.78 343.47 -9.29 343.47 -8.69 L 343.47 -8.18 C 343.47 -7.46 342.39 -7.31 341.9 -7.31 Z M 348.68 -9.22 C 348.68 -7.05 350.35 -6.16 352.13 -5.48 C 354.37 -4.55 355.09 -4.26 355.09 -3.21 C 355.09 -2.21 354.3 -1.63 352.94 -1.63 C 352.28 -1.63 351.53 -1.85 350.72 -2.32 C 349.85 -2.75 349.36 -2.96 349.23 -2.96 C 348.79 -2.96 348.57 -2.61 348.57 -1.88 C 348.58 -1.67 348.67 -1.43 348.84 -1.13 C 349.39 -0.24 350.8 0.2 353.07 0.2 C 355.76 0.2 357.64 -1.36 357.64 -3.43 C 357.64 -4.45 357.35 -5.23 356.77 -5.75 C 356.17 -6.27 355.31 -6.75 354.16 -7.22 C 351.87 -8.16 351.21 -8.34 351.21 -9.27 C 351.21 -10.22 351.84 -10.85 353.13 -10.85 C 353.73 -10.85 354.4 -10.68 355.09 -10.35 C 355.79 -10 356.21 -9.83 356.37 -9.83 C 356.81 -9.83 357.03 -10.18 357.03 -10.88 C 357.05 -12.53 354.34 -12.62 353.24 -12.62 C 350.59 -12.62 348.68 -11.23 348.68 -9.22 Z M 365.16 0.17 L 365.7 0.17 C 367.64 0.17 369.93 -0.98 369.93 -1.97 C 369.93 -2.38 369.72 -2.58 369.3 -2.58 C 369.23 -2.58 368.77 -2.44 367.88 -2.21 C 367.05 -1.97 366.44 -1.85 366.03 -1.85 C 365.02 -1.85 364.2 -2.08 363.56 -2.55 C 362.92 -3.02 362.6 -3.65 362.6 -4.46 C 362.6 -4.93 362.95 -5.27 363.68 -5.45 C 363.86 -5.49 364.68 -5.59 366.22 -5.78 C 369.33 -6.16 370.15 -6.32 370.15 -8.33 C 370.15 -8.79 370.03 -9.3 369.82 -9.88 C 369.59 -10.45 369.27 -10.93 368.84 -11.34 C 368.06 -12.04 367.1 -12.38 365.94 -12.38 L 365.67 -12.38 C 362.2 -12.38 359.74 -9.74 359.74 -6.23 L 359.74 -5.68 C 359.74 -2.39 361.72 0.17 365.16 0.17 Z M 366.2 -7.31 L 365.94 -7.31 C 365.83 -7.26 365.71 -7.29 365.64 -7.25 L 363.65 -7.11 L 363.59 -7.08 L 363.29 -7.08 C 362.75 -7.07 362.49 -7.21 362.49 -7.5 L 362.49 -7.75 C 362.49 -9.26 363.83 -10.79 365.33 -10.79 L 365.64 -10.79 C 366.17 -10.79 366.66 -10.59 367.1 -10.2 C 367.54 -9.78 367.77 -9.29 367.77 -8.69 L 367.77 -8.18 C 367.77 -7.46 366.69 -7.31 366.2 -7.31 Z M 374.44 -0.35 L 374.47 -0.35 C 375.47 -0.35 376.26 -0.85 376.26 -1.54 L 376.15 -3.79 C 376.15 -6.32 376.36 -8 376.79 -8.85 C 377.24 -9.86 378.15 -10.24 379.04 -10.24 C 379.97 -10.24 380.63 -9.78 380.99 -8.88 C 381.4 -7.7 381.69 -5.55 381.69 -2.27 L 381.66 -1.8 C 381.66 -0.88 382.08 -0.52 383.05 -0.52 C 384.17 -0.52 384.73 -0.89 384.73 -1.63 C 384.72 -1.81 384.62 -2.17 384.43 -2.66 C 384.05 -3.68 384.11 -4.64 384.04 -5.42 L 383.98 -6.78 C 383.88 -8.41 383.7 -9.47 383.51 -10.1 C 383.05 -11.24 382.03 -11.98 380.78 -11.98 L 380.44 -11.98 C 379.38 -11.98 378.39 -11.47 377.65 -11.13 C 377.28 -10.96 377.03 -10.88 376.9 -10.88 C 376.77 -10.88 376.43 -11.02 375.88 -11.31 C 375.34 -11.6 374.82 -11.74 374.3 -11.74 C 373.77 -11.75 373.5 -11.61 373.5 -11.31 L 373.62 -10.01 C 373.62 -9.8 373.63 -9.54 373.59 -9.1 L 373.59 -6.12 C 373.59 -4.15 373.62 -3.41 373.25 -2.49 C 373.09 -2 373.01 -1.6 373.01 -1.33 C 373.02 -0.68 373.49 -0.35 374.44 -0.35 Z M 391.8 -0.03 L 392.25 -0.03 C 392.75 -0.03 393.2 -0.16 393.61 -0.4 C 394.01 -0.64 394.2 -0.92 394.2 -1.25 C 394.2 -1.69 393.85 -1.95 393.16 -2.02 C 392.46 -2.12 391.95 -2.38 391.64 -2.79 C 391.34 -3.14 391.19 -4.23 391.19 -6.06 C 391.17 -7.86 391.34 -9.1 391.7 -9.8 C 391.91 -10.18 392.36 -10.49 393.04 -10.73 C 393.75 -11 394.11 -11.29 394.11 -11.6 C 394.12 -11.95 393.78 -12.23 393.1 -12.48 C 391.73 -12.91 391.63 -13.2 391.33 -14.44 C 391.17 -15.05 391.02 -15.46 390.89 -15.68 C 390.76 -15.87 390.52 -15.97 390.17 -15.97 C 389.48 -15.97 389.14 -15.49 388.75 -14.09 C 388.41 -12.72 388.48 -12.86 387.71 -12.32 C 387.32 -12.05 387.12 -11.81 387.12 -11.63 L 387.12 -11.46 C 387.12 -11.21 387.29 -10.92 387.62 -10.59 C 387.95 -10.27 388.16 -9.95 388.26 -9.66 C 388.47 -8.92 388.57 -7.6 388.57 -5.71 C 388.57 -3.78 388.81 -2.35 389.28 -1.43 C 389.74 -0.5 390.58 -0.03 391.8 -0.03 Z M 407.2 -0.96 C 407.2 -1.23 407.1 -1.54 406.89 -1.88 C 406.65 -2.24 406.51 -2.61 406.45 -2.99 C 406.4 -3.34 406.37 -4.26 406.37 -5.78 C 406.37 -8.44 406.13 -10.12 405.65 -10.85 C 404.98 -11.88 403.68 -12.56 402.05 -12.56 L 401.41 -12.56 C 399.23 -12.56 397.23 -11.54 397.23 -10.62 C 397.23 -9.88 397.5 -9.52 398.04 -9.52 C 398.34 -9.52 398.89 -9.71 399.7 -10.12 C 400.46 -10.51 401.16 -10.71 401.78 -10.71 C 402.98 -10.71 403.73 -9.91 403.73 -8.79 C 403.73 -8.26 403.54 -7.87 403.13 -7.66 C 403.08 -7.65 402.19 -7.46 400.45 -7.11 C 397.79 -6.61 396.46 -5.31 396.46 -3.19 C 396.46 -1.13 398 0.14 399.78 0.14 L 400.08 0.14 C 400.68 0.16 401.36 0.01 402.11 -0.28 C 402.86 -0.58 403.31 -0.72 403.47 -0.72 C 403.62 -0.72 403.96 -0.62 404.46 -0.44 C 405.01 -0.2 405.35 -0.11 405.53 -0.11 C 406.65 -0.13 407.2 -0.41 407.2 -0.96 Z M 401.3 -1.54 L 400.92 -1.54 C 400.32 -1.54 399.87 -1.73 399.54 -2.1 C 399.22 -2.45 399.06 -2.86 399.06 -3.3 L 399.06 -3.74 C 399.06 -4.35 399.3 -4.86 399.8 -5.28 C 400.29 -5.71 400.92 -5.92 401.7 -5.92 L 402.69 -6 L 403.07 -6 C 403.59 -6 403.85 -5.69 403.85 -5.07 L 403.85 -4.59 C 403.85 -2.61 402.88 -1.54 401.3 -1.54 Z M 414.4 -0.03 L 414.85 -0.03 C 415.35 -0.03 415.8 -0.16 416.21 -0.4 C 416.61 -0.64 416.8 -0.92 416.8 -1.25 C 416.8 -1.69 416.45 -1.95 415.76 -2.02 C 415.06 -2.12 414.55 -2.38 414.24 -2.79 C 413.94 -3.14 413.79 -4.23 413.79 -6.06 C 413.77 -7.86 413.94 -9.1 414.3 -9.8 C 414.51 -10.18 414.96 -10.49 415.64 -10.73 C 416.35 -11 416.71 -11.29 416.71 -11.6 C 416.72 -11.95 416.38 -12.23 415.7 -12.48 C 414.33 -12.91 414.23 -13.2 413.93 -14.44 C 413.77 -15.05 413.62 -15.46 413.49 -15.68 C 413.36 -15.87 413.12 -15.97 412.77 -15.97 C 412.07 -15.97 411.73 -15.49 411.35 -14.09 C 411.01 -12.72 411.08 -12.86 410.3 -12.32 C 409.92 -12.05 409.72 -11.81 409.72 -11.63 L 409.72 -11.46 C 409.72 -11.21 409.89 -10.92 410.22 -10.59 C 410.55 -10.27 410.76 -9.95 410.86 -9.66 C 411.07 -8.92 411.17 -7.6 411.17 -5.71 C 411.17 -3.78 411.41 -2.35 411.88 -1.43 C 412.34 -0.5 413.18 -0.03 414.4 -0.03 Z M 421.02 0 L 421.66 0 C 422.81 0 423.69 -0.47 423.69 -1.16 C 423.69 -1.46 423.62 -1.77 423.46 -2.08 C 423.05 -2.79 422.85 -3.64 422.85 -4.62 L 422.77 -6.39 L 422.77 -9.22 C 422.77 -11.87 422.81 -12.12 421.6 -12.12 L 421.17 -12.12 C 420.16 -12.12 419.66 -11.88 419.66 -11.4 L 419.66 -11.13 C 419.66 -11.12 419.75 -10.88 419.92 -10.44 L 420.03 -10.18 C 420.13 -9.91 420.2 -9.53 420.25 -9.05 L 420.25 -4.15 L 420.19 -3.19 C 420.17 -2.8 420.1 -2.41 419.98 -2 C 419.82 -1.5 419.75 -1.16 419.75 -0.99 C 419.75 -0.48 420.33 0 421.02 0 Z M 421.89 -17.49 L 421.46 -17.49 C 421 -17.49 420.66 -17.36 420.44 -17.11 C 420.23 -16.85 420.12 -16.62 420.12 -16.44 L 420.06 -16.04 L 420.06 -15.97 L 420.12 -15.58 C 420.12 -15.32 420.22 -15.09 420.43 -14.9 C 420.64 -14.68 420.81 -14.58 420.97 -14.58 C 421.14 -14.58 421.26 -14.57 421.34 -14.56 L 421.75 -14.56 L 421.97 -14.58 C 422.71 -14.58 423.19 -15.22 423.19 -15.92 L 423.19 -16.21 C 423.19 -17.06 422.58 -17.49 421.89 -17.49 Z M 437.61 -6 L 437.61 -6.44 C 437.61 -9.57 435.82 -12.5 432.35 -12.5 L 431.71 -12.5 C 430.98 -12.5 430.24 -12.33 429.51 -11.98 C 427.27 -10.96 426.32 -8.65 426.32 -6.32 L 426.32 -5.68 C 426.32 -4.08 426.66 -1.44 429.31 -0.2 C 430 0.13 430.71 0.28 431.45 0.28 L 431.88 0.28 C 432.69 0.28 433.51 0.08 434.35 -0.33 C 435.47 -0.85 436.3 -1.63 436.83 -2.68 C 437.35 -3.71 437.61 -4.83 437.61 -6 Z M 431.86 -1.42 L 431.63 -1.42 C 430.07 -1.42 428.87 -3.27 428.87 -5.13 C 428.87 -5.23 428.88 -5.35 428.84 -5.54 L 428.84 -6.41 C 428.84 -7.76 429.12 -8.85 429.69 -9.66 C 430.24 -10.46 430.94 -10.88 431.77 -10.88 L 432.03 -10.88 C 432.88 -10.88 433.56 -10.48 434.05 -9.67 C 434.55 -8.86 434.79 -7.84 434.79 -6.61 L 434.79 -5.62 L 434.76 -5.34 C 434.76 -4.19 434.49 -3.26 433.95 -2.52 C 433.4 -1.78 432.71 -1.42 431.86 -1.42 Z M 441.71 -0.35 L 441.74 -0.35 C 442.75 -0.35 443.54 -0.85 443.54 -1.54 L 443.43 -3.79 C 443.43 -6.32 443.64 -8 444.06 -8.85 C 444.52 -9.86 445.42 -10.24 446.31 -10.24 C 447.25 -10.24 447.9 -9.78 448.27 -8.88 C 448.68 -7.7 448.96 -5.55 448.96 -2.27 L 448.93 -1.8 C 448.93 -0.88 449.36 -0.52 450.32 -0.52 C 451.44 -0.52 452.01 -0.89 452.01 -1.63 C 451.99 -1.81 451.89 -2.17 451.71 -2.66 C 451.33 -3.68 451.38 -4.64 451.31 -5.42 L 451.26 -6.78 C 451.16 -8.41 450.97 -9.47 450.79 -10.1 C 450.32 -11.24 449.3 -11.98 448.06 -11.98 L 447.72 -11.98 C 446.65 -11.98 445.66 -11.47 444.93 -11.13 C 444.56 -10.96 444.3 -10.88 444.18 -10.88 C 444.05 -10.88 443.71 -11.02 443.16 -11.31 C 442.62 -11.6 442.09 -11.74 441.57 -11.74 C 441.05 -11.75 440.78 -11.61 440.78 -11.31 L 440.89 -10.01 C 440.89 -9.8 440.9 -9.54 440.86 -9.1 L 440.86 -6.12 C 440.86 -4.15 440.89 -3.41 440.52 -2.49 C 440.37 -2 440.28 -1.6 440.28 -1.33 C 440.3 -0.68 440.76 -0.35 441.71 -0.35 Z" stroke-linecap="round" />
</g>
</g>
</g>
</svg>